<!-- <svg width="32" height="32" viewBox="0 0 32 32" fill="none" xmlns="http://www.w3.org/2000/svg">
<path fill-rule="evenodd" clip-rule="evenodd" d="M1.41418 0H0V1.41418L1.41418 0ZM0 5.41418V4L4 0H5.41418L0 5.41418ZM0 9.41418V8L8 0H9.41418L0 9.41418ZM0 13.4142V12L12 0H13.4142L0 13.4142ZM0 17.4142V16L16 0H17.4142L0 17.4142ZM0 21.4142V20L20 0H21.4142L0 21.4142ZM0 25.4142V24L24 0H25.4142L0 25.4142ZM0 29.4142V28L28 0H29.4142L0 29.4142ZM1.41418 32H0L32 0V1.41418L1.41418 32ZM5.41418 32H3.99997L32 4V5.41418L5.41418 32ZM9.41418 32H7.99997L32 8V9.41418L9.41418 32ZM13.4142 32H12L32 12V13.4142L13.4142 32ZM17.4142 32H16L32 16V17.4142L17.4142 32ZM21.4142 32H20L32 20V21.4142L21.4142 32ZM25.4142 32H24L32 24V25.4142L25.4142 32ZM29.4142 32H28L32 28V29.4142L29.4142 32Z" fill="black"/>
</svg> -->

<svg width="30" height="30" viewBox="0 0 30 30" fill="none" xmlns="http://www.w3.org/2000/svg">
<path fill-rule="evenodd" clip-rule="evenodd" d="M1.41421 0H0V1.41421L1.41421 0ZM0 7.4142V5.99999L5.99999 0H7.4142L0 7.4142ZM0 13.4142V12L12 0H13.4142L0 13.4142ZM0 19.4142V18L18 0H19.4142L0 19.4142ZM0 25.4142V24L24 0H25.4142L0 25.4142ZM1.4142 30H0L30 0V1.4142L1.4142 30ZM7.4142 30H5.99998L30 5.99999V7.4142L7.4142 30ZM13.4142 30H12L30 12V13.4142L13.4142 30ZM19.4142 30H18L30 18V19.4142L19.4142 30ZM25.4142 30H24L30 24V25.4142L25.4142 30Z" fill="black"/>
</svg>

