<svg width="139" height="112" viewBox="0 0 139 112" fill="none" xmlns="http://www.w3.org/2000/svg">
<!-- INNER FILL -->
<path d="M38.7761 110.055C37.5571 112.051 33.8062 110.007 32.3408 105.646C31.8637 104.226 31.2655 102.601 31.0772 99.8138H26.926C25.2855 104.187 25.037 108.848 24.2058 110.054C22.8315 112.05 18.6023 110.006 16.9502 105.645C16.4122 104.225 15.0118 101.703 15.0118 93.9979V31.887C14.6954 32.3877 14.2244 32.8478 13.6678 33.2434C11.7482 34.6079 8.81061 35.2056 7.68563 34.0595C5.92113 32.2619 9.47681 32.1025 10.02 30.2238C8.33227 30.7436 2.5485 29.4615 2.4061 26.958C2.26371 24.4546 4.32484 27.5185 6.19233 24.2376C4.8132 24.7789 -0.226118 21.3544 0.594388 17.3564C0.987505 15.4409 3.33059 18.5541 4.82829 17.8308C4.82829 17.8308 3.08483 13.6731 5.857 8.68256C9.09531 2.85289 7.77781 13.6812 12.0264 19.4421C14.2015 22.3915 19.3676 24.1712 22.3084 24.5007H103.218C104.23 24.5007 105.255 24.2813 106.063 23.6719C107.871 22.3066 108.293 20.7322 109.079 17.0566C109.946 13.0057 112.006 9.95314 111.979 6.18825C111.953 2.42336 113.174 1.17725 113.174 1.17725C115.343 2.21679 116.649 3.8974 117.159 4.91556C117.929 4.49134 120.171 3.64292 122.976 3.64292C125.781 3.64292 128.843 4.07422 130.251 4.49844C130.729 3.544 131.224 2.78259 132.459 1.17725C136.014 6.55067 135.302 14.1273 136.139 15.1577C139.482 19.274 138.106 27.2506 138.106 31.9964L138.119 94.2601C138.119 98.2413 137.236 102.591 136.529 104.695C135.064 109.056 133.104 110.535 131.11 109.083C129.965 108.25 129.44 103.217 126.909 99.8138H119.69C118.235 104.187 117.992 108.848 117.255 110.055C116.036 112.051 112.285 110.007 110.82 105.646C110.343 104.226 109.686 102.601 109.497 99.8138H41.3843C39.9293 104.187 39.5133 108.848 38.7761 110.055Z" fill="white"/>

<!-- SHAPE -->
<path d="M131.687 13.6253C131.687 14.7338 131.327 15.6325 130.882 15.6325C130.438 15.6325 130.078 14.7338 130.078 13.6253C130.078 12.5168 130.438 11.6182 130.882 11.6182C131.327 11.6182 131.687 12.5168 131.687 13.6253Z" fill="#C3C3C3"/>
<path fill-rule="evenodd" clip-rule="evenodd" d="M126.198 18.6356C126.498 18.8146 126.774 18.9303 126.985 18.9674C127.123 18.9916 127.357 18.9497 127.659 18.7951C127.947 18.6473 128.231 18.4296 128.441 18.2095C128.514 18.1319 128.575 18.0585 128.621 17.9927H125.355C125.368 18.0061 125.383 18.0198 125.398 18.0338C125.62 18.2424 125.904 18.4601 126.198 18.6356ZM124.147 17.2842C124.324 17.0279 124.612 16.9927 124.774 16.9927H128.73C128.959 16.9927 129.212 17.0326 129.416 17.1844C129.652 17.3598 129.737 17.618 129.724 17.8573C129.712 18.0705 129.625 18.2672 129.532 18.4243C129.435 18.5886 129.307 18.7495 129.165 18.8988C128.882 19.1964 128.508 19.4835 128.115 19.6851C127.96 19.7642 127.791 19.8363 127.614 19.8886C127.637 20.3336 127.752 21.0523 128.001 21.6941C128.148 22.0746 128.329 22.3932 128.535 22.6094C128.735 22.8178 128.939 22.9147 129.166 22.9147C129.849 22.9147 130.382 22.3574 130.382 21.8262C130.382 21.5501 130.606 21.3262 130.882 21.3262C131.158 21.3262 131.382 21.5501 131.382 21.8262C131.382 22.9743 130.335 23.9147 129.166 23.9147C128.603 23.9147 128.151 23.6551 127.812 23.3003C127.506 22.9792 127.277 22.5688 127.108 22.1554C126.937 22.5694 126.708 22.9802 126.399 23.3015C126.057 23.6562 125.604 23.9147 125.039 23.9147C123.868 23.9147 122.812 22.9773 122.812 21.8262C122.812 21.5501 123.036 21.3262 123.312 21.3262C123.588 21.3262 123.812 21.5501 123.812 21.8262C123.812 22.3544 124.347 22.9147 125.039 22.9147C125.27 22.9147 125.477 22.8167 125.678 22.6082C125.886 22.3919 126.068 22.0733 126.216 21.6931C126.463 21.0594 126.579 20.3509 126.604 19.9052C126.29 19.8186 125.972 19.6654 125.685 19.494C125.329 19.2812 124.987 19.02 124.713 18.7629C124.457 18.5222 124.201 18.2307 124.093 17.9502C124.042 17.8182 123.969 17.5412 124.147 17.2842Z" fill="#C3C3C3"/>
<path fill-rule="evenodd" clip-rule="evenodd" d="M113.391 0.726401C113.198 0.633894 112.967 0.674422 112.817 0.827214L112.816 0.828335L112.815 0.829575L112.812 0.832415L112.806 0.839551C112.801 0.844959 112.794 0.851676 112.787 0.85974C112.773 0.87587 112.754 0.89738 112.733 0.924585C112.689 0.97901 112.631 1.05612 112.565 1.15838C112.432 1.36308 112.264 1.66742 112.1 2.09077C111.773 2.93823 111.466 4.25421 111.479 6.19179C111.492 7.98251 111.009 9.61814 110.393 11.3474C110.272 11.6888 110.145 12.0346 110.015 12.3859L110.015 12.3871C109.496 13.7976 108.945 15.297 108.591 16.952C107.798 20.6547 107.4 22.0359 105.761 23.2728C105.071 23.7941 104.167 24.0007 103.218 24.0007H22.3367C20.9236 23.8386 18.9595 23.3274 17.0827 22.4966C15.1858 21.657 13.4417 20.5188 12.4288 19.1454C10.5892 16.6509 9.82629 13.1534 9.2421 10.4753C9.17647 10.1744 9.11309 9.88388 9.0507 9.60626C8.89907 8.93161 8.75019 8.32316 8.58457 7.84307C8.50156 7.60241 8.40953 7.37954 8.30324 7.18998C8.19936 7.00474 8.06428 6.8192 7.88092 6.68781C7.68153 6.54493 7.43798 6.47685 7.17438 6.52532C6.93222 6.56984 6.7228 6.70364 6.54561 6.86098C6.19605 7.17138 5.82867 7.70395 5.41993 8.43977C3.98097 11.0302 3.71028 13.4137 3.80382 15.1549C3.85051 16.0242 3.98785 16.7328 4.11492 17.2275C4.13355 17.3001 4.15197 17.3681 4.16986 17.4313C4.05152 17.415 3.91679 17.3797 3.76251 17.3231C3.43474 17.2028 3.10098 17.0186 2.74631 16.8229C2.67723 16.7848 2.60735 16.7462 2.53657 16.7076C2.32924 16.5945 2.11285 16.4809 1.90419 16.3939C1.70004 16.3089 1.46679 16.2334 1.22993 16.2245C0.976658 16.215 0.705467 16.2826 0.482994 16.4944C0.275488 16.692 0.164393 16.9646 0.104611 17.2559C-0.354976 19.4953 0.833562 21.5146 2.2206 22.8584C2.92124 23.5372 3.69969 24.0725 4.40766 24.4054C4.69672 24.5414 4.98223 24.6475 5.2524 24.7142C5.00961 24.9886 4.78169 25.1475 4.58015 25.2423C4.24098 25.4017 3.91436 25.4102 3.57484 25.3902C3.53245 25.3878 3.4856 25.3844 3.43646 25.381C3.30973 25.372 3.16777 25.3619 3.04781 25.3622C2.87491 25.3627 2.64204 25.3808 2.42628 25.5045C2.18773 25.6413 2.04421 25.862 1.97059 26.1195C1.90167 26.3606 1.88786 26.6513 1.90693 26.9864C1.95399 27.8139 2.4641 28.4817 3.10894 28.9902C3.75799 29.502 4.60466 29.9034 5.47285 30.1981C6.34508 30.4942 7.26627 30.6917 8.08355 30.7818C8.40758 30.8176 8.72529 30.8376 9.02335 30.8381C8.97346 30.8833 8.92054 30.9283 8.8647 30.9732C8.62562 31.1654 8.37912 31.323 8.12056 31.4883C7.98611 31.5742 7.8484 31.6622 7.70677 31.7583C7.51462 31.8886 7.31869 32.0331 7.15422 32.1956C6.98989 32.3579 6.83293 32.5615 6.75276 32.8156C6.57495 33.3794 6.84199 33.9138 7.32882 34.4098C8.06789 35.1627 9.29967 35.2702 10.457 35.0868C11.6484 34.8979 12.935 34.3778 13.9575 33.6509C14.1509 33.5135 14.3367 33.3673 14.5118 33.213V93.9979C14.5118 97.8807 14.8646 100.477 15.2926 102.293C15.6327 103.736 16.0228 104.689 16.2971 105.359C16.3675 105.531 16.4303 105.684 16.4826 105.822C17.3473 108.104 18.8923 109.801 20.4372 110.669C21.2082 111.102 22.0081 111.345 22.7416 111.32C23.4903 111.295 24.1706 110.987 24.6176 110.338C24.8837 109.952 25.0718 109.349 25.2364 108.679C25.383 108.083 25.5251 107.367 25.6802 106.585L25.7528 106.219C26.1052 104.45 26.543 102.357 27.2752 100.314H30.6144C30.8251 102.725 31.3427 104.255 31.7784 105.543C31.8083 105.631 31.8378 105.719 31.8668 105.805C32.6304 108.077 33.9989 109.779 35.3833 110.656C36.0732 111.094 36.802 111.347 37.4815 111.321C38.1853 111.294 38.8059 110.966 39.2028 110.316C39.4328 109.939 39.6116 109.349 39.7757 108.68C39.9318 108.043 40.0883 107.271 40.2601 106.423L40.3011 106.221C40.6594 104.455 41.0934 102.361 41.7472 100.314H109.035C109.24 102.592 109.755 104.088 110.181 105.323C110.238 105.488 110.293 105.648 110.346 105.805C111.11 108.077 112.478 109.779 113.862 110.656C114.552 111.094 115.281 111.347 115.961 111.321C116.664 111.294 117.285 110.966 117.682 110.316C117.916 109.934 118.083 109.337 118.23 108.669C118.363 108.069 118.492 107.348 118.633 106.56L118.695 106.21C119.012 104.446 119.405 102.355 120.053 100.314H126.653C127.781 101.909 128.488 103.854 129.055 105.569C129.124 105.78 129.192 105.988 129.259 106.192C129.469 106.839 129.666 107.443 129.86 107.943C129.989 108.274 130.124 108.579 130.271 108.834C130.415 109.084 130.59 109.323 130.815 109.487C131.378 109.896 131.976 110.126 132.595 110.123C133.215 110.12 133.799 109.882 134.329 109.46C135.368 108.635 136.262 107.06 137.003 104.855C137.727 102.701 138.619 98.2979 138.619 94.26L138.606 31.9964C138.606 31.0122 138.666 29.8863 138.731 28.6668L138.731 28.6655C138.744 28.4362 138.756 28.2036 138.768 27.968C138.845 26.4873 138.913 24.9004 138.876 23.3291C138.802 20.2101 138.311 17.0385 136.527 14.8425C136.527 14.8425 136.525 14.8402 136.522 14.8349L136.518 14.8288C136.515 14.8242 136.512 14.8183 136.508 14.8111C136.497 14.7893 136.483 14.7588 136.468 14.7176C136.438 14.6341 136.406 14.522 136.375 14.3771C136.313 14.0862 136.261 13.7052 136.208 13.2378C136.175 12.9464 136.142 12.6227 136.106 12.2732L136.106 12.2711C136.029 11.5202 135.941 10.6506 135.814 9.72789C135.44 7.0121 134.717 3.68359 132.876 0.901364C132.787 0.766664 132.638 0.683312 132.477 0.677577C132.315 0.671842 132.161 0.744431 132.062 0.872467C130.975 2.28647 130.444 3.06838 129.993 3.90903C128.408 3.50766 125.576 3.14293 122.976 3.14293C120.495 3.14293 118.433 3.78374 117.365 4.25832C116.701 3.16456 115.392 1.68597 113.391 0.726401ZM126.115 4.30168C126.212 5.00567 126.318 5.94143 126.371 6.93756C126.441 8.26417 126.419 9.73928 126.135 10.9212C125.444 13.7932 123.722 16.4419 122.135 17.7919C121.001 18.756 119.104 19.4165 116.777 19.7959C114.533 20.1618 111.825 20.2764 108.868 20.1143C108.352 21.9025 107.716 23.0507 106.364 24.071C105.44 24.7686 104.294 25.0007 103.218 25.0007H22.3085C22.2899 25.0007 22.2713 24.9996 22.2528 24.9976C20.727 24.8266 18.651 24.2845 16.6779 23.4111C14.7127 22.5412 12.7862 21.3148 11.624 19.7389C9.64744 17.0588 8.83953 13.3374 8.26436 10.6881C8.19868 10.3855 8.13604 10.097 8.07503 9.82554C7.92342 9.15094 7.78484 8.59125 7.63924 8.16917C7.56665 7.95873 7.49713 7.79701 7.431 7.67907C7.38466 7.59643 7.34761 7.54916 7.32359 7.52371C7.29948 7.53726 7.26166 7.5625 7.20959 7.60873C6.99477 7.79949 6.69495 8.20377 6.29411 8.92537C4.96089 11.3255 4.71722 13.516 4.80238 15.1013C4.84502 15.8953 4.97029 16.538 5.08349 16.9788C5.14005 17.199 5.19349 17.3684 5.23185 17.4804C5.25102 17.5364 5.26641 17.5781 5.27651 17.6045L5.28264 17.6204L5.28749 17.6327L5.2894 17.6374C5.39193 17.8825 5.28504 18.1654 5.04576 18.281C4.48835 18.5502 3.89937 18.4386 3.41789 18.2618C3.01121 18.1126 2.59756 17.8837 2.24502 17.6887C2.18039 17.6529 2.11781 17.6183 2.0577 17.5855C1.85397 17.4744 1.67655 17.3824 1.51959 17.317C1.35812 17.2498 1.25393 17.2261 1.19244 17.2238C1.18099 17.2234 1.17292 17.2238 1.1677 17.2243C1.15431 17.2416 1.11597 17.3021 1.08419 17.457C0.723276 19.2156 1.64415 20.9075 2.91642 22.1402C3.54544 22.7496 4.23413 23.2187 4.83327 23.5005C5.13314 23.6416 5.39831 23.7299 5.6132 23.7697C5.83699 23.8111 5.96032 23.7915 6.00966 23.7722C6.20694 23.6947 6.4316 23.7501 6.57033 23.9103C6.70906 24.0705 6.73172 24.3007 6.62689 24.4849C6.12357 25.3692 5.57606 25.8791 5.0056 26.1472C4.43753 26.4143 3.90762 26.4115 3.51621 26.3885C3.44113 26.3841 3.37697 26.3795 3.31982 26.3754C3.2143 26.3679 3.13271 26.362 3.05044 26.3622C2.99351 26.3624 2.9591 26.3663 2.94006 26.3695C2.93773 26.3759 2.93502 26.3841 2.93207 26.3944C2.90823 26.4778 2.88877 26.6389 2.90531 26.9297C2.92945 27.354 3.1957 27.7851 3.72811 28.2049C4.2563 28.6214 4.98776 28.9774 5.79428 29.2512C6.59676 29.5236 7.44686 29.7056 8.19316 29.7879C8.95686 29.8721 9.55134 29.845 9.87285 29.7459C10.0484 29.6919 10.2395 29.7384 10.3705 29.8672C10.5015 29.9959 10.5514 30.1862 10.5003 30.3627C10.3235 30.9744 9.90936 31.4165 9.49126 31.7526C9.21076 31.9781 8.88181 32.1889 8.59913 32.3701C8.47776 32.4479 8.36492 32.5202 8.26812 32.5859C8.09214 32.7052 7.956 32.8092 7.85701 32.907C7.75788 33.0049 7.71998 33.0735 7.70645 33.1164C7.69686 33.1468 7.64705 33.3064 8.04247 33.7093C8.42838 34.1024 9.2279 34.2691 10.3005 34.0991C11.3391 33.9345 12.4811 33.4736 13.3782 32.8359C13.8975 32.4667 14.3165 32.0513 14.5891 31.6199C14.708 31.4317 14.937 31.3448 15.1508 31.4067C15.3647 31.4686 15.5118 31.6644 15.5118 31.887V93.9979C15.5118 97.8204 15.8592 100.338 16.2659 102.064C16.5859 103.422 16.9402 104.288 17.2139 104.957C17.2886 105.14 17.3573 105.308 17.4177 105.468C18.2052 107.546 19.6008 109.052 20.9271 109.797C21.5918 110.171 22.21 110.338 22.7077 110.321C23.1901 110.305 23.5538 110.12 23.794 109.771C23.9435 109.554 24.0981 109.121 24.2652 108.441C24.4061 107.868 24.5431 107.177 24.6989 106.392L24.7721 106.024C25.1432 104.161 25.6219 101.867 26.4578 99.6382C26.531 99.4431 26.7176 99.3138 26.926 99.3138H109.497C109.76 99.3138 109.979 99.5176 109.996 99.7801C110.159 102.187 110.676 103.69 111.127 104.997C111.184 105.163 111.24 105.325 111.294 105.486C111.996 107.575 113.235 109.075 114.398 109.812C114.981 110.181 115.51 110.337 115.923 110.322C116.311 110.307 116.616 110.143 116.829 109.795C116.964 109.574 117.103 109.134 117.254 108.453C117.382 107.874 117.507 107.176 117.648 106.384L117.711 106.033C118.046 104.171 118.475 101.88 119.215 99.656C119.283 99.4516 119.474 99.3138 119.69 99.3138H128.843C129.119 99.3138 129.343 99.5377 129.343 99.8138C129.343 100.09 129.119 100.314 128.843 100.314H127.853C128.853 101.915 129.499 103.728 130.004 105.255C130.078 105.479 130.149 105.696 130.217 105.905C130.425 106.544 130.609 107.109 130.792 107.58C130.913 107.891 131.027 108.143 131.138 108.336C131.252 108.534 131.343 108.634 131.404 108.678C131.839 108.995 132.233 109.125 132.589 109.123C132.943 109.121 133.315 108.989 133.707 108.677C134.513 108.037 135.331 106.692 136.055 104.536C136.746 102.481 137.619 98.1848 137.619 94.2602L137.606 31.9964C137.606 30.9827 137.668 29.8242 137.733 28.6054C137.745 28.3776 137.758 28.1477 137.77 27.9162C137.846 26.438 137.913 24.8835 137.876 23.3529C137.803 20.2681 137.31 17.3933 135.751 15.4729C135.564 15.2424 135.465 14.9037 135.398 14.586C135.325 14.2443 135.268 13.8223 135.214 13.3505C135.179 13.0389 135.145 12.7037 135.108 12.3472C135.033 11.605 134.948 10.7705 134.823 9.86431C134.483 7.39532 133.861 4.52289 132.418 2.05698C131.507 3.26839 131.097 3.92683 130.698 4.7224C130.589 4.93982 130.34 5.04735 130.107 4.97719C129.268 4.72436 127.784 4.46297 126.115 4.30168ZM31.6184 100.314C31.8229 102.553 32.3026 103.971 32.7269 105.226C32.7565 105.314 32.7858 105.4 32.8147 105.486C33.5166 107.575 34.7563 109.075 35.9185 109.812C36.5017 110.181 37.0309 110.337 37.4433 110.322C37.8314 110.307 38.1368 110.143 38.3494 109.795C38.488 109.568 38.6377 109.122 38.8044 108.442C38.9554 107.825 39.108 107.073 39.2815 106.217L39.321 106.022C39.6615 104.345 40.0793 102.322 40.6991 100.314H31.6184ZM119.542 15.6323C120.09 15.6323 120.535 14.7337 120.535 13.6253C120.535 12.5168 120.09 11.6182 119.542 11.6182C118.994 11.6182 118.549 12.5168 118.549 13.6253C118.549 14.7337 118.994 15.6323 119.542 15.6323Z" fill="#C3C3C3"/>
</svg>
