<svg width="140" height="114" viewBox="0 0 140 114" fill="none" xmlns="http://www.w3.org/2000/svg">
<path d="M133.5 0.5H6.5C3.18629 0.5 0.5 3.18629 0.5 6.5V94.5C0.5 97.8137 2.18629 100.5 5.5 100.5H7.18841C7.30322 96.6459 7.7715 93.7493 13.0149 90.4105C16.1174 88.435 21.8004 91.0899 23.2206 92.4093C24.1361 93.2599 25.296 94.4807 25.9232 95.3586C26.2905 94.467 26.6367 93.8563 27.0418 93.3898C29.143 90.9701 31.5447 89.9507 34.3643 89.9507C37.2883 89.9506 39.8163 89.8882 43.1389 93.3899C45.13 95.4882 46.2612 99.5909 46.9876 103.093C48.5077 97.1166 48.7066 91.4959 51.9336 89.6195C54.5748 88.0837 58.6916 87.0313 61.9212 88.9817C63.9607 90.2133 66.1937 92.4359 67.0524 99.7568C67.8637 98.2467 68.9221 96.6968 69.7503 95.9636C72.5513 93.4837 77.0895 92.2995 80.1476 92.7628C84.4238 93.4106 86.9244 97.0867 88.384 99.3001C88.7563 97.8635 89.182 96.5396 89.6435 95.4664C90.0269 94.5748 90.435 93.8563 90.8577 93.3898C93.0508 90.9701 95.5573 89.9507 98.5001 89.9507C101.302 89.9506 103.594 89.8882 106.777 93.3899C108.685 95.4882 109.891 100.159 110.587 103.662C111.644 99.8163 112.057 96.4337 113.141 94.7062C114.558 92.4464 117.947 90.2681 121.687 90.2681C126.328 90.2681 130.462 92.9661 131.32 96.5705C131.627 97.861 131.887 99.1462 132.08 100.5H133.5C136.814 100.5 139.5 97.8137 139.5 94.5V6.5C139.5 3.18629 136.814 0.5 133.5 0.5Z" fill="white"/>
<path fill-rule="evenodd" clip-rule="evenodd" d="M0 6.50001C0 2.91015 2.91015 0 6.5 0H133.5C137.09 0 140 2.91015 140 6.50001V94.5001C140 98.09 137.09 101 133.5 101H132.652C132.846 102.526 132.956 104.149 132.956 105.966C132.956 106.242 132.732 106.466 132.456 106.466C132.18 106.466 131.956 106.242 131.956 105.966C131.956 102.358 131.512 99.5402 130.833 96.6864C130.045 93.377 126.177 90.7682 121.687 90.7682C118.12 90.7682 114.89 92.8575 113.564 94.972C113.259 95.4577 113.001 96.1128 112.757 96.9291C112.513 97.7424 112.294 98.6844 112.055 99.7338L111.979 100.065C111.521 102.082 110.985 104.44 110.097 106.856C110.002 107.115 109.714 107.248 109.455 107.152C109.196 107.057 109.063 106.77 109.159 106.511C109.54 105.473 109.855 104.445 110.127 103.447C110.045 103.377 109.986 103.28 109.963 103.166C109.617 101.424 109.18 99.554 108.597 97.8658C108.011 96.169 107.293 94.7008 106.408 93.7264C104.859 92.0232 103.561 91.2227 102.343 90.8336C101.143 90.4503 99.9829 90.4506 98.6161 90.4509L98.5 90.451L98.4884 90.4508C95.6895 90.4535 93.322 91.4156 91.2283 93.7257C90.8603 94.1317 90.4782 94.7912 90.1029 95.6641C89.3112 97.5052 88.6179 100.131 88.1262 102.804C88.6919 103.459 89.3071 104.041 89.9295 104.515C90.1552 104.687 90.1928 105.001 90.0135 105.218C89.9131 105.339 89.766 105.403 89.6163 105.406C89.4987 105.409 89.3796 105.374 89.2803 105.298C88.8341 104.958 88.3933 104.57 87.97 104.142L87.6498 107.273C87.6217 107.548 87.3762 107.748 87.1015 107.72C86.8268 107.691 86.6269 107.446 86.655 107.171L87.0674 103.139C86.473 102.411 85.9399 101.613 85.5114 100.781C84.5969 99.0068 84.1254 97.0161 84.6348 95.2158C85.0146 93.8738 86.0635 92.2514 87.083 90.9409C87.5988 90.278 88.12 89.6784 88.5678 89.2144C88.7915 88.9827 89.0005 88.781 89.1841 88.6208C89.3594 88.4679 89.5386 88.3285 89.6991 88.2452C89.9525 88.1136 90.2692 88.2038 90.4065 88.4467C90.5437 88.6895 90.4496 88.9929 90.1962 89.1245C90.1525 89.1471 90.0504 89.2174 89.8869 89.3601C89.7316 89.4956 89.5443 89.6755 89.334 89.8934C88.9139 90.3287 88.4161 90.9007 87.9198 91.5386C86.9153 92.8299 85.9679 94.3265 85.6421 95.4775C85.2247 96.9527 85.5933 98.6816 86.4471 100.338C86.6988 100.826 86.9898 101.303 87.3093 101.758C87.4706 100.955 87.6497 100.159 87.8445 99.3914C87.4272 98.7606 86.9386 98.0393 86.3568 97.3127C86.1842 97.0971 86.219 96.7825 86.4345 96.6099C86.6501 96.4373 86.9647 96.4721 87.1373 96.6876C87.529 97.1767 87.8789 97.6617 88.1906 98.1145C88.4947 97.0655 88.8282 96.097 89.1842 95.269C89.5756 94.3587 90.0097 93.5811 90.4873 93.0542C92.7767 90.5281 95.4186 89.4509 98.5001 89.4508L98.5117 89.451L98.6685 89.4509C99.9942 89.4501 101.296 89.4493 102.648 89.8811C104.072 90.3362 105.512 91.2553 107.147 93.0537C107.516 93.4588 107.851 93.9282 108.158 94.4445C108.495 93.6291 109.046 92.9222 109.625 92.3498C109.655 92.3206 109.685 92.2917 109.714 92.2631L109.744 92.2349L109.783 92.1983C109.815 91.5317 109.904 90.9124 110.037 90.343C110.545 88.1623 111.715 86.6709 112.885 86.146C113.462 85.8874 114.037 86.0001 114.53 86.2698C115.01 86.5333 115.452 86.9643 115.836 87.4359C116.608 88.3831 117.253 89.6211 117.614 90.4702C117.627 90.5014 117.637 90.5333 117.643 90.5653C118.889 90.0681 120.264 89.7682 121.687 89.7682C126.479 89.7682 130.878 92.5555 131.806 96.4549C132.084 97.6218 132.323 98.7859 132.511 100H133.5C136.538 100 139 97.5377 139 94.5001V6.50001C139 3.46244 136.538 1 133.5 1H6.5C3.46243 1 1 3.46244 1 6.50001V94.5001C1 97.453 2.32705 99.8624 5.24734 99.9945C5.07027 99.6376 4.90547 99.2778 4.75233 98.9185C3.69631 96.4407 3.16722 93.9196 3.00273 92.3406C2.97412 92.0659 3.17358 91.8201 3.44824 91.7915C3.72289 91.7628 3.96874 91.9623 3.99735 92.237C4.15263 93.7276 4.6595 96.1501 5.67226 98.5264C5.88486 99.0252 6.11853 99.5192 6.37438 100H6.70547C6.73879 99.1763 6.79804 98.3823 6.92839 97.6154C7.15698 96.2705 7.60524 94.9941 8.51416 93.7305C9.41877 92.473 10.7622 91.2524 12.7465 89.9889C14.489 88.8793 16.8713 89.1036 18.8892 89.6946C20.9215 90.2898 22.7757 91.3136 23.561 92.0432C23.8572 92.3183 24.1373 92.5961 24.4023 92.8758C25.1703 91.0479 25.401 89.3932 25.4196 88.7969C25.4283 88.5209 25.659 88.3041 25.935 88.3127C26.211 88.3214 26.4278 88.5521 26.4192 88.8281C26.3953 89.5915 26.1054 91.5662 25.1485 93.6646C25.1436 93.6753 25.1384 93.6857 25.1329 93.6958C25.3556 93.9621 25.5656 94.2295 25.7639 94.4976C26.0436 93.9234 26.3436 93.4314 26.6643 93.0621C28.8596 90.5342 31.3984 89.4509 34.3644 89.4508C34.3876 89.4508 34.4104 89.4524 34.4327 89.4554C34.4547 89.4525 34.4772 89.451 34.5 89.451L34.6743 89.4509C36.0591 89.4501 37.4118 89.4494 38.8163 89.8792C40.2957 90.3321 41.7955 91.2478 43.5016 93.0459C43.8926 93.458 44.2487 93.9369 44.5738 94.4643C44.9247 93.6355 45.5066 92.9195 46.1162 92.3424C46.9588 91.5447 47.9055 90.9634 48.5336 90.6664C48.7832 90.5484 49.0813 90.6551 49.1993 90.9047C49.3174 91.1543 49.2107 91.4524 48.9611 91.5704C48.4173 91.8275 47.5611 92.3515 46.8037 93.0686C46.0412 93.7904 45.4295 94.6596 45.2745 95.6024C45.2685 95.6386 45.2588 95.6732 45.2458 95.706C45.5237 96.2871 45.7744 96.9021 46.0017 97.5332C46.3891 98.6085 46.7146 99.7477 46.9927 100.874C47.1526 100.136 47.3001 99.4078 47.4444 98.6953L47.4447 98.6941L47.445 98.6926C47.6188 97.8343 47.788 96.9987 47.9688 96.1957C48.3182 94.644 48.713 93.2096 49.2778 92.0132C49.8448 90.8122 50.5983 89.8178 51.6822 89.1875C54.3869 87.6148 58.7182 86.4636 62.1796 88.5539C63.321 89.2432 64.5272 90.2352 65.5334 92.1491C66.2906 93.5891 66.9266 95.5358 67.3507 98.2439C68.0231 97.1595 68.7677 96.1658 69.4188 95.5894C70.0755 95.008 70.8187 94.4982 71.6093 94.0623C71.8512 93.929 72.1553 94.0169 72.2886 94.2587C72.4219 94.5005 72.334 94.8047 72.0922 94.938C71.357 95.3433 70.676 95.8119 70.0817 96.3381C69.3393 96.9954 68.362 98.4 67.5675 99.86C67.6114 100.248 67.6516 100.649 67.6878 101.064C67.7117 101.339 67.5081 101.581 67.233 101.605C66.9579 101.629 66.7155 101.426 66.6915 101.151C66.3288 96.9852 65.5619 94.3521 64.6483 92.6144C63.7432 90.893 62.6811 90.025 61.6626 89.41C58.6647 87.5995 54.7625 88.5532 52.1849 90.052C51.3333 90.5472 50.696 91.3516 50.1821 92.4401C49.6662 93.5331 49.2903 94.879 48.9444 96.4153C48.7726 97.1787 48.6086 97.9884 48.4381 98.8305L48.4379 98.8316C47.9296 101.342 47.3628 104.142 46.3542 106.86C46.2581 107.119 45.9703 107.251 45.7114 107.155C45.4525 107.059 45.3206 106.771 45.4166 106.512C45.8381 105.376 46.1789 104.232 46.4707 103.098C46.1118 101.376 45.6603 99.5361 45.0609 97.8721C44.4502 96.1768 43.7013 94.7091 42.7762 93.7342C41.1597 92.0306 39.802 91.2268 38.5236 90.8355C37.2653 90.4503 36.0482 90.4506 34.6235 90.4509L34.5 90.451C34.4768 90.451 34.4541 90.4494 34.4317 90.4463C34.4097 90.4493 34.3872 90.4508 34.3644 90.4508C31.6911 90.4509 29.4267 91.4064 27.4194 93.7178C27.0671 94.1234 26.7007 94.7832 26.3407 95.657C25.6328 97.3753 25.0071 99.776 24.5437 102.261C24.6312 102.235 24.7183 102.207 24.8049 102.178C25.6458 101.893 26.0737 101.601 26.3683 101.251C26.6812 100.878 26.8807 100.401 27.1942 99.6266C27.2979 99.3706 27.5894 99.2471 27.8453 99.3508C27.8674 99.3597 27.8884 99.37 27.9084 99.3815C28.1157 99.39 28.3041 99.5279 28.367 99.7378C28.8011 101.187 29.0122 102.529 29.1562 103.651C29.1939 103.945 29.2267 104.219 29.2571 104.473C29.346 105.215 29.4148 105.79 29.529 106.209C29.6017 106.476 29.4446 106.751 29.1782 106.823C28.9118 106.896 28.6369 106.739 28.5643 106.472C28.4289 105.976 28.3472 105.292 28.2553 104.522C28.2267 104.281 28.197 104.032 28.1643 103.778C28.0582 102.952 27.9173 102.023 27.6791 101.029C27.5239 101.345 27.3514 101.635 27.1341 101.894C26.6811 102.433 26.0681 102.806 25.1257 103.125C24.8225 103.228 24.5154 103.312 24.2066 103.379C24.1006 103.459 23.9636 103.496 23.8229 103.472C23.8084 103.469 23.7943 103.466 23.7804 103.463C22.2659 103.722 20.7333 103.613 19.4341 103.379C17.7492 103.077 16.3951 102.554 15.896 102.287C15.7776 102.223 15.6897 102.115 15.652 101.986C15.6144 101.857 15.6301 101.719 15.6957 101.602C17.5799 98.2368 18.9837 96.0951 22.0865 94.9898C23.0324 94.6529 23.6028 94.4924 24.0725 94.4217C24.1888 94.4042 24.2986 94.3924 24.4051 94.3845C23.9556 93.843 23.45 93.305 22.8803 92.7758C22.2454 92.1859 20.5481 91.2225 18.6082 90.6543C16.6539 90.0819 14.6435 89.9665 13.2836 90.8324C11.3697 92.0511 10.1345 93.1905 9.32595 94.3145C8.52172 95.4325 8.12223 96.5593 7.91425 97.783C7.72005 98.9255 7.69381 100.139 7.66383 101.526L7.65599 101.883L7.65297 102.016C8.39886 102.996 9.27113 103.844 10.2831 104.46C10.5189 104.604 10.5937 104.912 10.45 105.148C10.3063 105.383 9.9987 105.458 9.76287 105.314C8.95821 104.824 8.24114 104.21 7.60373 103.516C7.55345 104.604 7.45936 105.777 7.25551 107.051C7.21189 107.324 6.95548 107.509 6.68281 107.466C6.41013 107.422 6.22445 107.166 6.26807 106.893C6.53596 105.219 6.60811 103.721 6.64477 102.334C6.33518 101.905 6.04914 101.458 5.78527 101H5.5C1.91015 101 0 98.09 0 94.5001V6.50001ZM25.1729 95.3724L25.0577 95.3714C24.729 95.3686 24.5125 95.3667 24.2214 95.4106C23.8505 95.4664 23.3542 95.5998 22.4221 95.9318C19.832 96.8545 18.575 98.5536 16.8355 101.616C17.4292 101.855 18.4232 102.182 19.6109 102.395C20.8067 102.61 22.1646 102.704 23.4839 102.498C23.9434 99.9256 24.5846 97.3657 25.3349 95.4768C25.2757 95.4532 25.2205 95.4183 25.1729 95.3724ZM116.753 90.9646C116.729 90.9332 116.709 90.8986 116.693 90.8611C116.354 90.0622 115.753 88.9164 115.061 88.0678C114.713 87.6414 114.368 87.3216 114.049 87.1467C113.741 86.9781 113.503 86.9649 113.295 87.0585C112.501 87.4141 111.475 88.5789 111.011 90.57C110.955 90.8078 110.908 91.0568 110.871 91.3168C111.271 91.0366 111.647 90.8182 111.947 90.67C112.195 90.5478 112.495 90.6495 112.617 90.8972C112.739 91.1448 112.637 91.4446 112.39 91.5668C111.975 91.7716 111.367 92.1476 110.769 92.657C110.755 94.0089 110.987 95.5856 111.595 97.3676C111.661 97.1174 111.729 96.8754 111.799 96.6426C112.052 95.7955 112.341 95.0397 112.717 94.4407C113.542 93.1244 114.979 91.8493 116.753 90.9646ZM111.18 99.0751C111.176 99.0675 111.172 99.0598 111.169 99.052C110.324 97.0504 109.908 95.2395 109.799 93.6455C109.326 94.2339 108.973 94.895 108.862 95.5991C108.855 95.644 108.842 95.6866 108.824 95.7262C109.088 96.3033 109.326 96.9136 109.542 97.5396C109.979 98.8035 110.333 100.156 110.628 101.473C110.762 100.91 110.886 100.362 111.007 99.8327L111.08 99.5117L111.127 99.3059L111.18 99.0751ZM61.4404 102.556C62.5236 102.112 63.2028 101.275 63.4198 100.453C63.6347 99.6385 63.4044 98.8495 62.6674 98.366C61.8354 97.8201 61.0907 97.7002 60.2142 97.7343C59.7854 97.7509 59.3333 97.804 58.8155 97.8649L58.7321 97.8747C58.1853 97.9388 57.5772 98.0079 56.8959 98.0399C55.9818 98.0828 55.1216 98.0211 54.3776 97.9677H54.3765H54.3754L54.3729 97.9676L54.3714 97.9674L54.3698 97.9673C54.023 97.9424 53.7016 97.9194 53.4118 97.9097C52.4585 97.8781 51.7611 97.9761 51.154 98.4392C50.8051 98.7054 50.5986 98.935 50.4982 99.1357C50.4099 99.3124 50.3938 99.4838 50.4751 99.6998C50.5656 99.9404 50.7856 100.254 51.2267 100.652C51.6634 101.045 52.2864 101.495 53.1362 102.014C56.3808 103.998 59.2181 103.237 61.4404 102.556ZM61.7502 103.505C59.4871 104.199 56.2604 105.1 52.6103 102.868C51.7337 102.332 51.0539 101.846 50.5541 101.395C50.0588 100.949 49.7086 100.509 49.5384 100.056C49.3589 99.5795 49.3912 99.1185 49.6037 98.6934C49.8042 98.2923 50.1506 97.9507 50.5499 97.646C51.4392 96.9676 52.4289 96.8768 53.4509 96.9107C53.8136 96.9227 54.1732 96.9489 54.5415 96.9758L54.5426 96.9759C55.2527 97.0276 55.9956 97.0818 56.8548 97.0414C57.498 97.0112 58.0757 96.9459 58.6212 96.8819L58.7179 96.8705C59.2228 96.8112 59.7119 96.7537 60.1812 96.7354C61.2065 96.6956 62.1713 96.8415 63.2199 97.5294C64.3635 98.2797 64.6956 99.5334 64.3871 100.702C64.082 101.858 63.1588 102.938 61.7909 103.49L61.7709 103.498L61.7502 103.505ZM67.9031 105.384C67.8981 105.108 67.6703 104.888 67.3942 104.893C67.1181 104.898 66.8983 105.126 66.9033 105.402C66.9087 105.701 66.9124 106.006 66.9145 106.317C66.9164 106.593 67.1417 106.816 67.4179 106.814C67.694 106.812 67.9164 106.587 67.9145 106.31C67.9124 105.996 67.9086 105.687 67.9031 105.384ZM39.6082 100.879C39.3061 100.751 38.7884 100.719 38.0555 100.936C37.7907 101.014 37.5125 100.863 37.4342 100.598C37.3559 100.333 37.5071 100.055 37.7719 99.9767C38.6244 99.7247 39.4021 99.7054 39.9992 99.959C40.6349 100.229 41.0047 100.787 41.0047 101.49C41.0047 101.997 40.7213 102.378 40.5104 102.621C40.4846 102.65 40.4568 102.681 40.4286 102.712C40.4649 102.724 40.5024 102.737 40.5399 102.751C40.7158 102.817 40.9503 102.922 41.1379 103.122C41.3422 103.34 41.4525 103.626 41.4457 103.971C41.4309 104.727 41.004 105.332 40.4751 105.695C39.9547 106.052 39.2632 106.225 38.6423 106.026C38.3793 105.942 38.2341 105.661 38.3181 105.398C38.4021 105.135 38.6835 104.99 38.9465 105.074C39.2065 105.157 39.5796 105.097 39.9092 104.871C40.2303 104.65 40.4387 104.32 40.4459 103.952C40.4479 103.848 40.4215 103.82 40.4096 103.807C40.3813 103.777 40.3207 103.737 40.191 103.688C40.129 103.665 40.0643 103.645 39.9874 103.621L39.984 103.619C39.9122 103.597 39.8247 103.569 39.7422 103.537C39.6054 103.483 39.3158 103.359 39.1903 103.051C39.1385 102.925 39.141 102.782 39.1972 102.657C39.2703 102.495 39.3946 102.355 39.4789 102.263C39.5223 102.216 39.56 102.176 39.5958 102.139C39.6497 102.082 39.699 102.03 39.756 101.965C39.9347 101.759 40.0047 101.615 40.0047 101.49C40.0047 101.185 39.8716 100.991 39.6082 100.879ZM43.1619 97.6445C42.8162 97.3885 42.1993 97.2831 41.9855 97.6444C41.7385 98.0617 41.9716 98.3071 42.0927 98.4346L42.1031 98.4456C42.3381 98.6942 42.8124 99.0315 43.3039 98.6938C43.5281 98.5398 43.7741 98.0945 43.1619 97.6445ZM96.671 97.8333C96.9522 97.6412 97.2804 97.6443 97.5781 97.8282C98.133 98.1708 97.0088 99.5419 96.5875 99.652C96.1662 99.7621 95.8718 99.2168 95.8196 98.8972C95.7673 98.5776 96.3196 98.0735 96.671 97.8333ZM61.8421 94.1393C61.146 93.917 60.835 94.1391 60.7415 94.459C60.648 94.7789 60.843 95.1953 61.2575 95.413C61.5616 95.5727 62.214 95.6128 62.214 95.1236C62.214 94.5897 62.1901 94.3837 61.8421 94.1393ZM51.1421 94.8952C51.1653 94.6507 51.3279 94.2724 51.8385 94.1388C52.3955 94.1388 52.6454 94.4282 52.599 94.8952C52.5526 95.3622 51.8385 95.6734 51.5832 95.6289C51.3279 95.5844 51.119 95.1397 51.1421 94.8952ZM80.0727 93.2573C78.8946 93.0788 77.596 93.1577 76.1084 93.4882C75.8388 93.5481 75.5718 93.3782 75.5118 93.1086C75.452 92.839 75.6219 92.572 75.8915 92.5121C76.6256 92.3489 77.3278 92.2411 78.0032 92.193C78.0364 90.5184 78.3481 89.4005 78.7785 88.6805C79.2238 87.9356 79.828 87.5797 80.3671 87.5908C80.6435 87.5965 80.8605 87.8247 80.8519 88.1004C80.8432 88.376 80.6121 88.5949 80.3357 88.5892C80.268 88.5878 79.9593 88.6462 79.6373 89.185C79.4081 89.5685 79.1879 90.1771 79.0768 91.1078C80.2317 89.6498 81.4389 89.3586 82.1504 89.5863C82.4128 89.6704 82.555 89.9514 82.4679 90.214C82.3809 90.4766 82.0975 90.6214 81.835 90.5374C81.6557 90.48 80.6472 90.4651 79.5219 92.1903C79.7585 92.2076 79.9919 92.2336 80.2225 92.2686C81.6262 92.4812 82.8434 92.997 83.8961 93.6719C84.1285 93.821 84.1962 94.1302 84.0471 94.3627C83.8981 94.5952 83.5888 94.6628 83.3563 94.5137C82.4057 93.9042 81.3197 93.4462 80.0727 93.2573ZM81.1582 98.9193C81.2098 99.1921 81.4684 99.3628 81.7358 99.3005C81.8184 99.2813 81.9808 99.2657 82.1747 99.26C82.3622 99.2545 82.5355 99.2594 82.6245 99.2678C82.8966 99.2932 83.2014 99.2817 83.4526 99.2578C83.6844 99.2358 83.9406 99.1971 84.0885 99.1409C84.3467 99.0428 84.4856 98.7508 84.3988 98.4886C84.3121 98.2265 84.0325 98.0934 83.7743 98.1915L83.7756 98.191L83.772 98.1918C83.7618 98.1944 83.7299 98.2024 83.6698 98.2128C83.5961 98.2256 83.5013 98.2384 83.3948 98.2485C83.1782 98.2691 82.9383 98.2762 82.7467 98.2583C82.6054 98.2451 82.3901 98.2407 82.1799 98.2468C81.9762 98.2527 81.7321 98.2696 81.5488 98.3123C81.2814 98.3746 81.1065 98.6464 81.1582 98.9193ZM81.8539 100.782C81.5832 100.821 81.3401 100.628 81.3111 100.351C81.2821 100.074 81.4781 99.8175 81.7489 99.7783C81.8813 99.7591 82.188 99.7124 82.3752 99.6766C82.505 99.6518 82.6433 99.6586 82.7452 99.6649C82.8067 99.6686 82.8556 99.6724 82.9057 99.6762C82.9708 99.6812 83.038 99.6863 83.1369 99.6919C83.4328 99.7085 83.8361 99.715 84.3858 99.6502C84.6573 99.6182 84.8952 99.8177 84.9172 100.096C84.9392 100.374 84.737 100.625 84.4655 100.657C83.8489 100.73 83.3885 100.723 83.05 100.704C82.9602 100.699 82.8533 100.691 82.7691 100.685L82.7155 100.681L82.6799 100.678L82.6532 100.677C82.5666 100.671 82.5328 100.673 82.525 100.673L82.5237 100.673C82.313 100.713 81.9878 100.763 81.8539 100.782ZM76.6985 99.4146C76.693 99.1385 76.4654 98.9333 76.1902 98.9563C75.6371 99.0025 75.3037 99.1355 75.0054 99.2893L74.9544 99.3158L74.8923 99.3488L74.8428 99.3753C74.6499 99.4787 74.4936 99.5624 74.2317 99.6372C73.811 99.7572 73.452 99.8946 73.1975 100.002C73.0699 100.056 72.9678 100.103 72.8965 100.137L72.847 100.161L72.813 100.178L72.7896 100.189L72.7827 100.193L72.7805 100.194L72.7794 100.195C72.5289 100.325 72.4179 100.629 72.5318 100.873C72.6457 101.118 72.9408 101.21 73.1913 101.08L73.1944 101.079L73.2094 101.071C73.2235 101.064 73.2455 101.053 73.2749 101.039C73.3337 101.011 73.4217 100.971 73.5336 100.924C73.7581 100.829 74.0759 100.707 74.4468 100.601C74.827 100.493 75.093 100.349 75.2948 100.24L75.2959 100.24C75.3381 100.217 75.3776 100.195 75.4146 100.176C75.6113 100.075 75.8127 99.9893 76.2103 99.9561C76.4855 99.9331 76.704 99.6907 76.6985 99.4146ZM73.0005 100.67L73.1913 101.08C73.1913 101.08 73.1918 101.08 73.0005 100.67ZM76.2393 101.417C76.1925 101.421 76.1087 101.448 75.9128 101.54C75.8827 101.554 75.8503 101.57 75.8158 101.587C75.6546 101.664 75.4482 101.764 75.2202 101.847C74.8448 101.984 73.8861 102.402 73.4417 102.6C73.1844 102.714 72.8966 102.603 72.799 102.35C72.7013 102.098 72.8308 101.801 73.0881 101.686C73.5216 101.494 74.5166 101.059 74.9327 100.907C75.1075 100.843 75.2579 100.77 75.4168 100.694C75.456 100.675 75.4957 100.656 75.5363 100.637C75.7173 100.551 75.9628 100.439 76.2197 100.417C76.4949 100.394 76.7224 100.6 76.7278 100.876C76.7332 101.152 76.5145 101.394 76.2393 101.417ZM80.2831 103.992C80.5905 103.821 80.7741 103.758 80.8522 103.753C80.9528 103.746 81.1218 103.778 81.3987 103.862C81.4706 103.883 81.5508 103.909 81.6359 103.936C81.8361 103.999 82.0646 104.072 82.2795 104.125C82.5926 104.202 82.9599 104.261 83.323 104.201C83.71 104.137 84.0739 103.94 84.346 103.553C84.5071 103.324 84.4562 103.013 84.2324 102.858C84.0086 102.703 83.6966 102.763 83.5356 102.992C83.4369 103.132 83.3277 103.19 83.1886 103.213C83.0255 103.24 82.8135 103.218 82.5432 103.151C82.3595 103.106 82.1858 103.051 82.0017 102.993C81.9082 102.963 81.812 102.932 81.7105 102.902C81.4449 102.822 81.1162 102.733 80.8131 102.754C80.4875 102.776 80.1255 102.948 79.8187 103.119C79.4909 103.301 79.1334 103.535 78.7958 103.76L78.6406 103.864C78.3536 104.056 78.0846 104.236 77.8433 104.382C77.5384 104.566 77.3584 104.644 77.2841 104.657C77.1314 104.684 76.9058 104.644 76.6429 104.536C76.3912 104.432 76.1684 104.292 76.0496 104.202C75.8326 104.037 75.5188 104.084 75.3487 104.307C75.1785 104.529 75.2165 104.843 75.4334 105.007C75.6107 105.141 75.9047 105.325 76.241 105.464C76.566 105.598 76.9996 105.719 77.4279 105.644C77.7166 105.594 78.0518 105.41 78.3407 105.235C78.6034 105.077 78.895 104.882 79.1802 104.691L79.1811 104.69L79.3318 104.59C79.6718 104.363 79.9968 104.151 80.2831 103.992ZM64.3074 105.483C64.128 105.267 64.1655 104.953 64.391 104.781C65.1425 104.208 65.9795 103.618 66.8152 103.03L66.8926 102.975C67.7056 102.403 68.516 101.833 69.2599 101.273C70.0286 100.694 70.7135 100.136 71.2477 99.6087C71.7895 99.0742 72.1374 98.6093 72.2835 98.2218C72.5627 97.4815 72.8981 96.0739 73.2069 94.581C73.5132 93.1006 73.7857 91.5756 73.9427 90.6248C73.9877 90.3521 74.255 90.166 74.5397 90.2091C74.8243 90.2523 75.0186 90.5084 74.9735 90.7811C74.8148 91.7421 74.54 93.28 74.2307 94.7754C73.9239 96.2582 73.5753 97.7391 73.2651 98.5616C73.0429 99.1509 72.5705 99.739 71.9963 100.305C71.4144 100.879 70.6875 101.47 69.9048 102.059C69.1471 102.629 68.3247 103.208 67.5161 103.777L67.433 103.836C66.5945 104.426 65.7739 105.005 65.0407 105.563C64.8151 105.735 64.4868 105.699 64.3074 105.483ZM103.379 100.876C103.1 100.753 102.615 100.719 101.918 100.934C101.654 101.015 101.374 100.868 101.293 100.604C101.211 100.34 101.359 100.06 101.623 99.9784C102.445 99.7249 103.201 99.7036 103.784 99.9621C104.405 100.238 104.753 100.799 104.753 101.49C104.753 101.989 104.485 102.368 104.281 102.613L104.268 102.628C104.257 102.641 104.245 102.655 104.234 102.669C104.221 102.684 104.207 102.699 104.194 102.714C104.228 102.727 104.264 102.74 104.301 102.754C104.472 102.82 104.7 102.928 104.882 103.13C105.079 103.348 105.182 103.632 105.176 103.971C105.162 104.718 104.757 105.322 104.245 105.689C103.742 106.05 103.067 106.228 102.456 106.024C102.194 105.937 102.053 105.654 102.14 105.392C102.227 105.13 102.51 104.988 102.772 105.076C103.006 105.153 103.351 105.1 103.662 104.877C103.964 104.66 104.169 104.33 104.176 103.952C104.178 103.842 104.15 103.811 104.139 103.799C104.114 103.772 104.06 103.733 103.938 103.686C103.88 103.663 103.819 103.643 103.745 103.619L103.741 103.617C103.709 103.607 103.673 103.595 103.635 103.582C103.593 103.567 103.55 103.551 103.508 103.534C103.371 103.478 103.091 103.351 102.971 103.045C102.923 102.922 102.926 102.785 102.978 102.665C103.048 102.503 103.166 102.363 103.248 102.271C103.289 102.224 103.326 102.184 103.36 102.146C103.411 102.09 103.458 102.038 103.513 101.973C103.682 101.769 103.753 101.623 103.753 101.49C103.753 101.172 103.619 100.983 103.379 100.876ZM106.799 97.6445C106.468 97.3885 105.877 97.2831 105.672 97.6444C105.435 98.0617 105.659 98.3071 105.775 98.4346L105.785 98.4456C106.01 98.6942 106.464 99.0315 106.935 98.6938C107.15 98.5398 107.386 98.0945 106.799 97.6445ZM127.713 94.9548C127.987 94.9815 128.232 94.7804 128.259 94.5055C128.285 94.2307 128.084 93.9862 127.809 93.9595C127.362 93.9159 126.671 93.864 126.045 93.8496C125.733 93.8425 125.427 93.8444 125.172 93.8632C125.044 93.8726 124.92 93.8869 124.809 93.9092C124.71 93.929 124.57 93.9645 124.448 94.0427C124.37 94.0926 124.274 94.1755 124.213 94.3067C124.148 94.4466 124.148 94.5891 124.179 94.7075C124.23 94.9032 124.369 95.0376 124.439 95.1008C124.598 95.2461 124.845 95.4028 125.068 95.5439L125.081 95.552L125.104 95.5667C125.342 95.7178 125.59 95.8751 125.818 96.0453C126.055 96.2233 126.24 96.3937 126.355 96.5536C126.516 96.7781 126.828 96.8298 127.052 96.669C127.277 96.5083 127.329 96.1959 127.168 95.9714C126.966 95.6888 126.686 95.4461 126.417 95.2448C126.224 95.1003 126.021 94.966 125.834 94.8463C125.895 94.8468 125.958 94.8479 126.022 94.8493C126.616 94.863 127.282 94.9128 127.713 94.9548ZM115.309 94.6517C114.902 93.9927 116.002 92.8893 116.459 92.9832C117.263 93.1478 117.261 93.4119 117.061 94.1032C116.901 94.6563 116.785 94.8964 116.445 94.9901C116.221 95.089 115.717 95.3107 115.309 94.6517ZM116.578 102.912C115.69 101.91 114.913 100.72 114.399 99.8033C115.046 99.4478 115.914 99.0082 116.782 98.6393C117.32 98.4107 117.85 98.213 118.322 98.0789C118.805 97.9419 119.187 97.8833 119.446 97.9011C122.352 98.1012 125.054 99.5433 126.535 100.899C125.658 101.697 124.525 102.607 123.356 103.356C121.99 104.231 120.655 104.833 119.643 104.864C119.206 104.878 118.711 104.704 118.172 104.351C117.636 103.999 117.095 103.495 116.578 102.912ZM119.514 96.9035C119.081 96.8737 118.566 96.9702 118.049 97.1169C117.522 97.2664 116.951 97.4809 116.391 97.7189C115.271 98.195 114.159 98.7801 113.475 99.1756C113.243 99.3094 113.158 99.602 113.281 99.8394C113.802 100.84 114.729 102.333 115.83 103.575C116.381 104.196 116.988 104.77 117.623 105.187C118.255 105.601 118.954 105.886 119.674 105.864C120.976 105.823 122.507 105.087 123.895 104.198C125.305 103.295 126.651 102.178 127.604 101.271C127.803 101.081 127.812 100.765 127.622 100.565C126.092 98.9481 122.942 97.1394 119.514 96.9035ZM130.572 102.395C130.666 102.654 130.532 102.941 130.272 103.035C128.273 103.757 126.754 105.567 125.664 107.627C124.58 109.678 123.964 111.896 123.732 113.301C123.687 113.574 123.429 113.758 123.157 113.713C122.884 113.668 122.7 113.41 122.745 113.138C122.992 111.645 123.638 109.32 124.78 107.16C125.917 105.01 127.59 102.941 129.932 102.095C130.192 102.001 130.478 102.135 130.572 102.395ZM21.6961 92.9648C21.5274 92.684 21.6774 92.4027 22.1082 92.4028C22.2526 92.3909 22.5016 92.4028 22.6514 92.7399C22.8013 93.077 22.9324 93.3768 22.6514 93.4892C22.3705 93.6016 21.8647 93.2457 21.6961 92.9648ZM14.64 96.999C14.3238 96.7388 13.8216 96.3475 13.468 96.6079C12.7524 97.1352 13.1293 98.1299 13.2632 98.4127C13.4307 98.7661 14.305 98.5243 14.64 98.2267C14.9749 97.929 14.9561 97.2593 14.64 96.999ZM33.4811 97.8282C33.1958 97.6443 32.8813 97.6412 32.6119 97.8333C32.2752 98.0735 31.746 98.5776 31.7961 98.8972C31.8462 99.2168 32.1282 99.7621 32.5319 99.652C32.9356 99.5419 34.0128 98.1708 33.4811 97.8282Z" fill="#C3C3C3"/>
</svg>
