<svg width="100" height="100" viewBox="0 0 100 100" fill="none" xmlns="http://www.w3.org/2000/svg">
<path fill-rule="evenodd" clip-rule="evenodd" d="M6 1H91C93.7614 1 96 3.23858 96 6V91C96 93.7614 93.7614 96 91 96H6C3.23858 96 1 93.7614 1 91V6C1 3.23858 3.23858 1 6 1ZM0 6C0 2.68629 2.68629 0 6 0H91C93.4333 0 95.5283 1.4485 96.4697 3.53027C98.5515 4.47173 100 6.56671 100 9.00001V94C100 97.3137 97.3137 100 94 100H9.00002C6.56671 100 4.47173 98.5515 3.53027 96.4697C1.4485 95.5283 0 93.4333 0 91V6Z" fill="#C3C3C3"/>
</svg>
