<svg width="148" height="100" viewBox="0 0 148 100" fill="none" xmlns="http://www.w3.org/2000/svg">
<path fill-rule="evenodd" clip-rule="evenodd" d="M84.5222 6.17677C84.706 5.99137 85.4835 5.19936 85.4835 3.94257C85.4835 2.68578 86.6626 2.68584 86.6626 3.94257C86.6626 5.1993 87.2478 5.97412 87.4487 6.17677L87.4664 6.1947C87.6833 6.41432 88.2759 7.01452 89.2478 7.01461C90.2476 7.01471 90.2537 8.13181 89.2478 8.13175C88.2764 8.13169 87.8293 8.58439 87.4851 8.93284L87.4487 8.9696C87.0993 9.32203 86.6666 9.8438 86.6666 11.0692C86.6666 12.2946 85.4874 12.3259 85.4874 11.0692C85.4874 9.81252 84.749 9.05427 84.6651 8.9696C84.5811 8.88492 83.7131 8.13175 82.7321 8.13175C81.7511 8.13175 81.7607 7.01461 82.7321 7.01461C83.6922 7.01461 84.3235 6.37737 84.5156 6.18348L84.5222 6.17677ZM14.4835 56.9425C14.4835 58.1993 13.7061 58.9913 13.5223 59.1767L13.5157 59.1834C13.3236 59.3773 12.6923 60.0146 11.7322 60.0146C10.7607 60.0146 10.7512 61.1317 11.7322 61.1317C12.7131 61.1317 13.5812 61.8849 13.6652 61.9696C13.7491 62.0542 14.4875 62.8125 14.4875 64.0692C14.4875 65.3258 15.6667 65.2945 15.6667 64.0692C15.6667 62.8438 16.0994 62.322 16.4488 61.9696C16.5024 61.9155 16.5525 61.8582 16.6033 61.8001C16.8837 61.4796 17.1879 61.1317 18.2479 61.1317C19.5 61.1317 19.5 60.0147 18.2479 60.0146C17.162 60.0145 16.7575 59.5368 16.5382 59.2778C16.5047 59.2381 16.4755 59.2036 16.4488 59.1767C16.2479 58.9741 15.6627 58.1993 15.6627 56.9425C15.6627 55.6858 14.4835 55.6857 14.4835 56.9425ZM7.62071 68.2685C7.1747 70.2959 5.93485 71.5577 5.62025 71.8773L5.59402 71.904C5.29039 72.2138 4.30837 73.2157 2.78331 73.6402C3.42565 73.8161 3.99065 74.0845 4.43651 74.3397C5.1879 74.7696 5.72593 75.2343 5.8881 75.3991C6.07604 75.59 7.19514 76.7536 7.62295 78.6998C7.72663 78.0964 7.89168 77.5752 8.10195 77.1181C8.47414 76.309 8.95484 75.7758 9.32555 75.3991L9.40001 75.3231C9.70494 75.011 10.1669 74.5384 10.8029 74.1604C11.1797 73.9364 11.6052 73.7509 12.0915 73.6246C10.6198 73.2033 9.70076 72.2617 9.3682 71.9209L9.32555 71.8773C8.87437 71.4189 7.95785 70.1814 7.62071 68.2685ZM6.53163 66.7804C6.53163 69.1543 5.07396 70.6503 4.72932 71.0005L4.71687 71.0132C4.35672 71.3794 3.17299 72.5831 1.37284 72.5831C-0.448638 72.5831 -0.466549 74.6933 1.37278 74.6933C3.21212 74.6933 4.83977 76.1159 4.99718 76.2759C5.15458 76.4358 6.53909 77.8681 6.53909 80.2418C6.53909 82.6155 8.75 82.5564 8.75 80.2418C8.75 77.9271 9.56131 76.9416 10.2165 76.2759L10.2846 76.2064C10.7033 75.7795 11.2032 75.2696 12 74.9641V82C12 85.3137 14.6863 88 18 88H115.477C114.925 88.3187 114.217 88.5831 113.373 88.5831C111.551 88.5831 111.533 90.6933 113.373 90.6933C115.212 90.6933 116.84 92.1159 116.997 92.2759C117.155 92.4358 118.539 93.8681 118.539 96.2418C118.539 98.6155 120.75 98.5564 120.75 96.2418C120.75 93.9272 121.561 92.9416 122.216 92.2759L122.285 92.2065C122.93 91.5483 123.768 90.6932 125.59 90.6933C127.476 90.6934 127.464 88.5833 125.59 88.5831C124.711 88.5831 123.998 88.3195 123.449 88H130C133.314 88 136 85.3137 136 82V36.7812C135.837 37.2788 135.514 37.7283 135 37.9121V82C135 84.7614 132.761 87 130 87H122.216C121.839 86.6164 120.743 85.1531 120.743 82.7804C120.743 80.4066 118.532 80.4065 118.532 82.7804C118.532 85.1531 117.075 86.6488 116.73 87H18C15.2386 87 13 84.7614 13 82V74.7255C13.1844 74.7045 13.3806 74.6933 13.5898 74.6933C15.4758 74.6934 15.4643 72.5833 13.5898 72.5831C13.3841 72.5831 13.1875 72.5687 13 72.5424V62.7227C12.9752 62.6941 12.9589 62.6775 12.955 62.6737C12.96 62.6787 12.9575 62.6766 12.9481 62.6688C12.9103 62.6373 12.761 62.5133 12.5412 62.3884C12.3609 62.2861 12.1758 62.2077 12 62.1658V72.272C11.1031 71.9051 10.5203 71.3105 10.2497 71.0344L10.2165 71.0005C9.83977 70.6178 8.7425 69.1542 8.74253 66.7804C8.74256 64.4066 6.53163 64.4064 6.53163 66.7804ZM117.62 87.8773C117.935 87.5577 119.175 86.2959 119.621 84.2685C119.958 86.1814 120.874 87.4189 121.326 87.8773L121.368 87.9209C121.701 88.2617 122.62 89.2033 124.092 89.6247C123.605 89.7509 123.18 89.9364 122.803 90.1604C122.167 90.5384 121.705 91.0111 121.4 91.3231L121.326 91.3991C120.955 91.7758 120.474 92.309 120.102 93.1181C119.892 93.5752 119.727 94.0964 119.623 94.6998C119.195 92.7536 118.076 91.5901 117.888 91.3991C117.726 91.2343 117.188 90.7696 116.437 90.3397C115.991 90.0845 115.426 89.8161 114.783 89.6403C116.308 89.2158 117.29 88.2138 117.594 87.9041L117.62 87.8773ZM111.048 92.8378C111.048 93.955 110.368 94.659 110.207 94.8238L110.201 94.8297C110.033 95.0021 109.481 95.5685 108.641 95.5685C107.791 95.5685 107.782 96.5616 108.641 96.5616C109.499 96.5616 110.259 97.231 110.332 97.3063C110.405 97.3816 111.052 98.0556 111.052 99.1726C111.052 100.29 112.083 100.262 112.083 99.1726C112.083 98.0834 112.462 97.6196 112.768 97.3063L112.799 97.2736C113.101 96.9639 113.492 96.5615 114.342 96.5616C115.222 96.5616 115.217 95.5686 114.342 95.5685C113.491 95.5685 112.973 95.035 112.783 94.8397L112.768 94.8238C112.592 94.6437 112.08 93.9549 112.08 92.8378C112.08 91.7207 111.048 91.7207 111.048 92.8378ZM133.829 28.0472C133.829 29.4437 132.975 30.3237 132.773 30.5297L132.765 30.5371C132.554 30.7526 131.86 31.4606 130.805 31.4606C129.737 31.4606 129.726 32.7019 130.805 32.7019C131.883 32.7019 132.838 33.5387 132.93 33.6328C133.022 33.7269 133.834 34.5694 133.834 35.9657C133.834 37.362 135.13 37.3273 135.13 35.9657C135.13 34.6042 135.606 34.0244 135.99 33.6328C136.049 33.5727 136.104 33.5091 136.16 33.4446C136.468 33.0884 136.802 32.7019 137.968 32.7019C139.344 32.7019 139.344 31.4607 137.968 31.4606C136.774 31.4605 136.329 30.9297 136.088 30.642C136.051 30.5979 136.019 30.5596 135.99 30.5297C135.769 30.3045 135.126 29.4436 135.126 28.0472C135.126 26.6509 133.829 26.6508 133.829 28.0472ZM73.2375 12.3535C73.6192 11.9827 75.2335 10.3986 75.2335 7.88506C75.2335 5.37148 77.682 5.37159 77.6819 7.88506C77.6819 10.3985 78.8971 11.9482 79.3142 12.3535C79.3696 12.4072 79.4303 12.4763 79.5 12.5555L79.5 12.5556C79.9554 13.0736 80.7951 14.0289 83.05 14.0291C85.65 14.0294 85.65 16.2634 83.05 16.2634C80.849 16.2634 80.2173 16.9591 79.6351 17.6003C79.5295 17.7165 79.4256 17.8309 79.3142 17.9391C78.5887 18.644 77.6902 19.6875 77.6902 22.1383C77.6902 24.5891 75.2417 24.6517 75.2417 22.1383C75.2417 19.625 73.7085 18.1085 73.5341 17.9391C73.3598 17.7698 71.5573 16.2634 69.5203 16.2634C67.4833 16.2634 67.5032 14.0291 69.5204 14.0291C71.5139 14.0291 72.8249 12.7546 73.2237 12.3669L73.2375 12.3535ZM84.6617 12H80.3547C80.5282 12.1699 80.7524 12.363 81 12.5C81.3988 12.7207 81.8428 12.9259 82.5032 13H86.0651C85.5516 12.998 85.1239 12.7249 84.8582 12.3532C84.779 12.2425 84.714 12.1241 84.6617 12ZM86.0767 13H130C132.761 13 135 15.2386 135 18V26.0963C135.309 26.2149 135.564 26.4326 135.744 26.6905C135.855 26.8495 135.939 27.0244 136 27.2098V18C136 14.6863 133.314 12 130 12H87.4812C87.2539 12.5412 86.808 12.9904 86.0903 12.9999L86.0767 13ZM69.9793 13C70.9458 12.8765 71.6826 12.3852 72.1424 12H18C14.6863 12 12 14.6863 12 18V58.9829C12.3772 58.8929 12.6538 58.6326 12.8053 58.4797L12.8122 58.4727C12.8535 58.431 12.9221 58.3605 13 58.2631V18C13 15.2386 15.2386 13 18 13H69.9793Z" fill="#C3C3C3"/>
</svg>
