<svg width="106" height="124" viewBox="0 0 106 124" fill="none" xmlns="http://www.w3.org/2000/svg">
<path d="M5.91162 29.3682C5.91162 26.0545 8.59791 23.3682 11.9116 23.3682H99.9116C103.225 23.3682 105.912 26.0545 105.912 29.3682V117.368C105.912 120.682 103.225 123.368 99.9116 123.368H11.9116C8.59791 123.368 5.91162 120.682 5.91162 117.368V29.3682Z" fill="white"/>
<path fill-rule="evenodd" clip-rule="evenodd" d="M7.51204 2.1627C6.81712 2.70796 6.52905 3.2459 6.5043 3.70754C6.47988 4.16314 6.70507 4.68794 7.35568 5.22561C7.69042 5.50225 8.00795 5.60077 8.2902 5.60219C8.57844 5.60364 8.86988 5.50363 9.14144 5.31772C9.70165 4.93419 10.0881 4.24783 10.1126 3.66009C10.1335 3.15582 9.77301 2.62316 9.1727 2.28543C8.58089 1.95248 7.93607 1.91127 7.51204 2.1627ZM9.66302 1.41389C10.4546 1.85925 11.1539 2.68715 11.1117 3.70164C11.099 4.00596 11.0296 4.31393 10.914 4.60968C12.4288 5.19965 14.1276 6.46349 15.4494 9.2526C16.7928 12.0872 17.7445 16.4903 17.7531 23.3682H19.1755C19.1661 23.2806 19.1548 23.1768 19.1419 23.059C19.0986 22.666 19.0365 22.1168 18.9609 21.4926C18.8093 20.2415 18.6049 18.6989 18.3912 17.5073C17.9408 14.995 18.3138 12.2249 19.2474 10.0578C20.4247 7.32482 23.1604 4.45665 27.0709 3.34072C27.7808 2.00138 28.678 1.21758 29.7114 1.0388C30.7561 0.858071 31.7713 1.32518 32.6352 2.10813C33.524 2.91377 34.0776 4.08256 34.0088 5.12115C33.9736 5.65311 33.7714 6.16701 33.3458 6.54865C32.9226 6.92812 32.3317 7.12938 31.6066 7.1436C31.4215 7.14722 31.2323 7.15265 31.0424 7.15809L31.0422 7.1581C30.5979 7.17083 30.1489 7.18369 29.7357 7.17413C29.1453 7.16047 28.5514 7.10159 28.0536 6.90016C27.5309 6.68863 27.1049 6.31439 26.9083 5.70291C26.7943 5.34847 26.7654 4.93802 26.8144 4.46802C23.4987 5.5931 21.1805 8.09787 20.1658 10.4534C19.307 12.4469 18.961 15.0184 19.3756 17.3309C19.5944 18.5517 19.8016 20.1178 19.9536 21.3723C20.0298 22.001 20.0923 22.5538 20.1359 22.9497C20.1547 23.1206 20.1699 23.2623 20.1812 23.3682H99.9116C103.225 23.3682 105.912 26.0545 105.912 29.3682V117.368C105.912 120.682 103.225 123.368 99.9116 123.368H11.9116C8.59791 123.368 5.91162 120.682 5.91162 117.368V29.3682C5.91162 26.0545 8.59791 23.3682 11.9116 23.3682H15.149C15.1182 23.035 15.0625 22.6295 14.9764 22.1691C11.1525 20.0785 8.49744 20.9944 7.79254 21.3196L8.75854 19.4655C7.7496 19.3305 5.40972 19.1995 4.12171 19.7556C2.8337 20.3116 3.98346 19.0261 4.77776 18.2923C4.34841 17.9443 3.15068 17.9261 1.88717 18.4128C0.649585 18.8895 1.06757 18.4464 1.67699 17.8004C1.92447 17.538 2.20353 17.2422 2.41612 16.9609C1.56757 15.9241 0 15.9241 0 15.9241C0 15.4681 2.62641 15.2416 4.12171 15.7868C5.0808 16.1364 4.90695 15.3346 4.80007 14.8417C4.75947 14.6544 4.72854 14.5118 4.77304 14.4937C4.92681 14.4313 6.2077 15.6849 6.62849 16.472C7.03288 17.2284 7.33682 15.9949 7.45553 15.5132L7.45553 15.5132C7.47745 15.4242 7.49306 15.3609 7.50181 15.3405C7.53709 15.2582 7.58585 15.3779 7.68043 15.6102C7.87632 16.0913 8.26874 17.0551 9.14495 17.7059C10.6397 18.816 10.0297 16.2433 10.0297 16.2433C10.0297 16.2433 11.582 18.4128 13.3686 20.0077C13.8061 20.4133 14.261 20.7416 14.7354 21.074C14.2649 19.2059 13.3666 16.8188 11.7946 14.6743C11.6952 14.6961 11.5927 14.7156 11.4881 14.7323C11.0181 14.8071 10.4694 14.8292 9.95607 14.7049C9.4341 14.5786 8.92208 14.2923 8.60491 13.7383C8.29369 13.1947 8.21715 12.4745 8.38336 11.5739C8.70558 9.82774 9.49063 8.74487 10.5189 8.44833C11.5656 8.14647 12.5797 8.73644 13.1476 9.71731C13.6513 10.5873 14.0271 11.4977 14.0376 12.3221C14.0429 12.7451 13.9521 13.1594 13.7205 13.5281C13.5064 13.8687 13.1913 14.1398 12.7866 14.3414C14.6527 16.9922 15.5717 19.9347 15.9529 21.9521C16.2124 22.1534 16.4774 22.3734 16.7483 22.6226C16.6741 16.2547 15.7543 12.231 14.5458 9.68085C13.2946 7.04066 11.7325 5.97433 10.4411 5.4999C10.4295 5.49562 10.4181 5.49096 10.407 5.48593C10.205 5.7395 9.96786 5.96384 9.70635 6.14287C9.29972 6.42126 8.81309 6.60483 8.28517 6.60217C7.75124 6.59949 7.21451 6.40623 6.71865 5.99645C5.91391 5.3314 5.45893 4.52724 5.50574 3.65401C5.55197 2.79153 6.08086 2.00704 6.92067 1.35575C6.93396 1.34544 6.94778 1.3358 6.96205 1.32688C7.80399 0.800565 8.87224 0.969003 9.66302 1.41389ZM16.1528 23.3682H16.7531L16.753 23.3098C16.5313 23.1463 16.3125 22.9929 16.0969 22.8491C16.1211 23.0365 16.1396 23.2101 16.1528 23.3682ZM9.36676 11.7553C9.66023 10.165 10.3039 9.55108 10.796 9.40917C11.2697 9.27256 11.8677 9.50243 12.2822 10.2183C12.7609 11.0451 13.0305 11.7725 13.0376 12.3347C13.0411 12.605 12.9837 12.8211 12.8737 12.9961C12.7642 13.1704 12.5801 13.3396 12.2704 13.4797C12.0674 13.5715 11.7235 13.6822 11.331 13.7447C10.9367 13.8075 10.5315 13.8153 10.1913 13.733C9.85967 13.6527 9.61846 13.496 9.47275 13.2415C9.3211 12.9766 9.22512 12.5229 9.36676 11.7553ZM27.9517 3.81418C27.7506 4.5971 27.7616 5.08983 27.8603 5.39679C27.9506 5.67761 28.1299 5.85225 28.4287 5.97318C28.7526 6.10422 29.1967 6.16139 29.7588 6.1744C30.1453 6.18334 30.5516 6.17167 30.9826 6.15928L30.9827 6.15927C31.1788 6.15363 31.3801 6.14785 31.587 6.14379C32.1414 6.13292 32.4788 5.98292 32.6782 5.80414C32.8751 5.62752 32.9897 5.37618 33.011 5.05507C33.0552 4.38751 32.6805 3.49885 31.9636 2.84909C31.2217 2.17665 30.5056 1.91626 29.8819 2.02416C29.2709 2.12985 28.5844 2.61766 27.9517 3.81418ZM99.9116 24.3682H11.9116C9.1502 24.3682 6.91162 26.6067 6.91162 29.3682V117.368C6.91162 120.13 9.1502 122.368 11.9116 122.368H89.5742C89.5725 122.361 89.571 122.354 89.5696 122.347C89.3656 121.304 89.268 120.457 89.2498 119.74C89.2472 119.724 89.2454 119.708 89.2443 119.691C89.2436 119.681 89.2433 119.67 89.2433 119.659C89.2433 117.504 88.9745 115.854 88.5127 114.584C88.3913 114.663 88.2613 114.731 88.1268 114.791C87.7661 114.95 87.3425 115.057 86.8886 115.117C85.9814 115.235 84.9015 115.167 83.8486 114.88C80.493 113.965 77.8196 111.381 76.589 108.629C76.5332 108.504 76.5309 108.362 76.5826 108.235C76.6343 108.109 76.7356 108.009 76.8628 107.959C77.6336 107.657 79.1592 107.26 80.8437 107.088C82.5193 106.915 84.4359 106.955 85.944 107.594C87.6813 108.331 88.5049 109.655 88.8726 110.91C89.1656 111.911 89.1731 112.875 89.1406 113.488C89.3201 113.871 89.4793 114.285 89.6169 114.733C89.6067 114.417 89.6192 114.087 89.6625 113.752C89.8206 112.53 90.4007 111.2 91.8478 110.394C93.2106 109.635 94.7534 109.381 96.3163 109.171C96.4978 109.147 96.6798 109.123 96.8623 109.099C98.2742 108.914 99.7147 108.725 101.186 108.24C101.349 108.186 101.529 108.22 101.661 108.33C101.794 108.439 101.86 108.61 101.838 108.78C101.638 110.296 100.991 112.095 99.9864 113.713C98.9826 115.33 97.5951 116.809 95.8848 117.629C94.7648 118.166 93.5757 118.165 92.5657 117.948C91.8317 117.79 91.1686 117.513 90.6608 117.22C90.4803 117.696 90.3371 118.184 90.277 118.819C90.2031 119.601 90.253 120.632 90.551 122.155C90.5653 122.228 90.5629 122.3 90.5466 122.368H99.9116C102.673 122.368 104.912 120.13 104.912 117.368V29.3682C104.912 26.6067 102.673 24.3682 99.9116 24.3682ZM88.0521 111.789C87.8947 111.607 87.7297 111.436 87.5575 111.276C85.877 109.709 83.603 109.236 81.2819 109.024C81.0069 108.999 80.7637 109.202 80.7387 109.477C80.7136 109.752 80.9163 109.995 81.1913 110.02C83.4744 110.228 85.4538 110.681 86.8755 112.007C87.3392 112.439 87.7542 112.975 88.1023 113.644C88.0161 113.721 87.8926 113.801 87.723 113.876C87.4701 113.988 87.1435 114.075 86.7594 114.125C85.9908 114.225 85.0442 114.169 84.1117 113.915C81.2716 113.14 78.9473 111.03 77.7405 108.714C78.5041 108.478 79.6697 108.213 80.9458 108.082C82.5655 107.916 84.279 107.975 85.5538 108.515C86.9541 109.108 87.609 110.154 87.9129 111.192C87.9719 111.393 88.0174 111.593 88.0521 111.789ZM92.0722 114.696C91.7296 115.065 91.3932 115.569 91.0536 116.289C91.474 116.549 92.0826 116.821 92.7758 116.97C93.6387 117.155 94.5881 117.142 95.4524 116.727C96.9383 116.015 98.1977 114.699 99.1368 113.186C99.9028 111.952 100.438 110.615 100.706 109.426C99.4155 109.774 98.1569 109.938 96.9899 110.091C96.8075 110.115 96.6273 110.138 96.4496 110.162C94.8801 110.373 93.513 110.611 92.3345 111.268C91.2403 111.877 90.7842 112.876 90.6542 113.88C90.6055 114.257 90.604 114.626 90.631 114.963C90.8566 114.595 91.0912 114.283 91.3391 114.016C91.8879 113.424 92.4792 113.075 93.1215 112.812C93.5437 112.64 94.0122 112.497 94.4979 112.348L94.4987 112.348C94.72 112.28 94.9448 112.211 95.1705 112.138C95.9126 111.898 96.7418 111.589 97.697 111.07C97.9397 110.938 98.2432 111.028 98.375 111.271C98.5067 111.514 98.4168 111.817 98.1741 111.949C97.1479 112.506 96.2573 112.837 95.4788 113.09C95.2124 113.176 94.9673 113.251 94.7376 113.321L94.7348 113.322L94.7343 113.322C94.2761 113.462 93.8797 113.583 93.5001 113.738C92.9571 113.96 92.4991 114.236 92.0722 114.696Z" fill="#C3C3C3"/>
</svg>
