<!-- <svg width="100" height="100" viewBox="0 0 100 100" fill="none" xmlns="http://www.w3.org/2000/svg">
<path fill-rule="evenodd" clip-rule="evenodd" d="M41.4052 5.75432C39.0327 8.22481 36.3677 11 31.4863 11C26.6049 11 23.9398 8.22481 21.5674 5.75433L21.5082 5.69271C19.0933 3.17842 16.9597 1 12.9725 1C12.4744 1 10.9905 1.05343 9.25724 1.48916C7.51661 1.92673 5.60728 2.72901 4.16826 4.16835C2.72914 5.60778 1.9269 7.51716 1.4893 9.25765C1.05353 10.9908 1 12.4745 1 12.9726C1 16.9597 3.17842 19.0933 5.6927 21.5082L5.75432 21.5674C8.22481 23.9398 11 26.6049 11 31.4863C11 36.3676 8.22481 39.0327 5.75432 41.4052L5.6927 41.4644C3.17842 43.8792 1 46.0129 1 50C1 53.9871 3.17842 56.1208 5.6927 58.5356L5.75433 58.5948C8.22481 60.9673 11 63.6323 11 68.5137C11 73.3951 8.2248 76.0602 5.75431 78.4326L5.69271 78.4918C3.17842 80.9067 1 83.0403 1 87.0274C1 87.5255 1.05343 89.0095 1.48916 90.7428C1.92673 92.4834 2.72902 94.3927 4.16835 95.8317C5.60778 97.2708 7.51716 98.0731 9.25766 98.5107C10.9908 98.9465 12.4745 99 12.9726 99C16.9324 99 18.8209 96.8527 20.9819 94.3469L21.029 94.2923C23.1685 91.8113 25.5926 89 30.5059 89C35.359 89 38.2631 91.7441 40.8687 94.206L40.9397 94.2731C43.6083 96.7942 45.9881 99 50 99C53.9871 99 56.1208 96.8216 58.5356 94.3073L58.5948 94.2457C60.9673 91.7752 63.6323 89 68.5137 89C73.3951 89 76.0602 91.7752 78.4326 94.2457L78.4918 94.3073C80.9067 96.8216 83.0403 99 87.0275 99C87.5256 99 89.0095 98.9466 90.7428 98.5108C92.4834 98.0733 94.3927 97.271 95.8317 95.8316C97.2709 94.3922 98.0731 92.4828 98.5107 90.7423C98.9465 89.0092 99 87.5255 99 87.0275C99 83.0403 96.8216 80.9067 94.3073 78.4918L94.2457 78.4326C91.7752 76.0602 89 73.3951 89 68.5137C89 63.6323 91.7752 60.9673 94.2457 58.5948L94.3073 58.5356C96.8216 56.1208 99 53.9871 99 50C99 46.0129 96.8216 43.8792 94.3073 41.4644L94.2457 41.4052C91.7752 39.0327 89 36.3677 89 31.4863C89 26.6049 91.7752 23.9398 94.2457 21.5674L94.3073 21.5082C96.8216 19.0933 99 16.9597 99 12.9725C99 12.4744 98.9466 10.9905 98.5108 9.25724C98.0733 7.51661 97.271 5.60728 95.8316 4.16826C94.3922 2.72914 92.4828 1.9269 90.7423 1.4893C89.0092 1.05353 87.5255 1 87.0275 1C83.0676 1 81.1791 3.14729 79.0181 5.65309L78.971 5.70771C76.8315 8.18874 74.4073 11 69.4941 11C64.641 11 61.7369 8.25592 59.1313 5.79399L59.0603 5.72691C56.3917 3.2058 54.0119 1 50 1C46.0129 1 43.8792 3.17842 41.4644 5.6927L41.4052 5.75432ZM40.7431 5C43.1443 2.5 45.5454 2.80089e-06 50 0C54.4546 0 57.1008 2.5 59.747 5C62.3933 7.5 65.0396 10 69.4941 10C73.9487 10 76.1047 7.5 78.2608 5C80.4168 2.5 82.5729 0 87.0275 0C88.1326 0 93.3085 0.231584 96.5387 3.46108C99.7689 6.69057 100 11.8674 100 12.9725C100 17.4271 97.5 19.8283 95 22.2294C92.5 24.6306 90 27.0317 90 31.4863C90 35.9408 92.5 38.342 95 40.7431C97.5 43.1443 100 45.5454 100 50C100 54.4546 97.5 56.8557 95 59.2568C92.5 61.658 90 64.0592 90 68.5137C90 72.9683 92.5 75.3694 95 77.7706C97.5 80.1718 100 82.5729 100 87.0275C100 88.1326 99.7684 93.3085 96.5389 96.5387C93.3094 99.7689 88.1326 100 87.0275 100C82.5729 100 80.1717 97.5 77.7706 95C75.3694 92.5 72.9683 90 68.5137 90C64.0592 90 61.658 92.5 59.2569 95C56.8557 97.5 54.4546 100 50 100C45.5454 100 42.8992 97.5 40.253 95C37.6067 92.5 34.9604 90 30.5059 90C26.0513 90 23.8953 92.5 21.7392 95C19.5832 97.5 17.4271 100 12.9726 100C11.8674 100 6.69152 99.7684 3.46132 96.5389C0.231126 93.3094 0 88.1326 0 87.0274C0 82.5729 2.5 80.1717 5 77.7706C7.5 75.3694 10 72.9683 10 68.5137C10 64.0591 7.5 61.658 5 59.2569C2.5 56.8557 3.35047e-06 54.4546 0 50C0 45.5454 2.5 43.1443 5 40.7431C7.5 38.342 10 35.9408 10 31.4863C10 27.0317 7.5 24.6306 5 22.2294C2.5 19.8283 0 17.4271 0 12.9726C0 11.8674 0.231584 6.69152 3.46108 3.46132C6.69057 0.231122 11.8674 0 12.9725 0C17.4271 0 19.8283 2.5 22.2294 5C24.6306 7.5 27.0317 10 31.4863 10C35.9408 10 38.342 7.5 40.7431 5Z" fill="#C3C3C3"/>
</svg> -->

<svg width="50" height="50" viewBox="0 0 50 50" fill="none" xmlns="http://www.w3.org/2000/svg">
<path d="M15.7431 4.5C18.1515 4.5 19.4717 3.4003 20.676 2.39715L20.6916 2.38419C21.8842 1.39081 22.9642 0.500001 25 0.5C27.0462 0.5 28.251 1.40046 29.5721 2.39889L29.594 2.41545C30.9132 3.41254 32.3519 4.5 34.7471 4.5C35.943 4.5 36.8524 4.22965 37.6104 3.81324C38.3474 3.40842 38.9247 2.8728 39.4532 2.38258L39.4704 2.36657C40.0153 1.86111 40.5115 1.40401 41.1318 1.06323C41.7391 0.729645 42.4824 0.5 43.5137 0.5C43.7627 0.5 44.5046 0.526767 45.3712 0.744648C46.2414 0.963448 47.1961 1.36457 47.9158 2.08413C48.6355 2.80364 49.0366 3.7583 49.2554 4.62862C49.4733 5.49527 49.5 6.23722 49.5 6.48627C49.5 8.52212 48.6092 9.60208 47.6158 10.7947L47.6029 10.8103C46.5997 12.0146 45.5 13.3348 45.5 15.7431C45.5 18.1515 46.5997 19.4717 47.6029 20.676L47.6158 20.6916C48.6092 21.8842 49.5 22.9642 49.5 25C49.5 27.0358 48.6092 28.1158 47.6158 29.3084L47.6029 29.324C46.5997 30.5283 45.5 31.8485 45.5 34.2569C45.5 36.6652 46.5997 37.9854 47.6029 39.1897L47.6158 39.2053C48.6092 40.3979 49.5 41.4779 49.5 43.5137C49.5 43.7627 49.4732 44.5046 49.2554 45.3712C49.0366 46.2414 48.6354 47.1961 47.9159 47.9158C47.1964 48.6355 46.2417 49.0366 45.3714 49.2554C44.5047 49.4733 43.7628 49.5 43.5137 49.5C41.4779 49.5 40.3979 48.6092 39.2053 47.6158L39.1897 47.6029C37.9854 46.5997 36.6652 45.5 34.2569 45.5C31.8485 45.5 30.5283 46.5997 29.324 47.6028L29.3084 47.6158C28.1158 48.6092 27.0358 49.5 25 49.5C22.9538 49.5 21.749 48.5995 20.4279 47.6011L20.406 47.5845C19.0868 46.5875 17.6481 45.5 15.2529 45.5C14.057 45.5 13.1476 45.7704 12.3896 46.1868C11.6526 46.5916 11.0753 47.1272 10.5468 47.6174L10.5296 47.6334C9.98467 48.1389 9.48855 48.596 8.86818 48.9368C8.2609 49.2704 7.51762 49.5 6.48628 49.5C6.23726 49.5 5.49542 49.4732 4.62883 49.2553C3.75858 49.0365 2.80389 48.6354 2.08418 47.9159C1.36451 47.1964 0.963367 46.2417 0.744581 45.3714C0.526717 44.5047 0.5 43.7628 0.5 43.5137C0.5 41.4779 1.39081 40.3979 2.38419 39.2053L2.39715 39.1897C3.40031 37.9854 4.5 36.6652 4.5 34.2569C4.5 31.8485 3.4003 30.5283 2.39715 29.324L2.38419 29.3084C1.39081 28.1158 0.500002 27.0358 0.5 25C0.5 22.9642 1.3908 21.8842 2.38419 20.6916L2.39715 20.676C3.4003 19.4717 4.5 18.1515 4.5 15.7431C4.5 13.3348 3.4003 12.0146 2.39715 10.8103L2.38419 10.7947C1.3908 9.60207 0.5 8.52212 0.5 6.48628C0.5 6.23726 0.526767 5.49542 0.744648 4.62883C0.963448 3.75858 1.36457 2.80389 2.08413 2.08417C2.80364 1.36451 3.7583 0.963366 4.62862 0.74458C5.49527 0.526716 6.23722 0.5 6.48627 0.5C8.52212 0.5 9.60208 1.39081 10.7947 2.38419L10.8103 2.39715C12.0146 3.4003 13.3348 4.5 15.7431 4.5Z" stroke="#C3C3C3"/>
</svg>
