<svg width="64" height="64" viewBox="0 0 64 64" fill="none" xmlns="http://www.w3.org/2000/svg">
<g clip-path="url(#clip0_3007_1511)">
<path d="M9.83662 0C9.90396 0.229663 10.0322 0.239807 10.1772 0.28125C10.4845 0.369237 10.7667 0.341946 11.0757 0.344531C11.5021 0.348847 11.9011 0.471629 12.3249 0.407812C12.8136 0.333561 13.8078 0.396379 14.2999 0.36875L14.6819 0.346875C14.8986 0.389181 15.0821 0.421503 15.3022 0.400781C15.8322 0.350734 16.338 0.372871 16.8671 0.395312L17.5718 0.425781C18.0172 0.444772 18.4662 0.386904 18.9194 0.385156L19.6499 0.383594L20.6671 0.380469C21.2454 0.378742 21.6754 0.445793 22.0569 0.432031C22.6768 0.409583 23.2712 0.414721 23.8851 0.424219C24.157 0.428536 24.4353 0.411063 24.7038 0.434375C25.0568 0.465419 25.385 0.428748 25.7311 0.446875L27.2483 0.524219C27.6781 0.54576 28.0915 0.508263 28.5272 0.561719C29.0116 0.621293 29.4768 0.672574 29.9577 0.673437H30.5397L31.621 0.675L34.5944 0.720312L35.3624 0.7125L35.9671 0.707031L36.5163 0.709375L37.6124 0.667187L38.1733 0.696875C38.289 0.702919 38.3963 0.689021 38.5085 0.68125C38.9462 0.65277 39.3761 0.687333 39.8233 0.672656L41.1819 0.627344L41.7936 0.625L43.4163 0.585156L44.4733 0.560937L45.0921 0.546875L46.6866 0.475L47.7554 0.424219L48.546 0.401562L49.0358 0.385937L49.8733 0.366406L51.2304 0.360156L52.7163 0.424219L53.2851 0.419531C53.8005 0.416078 53.4138 0.604556 53.8093 1.30391L53.8624 1.67031L54.0186 2.62969C54.1188 3.24529 53.9448 3.87248 53.9405 4.49844C53.9362 5.11564 53.9731 5.70007 53.9999 6.31641L54.0671 7.81719L54.0507 9.02266C54.0481 9.22722 54.0623 9.43795 54.0304 9.63906C54.014 9.74223 53.9545 10.5854 53.9577 10.6539L54.0265 12.0492L54.0288 12.6273L54.0366 14.1414C54.0366 14.2363 54.047 14.353 54.053 14.4453C54.072 14.7233 54.0712 14.9931 54.0851 15.2711L54.1093 15.7633L54.1116 16.0937L54.1202 16.7703V17.1336C54.1177 17.8143 54.2434 17.6058 54.0819 18.4164C53.9983 18.8368 54.0559 19.298 54.0585 19.6312C54.0611 19.9247 54.018 20.24 53.9999 20.543L53.9554 21.2758L53.9288 21.7141C53.9046 22.1103 53.9337 22.4792 53.9397 22.8633L53.9561 23.807L53.9991 24.6492L54.0155 25.6523L54.0132 27.2852L53.996 28.6312L53.9632 29.7414L53.9077 30.8391L53.846 32.5352C53.8287 32.9996 53.8397 33.4538 53.8811 33.907C53.901 34.1254 53.897 34.3473 53.8866 34.5734C53.8702 34.9274 53.8943 35.2639 53.896 35.6187L53.9085 38.1969L53.8999 39.1602L53.9093 39.4875C53.9162 39.7197 53.8992 39.9359 53.8897 40.175C53.8855 40.2769 53.9207 40.4329 53.9241 40.5484L53.9577 41.7367L53.9749 42.3375L53.9577 43.0602L53.9546 45.0414L53.9233 46.1945L53.921 47.2273L53.9421 47.8352L53.9483 48.2937L53.9311 48.8898C53.9208 49.2377 53.9711 49.5649 54.0108 49.9016C54.0428 50.1683 54.0122 50.426 54.0304 50.7031L54.0702 51.3187L54.0866 52.1492L54.1335 53.4789C54.1447 53.7879 54.1499 54.0857 54.1663 54.4008L54.2101 55.243L54.2647 55.6078L54.2491 56.5312L54.2311 56.9281C54.2243 57.0679 54.2247 57.1966 54.2272 57.3312L54.2366 57.9312L54.2718 58.5453C54.2778 58.654 54.2479 58.7782 54.2444 58.8852C54.2185 59.5749 54.2747 60.1844 54.2515 60.7766L54.2374 61.1234L54.2257 61.6383L54.2061 62.4047L54.2022 63.0359C54.2007 63.2577 54.3875 63.4769 54.1061 63.6961C54.0484 63.7409 53.9968 63.797 53.9546 63.8031C53.9124 63.8092 53.8176 63.7412 53.7718 63.7375C53.6501 63.7271 53.5246 63.7175 53.396 63.6727L53.139 63.7602L52.8936 63.6969C52.8834 63.6943 52.8226 63.6929 52.8116 63.6937L52.7304 63.7008L52.6608 63.7055C52.6456 63.7061 52.6466 63.6869 52.6311 63.6234C52.519 63.5932 52.335 63.6403 52.196 63.6516C52.0294 63.6654 51.8896 63.5894 51.7265 63.7102C51.6453 63.7706 51.4696 63.74 51.353 63.7383C51.0086 63.7331 50.6608 63.7193 50.3241 63.7633C50.0634 63.7978 49.8414 63.7723 49.5772 63.768L48.8483 63.7539L47.5233 63.7586L46.4452 63.7547C46.2625 63.7547 46.104 63.7294 45.9265 63.657L45.796 63.7484C45.02 63.8641 44.9543 63.6899 44.3241 63.7711C44.1929 63.7883 44.0071 63.7446 43.8741 63.7523L43.3022 63.7859L42.7468 63.8227L42.3436 63.8516C42.2038 63.8619 42.0491 63.8541 41.9093 63.8516L41.5538 63.8422L40.3897 63.8609C40.2041 63.8644 40.0401 63.8496 39.8718 63.8047C39.7975 63.8142 39.6651 63.8319 39.5796 63.8336L39.2163 63.8422C39.1171 63.8448 38.9713 63.8449 38.878 63.8328C38.5456 63.7896 38.2572 63.7859 37.9343 63.7781L37.4976 63.768C37.3974 63.7654 37.3158 63.767 37.2061 63.7773L36.939 63.7266L36.5686 63.7375L35.9983 63.7539L35.6835 63.7695L35.3265 63.7891C35.0625 63.8037 34.8131 63.8309 34.5491 63.8344L33.7811 63.843C33.5464 63.8455 33.2858 63.7778 33.064 63.8062L32.5155 63.8766C32.4611 63.8835 32.3188 63.8911 32.2679 63.8617C32.1245 63.778 31.8894 63.8577 31.7452 63.8586L30.5827 63.868C30.006 63.8723 30.1118 63.9148 29.4858 63.907L29.0554 63.9016L28.6483 63.8961C28.379 63.8926 28.1303 63.8863 27.8679 63.907C27.7289 63.9182 27.5845 63.9018 27.4421 63.8992L26.3538 63.8781C25.7029 63.866 25.4566 63.7775 24.8257 63.85C24.6038 63.8759 24.4005 63.85 24.1804 63.8336C23.7341 63.8008 22.6883 63.8773 22.4038 63.7781C22.2967 63.741 21.2151 63.8258 21.0718 63.8258L20.3319 63.8273L19.7241 63.8586C19.5248 63.869 19.3255 63.8969 19.1374 63.8961L18.2905 63.8914C18.0816 63.8905 17.8876 63.8566 17.6804 63.8695C17.368 63.8902 17.0661 63.8964 16.746 63.893C16.3618 63.8886 15.9963 63.8995 15.6155 63.9133L14.814 63.9422L13.2124 63.9992C12.9949 64.007 12.7826 63.9881 12.5694 63.982L11.8608 63.9609L10.9983 63.9328C10.8783 63.9285 10.749 63.9085 10.6351 63.9094L9.8249 63.918C9.75329 63.899 9.79455 63.7145 9.81787 63.6367C9.89212 63.3838 9.85393 63.1211 9.86084 62.8664L9.89287 61.7687L9.94131 60.4141C9.94821 60.2173 9.95166 60.0469 9.94131 59.8484C9.92146 59.4802 9.90144 58.1535 9.95146 57.8562C10.0551 57.2424 10.1309 56.6619 10.1741 56.0445L10.2304 55.232C10.2339 55.1829 10.2755 55.1242 10.3272 55.0414L10.2374 55.0344C10.2141 54.7918 10.2015 54.5276 10.2015 54.2617V52.1562L10.2155 51.1227L10.2186 50.6703C10.2204 50.3396 10.2256 50.0311 10.1936 49.6953C10.1747 49.4882 10.1792 49.2801 10.1835 49.0781L10.1897 48.7711L10.2366 47.2891C10.2487 46.891 10.2152 46.9139 10.2186 46.5703L10.2382 44.7969L10.2476 43.9461L10.2749 43.1898L10.2835 42.393L10.2952 41.9758L10.3218 41.0391L10.3296 40.3344L10.3038 39.3641L10.2655 38.5453L10.2554 38.1859L10.2358 37.5125L10.1835 35.8422L10.1913 35.343L10.1827 34.668V33.7727L10.1772 33.4922L10.1483 32.65L10.1288 32.082C10.1245 31.9578 10.0824 31.8361 10.078 31.7187L10.0569 31.1859C10.0397 30.7466 10.0248 30.3226 10.0179 29.8781C10.0144 29.6571 10.0684 29.4362 10.0788 29.2195L10.1124 28.507C10.134 28.0581 10.0441 27.8134 10.0882 27.5164C10.1236 27.2755 10.12 27.0205 10.0976 26.7719L10.0624 26.3797L10.0554 25.9664L10.0499 25.3375L10.0421 24.9047C10.0317 24.3461 10.033 23.8083 10.071 23.2445C10.0926 22.92 10.0612 22.6012 10.0577 22.2836L10.0522 21.7531L10.0272 20.8125C10.0108 20.2005 10.0626 20.0325 10.0601 19.3922L10.0538 17.9141L10.0569 17.3695L10.0429 16.8969L10.0155 15.8125L9.95927 14.8C9.92044 14.1042 9.91972 13.4402 9.94131 12.7461C9.9577 12.191 9.92728 11.6558 9.91865 11.1016L9.89599 9.63359L9.90068 8.77109C9.90241 8.49917 9.90722 8.24343 9.89599 7.96719L9.83584 6.55937L9.78584 5.43047C9.76512 4.96779 9.74822 4.52745 9.75771 4.06562L9.77099 3.42187L9.82177 2.59531C9.83645 2.35875 9.79591 2.13306 9.79677 1.89219L9.80068 1.04375C9.80069 0.833231 9.81871 0.602 9.75927 0.399219C9.71784 0.255925 9.68218 0.121718 9.83662 0ZM28.9765 41.7852C28.9435 41.8871 28.805 42.0784 28.7851 42.1828C28.7004 42.6439 28.6531 43.0802 28.6116 43.543C28.5944 43.7329 28.6059 43.9385 28.5671 44.1094C28.5334 44.2595 28.4871 44.413 28.4741 44.5562L28.421 45.1141C28.3804 45.5457 28.4234 45.9601 28.3811 46.3883L28.2546 47.6805C28.2339 47.89 28.2513 47.9843 28.1788 48.1836C28.0787 48.4573 28.1571 49.0916 28.0976 49.4258L28.0015 49.9617L27.8507 51.0211C27.8187 51.2473 27.7489 51.4825 27.7429 51.707C27.7316 52.0877 27.7324 52.4441 27.6616 52.8109L27.4405 53.9586C27.4336 53.9931 27.4258 54.5787 27.3999 54.8437C27.3464 55.3946 27.3193 55.9353 27.296 56.4922L27.2679 57.1906L27.196 58.0742C27.1597 58.5249 27.1729 58.9642 27.1202 59.4227C27.0814 59.7636 27.1243 60.1217 27.0561 60.4445C27.0199 60.6146 26.9248 60.7661 26.9421 60.95L26.9819 61.3828C27.1019 61.2974 27.1961 61.2345 27.2522 61.2086C27.3299 61.3795 27.3612 61.4408 27.4561 61.5547C27.7107 61.3837 27.6852 61.1343 27.7499 60.8805L27.8733 60.3961L27.8749 60.3953C27.9837 59.9688 28.0569 59.5551 28.0983 59.1398L28.1858 58.2672L28.2851 57.5727C28.3325 57.2413 28.3267 56.8978 28.3569 56.5578L28.4741 55.2359C28.4862 55.097 28.531 54.9207 28.5319 54.793L28.5382 54.2172C28.5399 54.0403 28.5016 53.8293 28.5499 53.6602C28.6759 53.2199 28.5141 53.4182 28.5866 52.8633L28.7069 51.9375C28.7156 51.8736 28.7189 51.7666 28.7241 51.6984L28.7811 50.9977L28.8468 50.182C28.8856 49.6986 28.9289 49.2376 29.0757 48.7602C29.1128 48.6402 29.0932 48.4971 29.0983 48.3711L29.1186 47.882L29.1647 47.0758L29.2108 46.2273C29.2247 45.977 29.2909 45.7199 29.3366 45.4695C29.3866 45.1925 29.3703 44.9146 29.4022 44.6367C29.4221 44.4675 29.4913 44.2897 29.4991 44.1102L29.5335 43.2969C29.5421 43.0914 29.5179 42.8784 29.5093 42.6617C29.4868 42.1365 29.4013 42.4624 29.428 41.8094L28.9765 41.7852ZM22.771 51.2711C22.3854 51.1229 22.6222 51.5976 22.5272 52.2148C22.4979 52.4064 22.5193 52.6178 22.5038 52.8086L22.4741 53.1516C22.4672 53.2379 22.4328 53.3502 22.4319 53.4391C22.4285 53.9173 22.2429 54.3991 22.2835 54.8687C22.3068 55.1407 22.2913 55.3453 22.2507 55.6164L22.1327 56.4016L22.0569 56.8164C22.0103 57.0771 21.8923 58.3243 22.021 58.5781L21.946 58.8242L21.9522 59.4578C21.9583 60.1508 22.1451 60.0025 22.0382 60.4391L21.9436 60.825C22.0162 60.9787 22.3223 61.0987 22.4811 61.0141C22.6745 60.9114 22.8597 60.9237 23.0116 61.0852L23.3952 61.1203C23.5575 61.135 23.7161 61.1127 23.8171 61.2828C24.0001 61.5884 24.1168 61.2834 24.5304 61.318C24.2456 60.8311 24.7582 60.8585 24.4655 60.0867C24.4303 59.9927 24.4591 59.825 24.4257 59.7516L24.4272 59.7531C24.3841 59.6581 24.32 59.5274 24.2976 59.4445L24.2186 59.1469L24.0585 58.5641L23.9749 58.1273C23.9447 57.9693 23.8554 57.5436 23.7233 57.4383L23.7101 57.268L23.6663 56.6562L23.6233 56.3258C23.5974 56.1299 23.5449 55.9452 23.4905 55.7648C23.3964 55.4516 23.2983 55.3257 23.3569 55.1867C23.1765 55.1505 23.2721 54.9065 23.2116 54.8219C23.1279 54.7046 23.0194 54.589 23.021 54.4148L23.0257 54.0102C22.9819 53.9895 22.8143 53.8348 22.8272 53.7453L22.8983 53.2578C22.9078 53.1931 22.895 53.1142 22.8804 53.0391C22.8433 52.8482 22.8733 52.383 22.8327 52.1836C22.812 52.0791 22.7836 51.8934 22.8561 51.8148C22.8828 51.7852 22.9007 51.6582 22.8663 51.6555L22.7022 51.6406L22.7061 51.3969L22.6351 51.3437C22.6213 51.3334 22.6702 51.3077 22.6858 51.3016L22.771 51.2711ZM47.0116 43.6156C46.6959 43.7824 46.5274 43.178 46.4679 43.5008C46.4213 43.7544 46.3606 43.9666 46.2726 44.2047C46.1405 44.5587 46.1957 44.6325 46.0429 45.0625C45.9868 45.2186 45.9618 45.3576 45.9265 45.5172C45.8306 45.9506 45.6177 46.3611 45.5952 46.8031C45.5641 47.4168 45.4314 47.4575 45.3218 48.0531C45.2354 48.5219 45.1737 48.9718 45.0304 49.4242C44.8949 49.8507 45.0839 49.9425 44.8327 50.5969C44.7896 50.709 44.7558 50.8032 44.7343 50.9102L44.5772 51.6711L44.328 52.6367L44.2561 52.918L43.9796 53.7734L43.7905 54.5867L43.653 55.1969L43.4968 55.8641C43.4493 56.0661 43.4056 56.285 43.3452 56.4836C43.2158 56.9125 43.1623 57.3225 43.0476 57.7531L42.8851 58.3641C42.848 58.5022 42.8264 58.6679 42.7858 58.8086L42.5421 59.6641L42.4077 60.1758C42.3766 60.294 42.3716 60.5063 42.3233 60.6039C42.2336 60.7843 42.1398 60.9797 42.1397 61.1859C42.9082 61.2023 42.7385 61.4723 43.7124 61.4023H43.7101L44.1022 61.0875C44.0859 60.4904 44.3246 60.9078 44.4679 60.25L44.6194 59.5477C44.7152 59.1057 44.9233 58.717 44.9976 58.2742C45.0528 57.9435 45.1326 57.6192 45.2077 57.2859L45.3272 56.7578C45.569 55.6915 45.6514 56.0102 45.7835 54.6383C45.8077 54.3914 45.9088 54.1333 45.946 53.8898L46.0233 53.3766L46.1038 52.8805L46.1538 52.5719C46.2142 52.2033 46.2458 51.8414 46.3546 51.4797L46.689 50.3711C46.7744 50.0863 46.8524 49.8042 46.9249 49.5125L47.1335 48.675C47.206 48.3858 47.2518 48.1058 47.3226 47.8148L47.6358 46.5297C47.723 46.1732 47.7867 45.8173 47.9179 45.4781L48.0499 45.1391C48.1484 44.8851 48.6208 43.8568 48.514 43.7062C47.6482 43.4188 48.1352 43.49 47.5671 43.5539C47.3858 43.5746 47.1972 43.5181 47.0116 43.6156ZM16.7272 56.8633C16.6711 56.8618 16.561 56.9366 16.5265 56.9875C16.4177 57.1472 16.2896 57.1051 16.1272 57.0922L15.7405 57.0617C15.6586 57.0556 15.5372 56.9492 15.4655 56.9516L14.2952 56.9945C14.1502 56.9997 13.9907 57.018 13.8405 57.0508C13.5116 57.1212 13.3545 57.8253 13.346 57.8422L12.9936 58.2758C12.8512 58.451 12.7978 58.6743 12.6718 58.8789C12.6571 58.979 12.6724 59.1452 12.5913 59.2367C12.3867 59.4664 12.4237 59.7936 12.3046 60.0578C12.239 60.2037 12.1345 60.349 12.0827 60.4992L11.9147 60.9883C11.8794 61.0909 11.8452 61.211 11.8796 61.343C11.9987 61.3853 12.1842 61.3195 12.3327 61.3281L13.0436 61.3687V61.3664C13.2059 61.3759 13.3321 61.3376 13.4624 61.3445L13.803 61.3625C14.5196 61.4005 14.1255 61.2801 14.8585 61.1937L15.4608 61.1234C15.6266 61.1044 15.9581 60.8818 16.1179 60.9914C16.1748 61.0303 16.2254 61.12 16.303 61.2305C16.398 60.9801 16.442 60.7092 16.4593 60.4398L16.4757 60.1852C16.4929 59.9151 16.5183 59.6657 16.5546 59.3844C16.615 59.1876 16.8855 58.8776 16.9046 58.7273C16.9106 58.6756 16.8197 58.5797 16.8093 58.5219C16.7014 57.9159 16.5889 58.3223 16.7468 57.7891L16.8772 57.3484C16.9143 57.2215 16.8179 57.0014 16.7272 56.8633ZM21.1593 43.1094C21.0981 43.1189 21.0222 43.2247 20.9851 43.2852C20.7062 43.1479 20.8683 43.3292 20.3468 43.2687C20.1362 43.2447 19.8576 43.4786 19.8866 43.7047C19.9134 43.9101 20.1302 44.1169 20.0069 44.3344C19.9292 44.4708 19.9471 44.6403 19.903 44.7836C19.8348 45.0045 19.6651 45.209 19.6046 45.4531C19.5226 45.7837 19.5349 46.1258 19.5444 46.4719C19.5453 46.5168 19.5417 46.5979 19.5702 46.6117C19.5987 46.6254 19.6656 46.613 19.671 46.5812L19.6843 46.4937C19.6877 46.4748 19.7633 46.4851 19.7632 46.5039L19.7561 46.5914L19.7483 46.6883C19.7452 46.7107 19.5408 46.7384 19.5757 46.7805L19.6327 46.8484C19.6854 46.9123 19.7427 46.9728 19.7686 47.0203C19.7946 47.0678 19.698 47.2036 19.7101 47.2641C19.7558 47.4979 19.7366 47.8413 19.6788 48.0977C19.6287 48.3213 19.6265 48.5422 19.5936 48.7641C19.548 49.072 19.5333 49.4137 19.5936 49.7156L19.6671 50.0805C19.7499 50.4931 19.6142 50.1349 19.5624 50.6961C19.5339 51.0112 19.4763 51.311 19.5022 51.6148C19.5186 51.8132 19.4844 51.9583 19.3421 52.1023C19.3067 52.1438 19.4275 52.2426 19.4991 52.2711L19.464 52.8625C19.4554 53.0092 19.4722 53.1759 19.4515 53.3148C19.4273 53.4753 19.3939 53.623 19.4155 53.7922C19.4353 53.9501 19.4031 54.0849 19.3858 54.2359C19.3591 54.4706 19.3362 54.7097 19.3241 54.9461L19.2882 55.6055C19.2761 55.8247 19.3029 56.05 19.2468 56.2562C19.1993 56.4288 19.2547 56.6273 19.2358 56.8094L19.1632 57.493L19.1311 58.0375L19.0811 58.6406C19.0458 59.0654 19.0544 59.4113 19.0155 59.7852C18.9957 59.9775 18.9821 60.1475 18.9718 60.3477L18.9726 60.3469C18.9639 60.523 18.8377 60.7927 19.0069 60.9437C19.0459 60.9756 19.1838 60.9876 19.1866 61.0367L19.2007 61.2766L19.5413 61.2281C19.7162 60.9944 19.4276 60.9246 19.5741 60.6555C19.6397 60.5346 19.6237 60.4425 19.6038 60.3078C19.5668 60.0618 19.6776 59.7848 19.6569 59.5492C19.6474 59.4396 19.6389 59.3626 19.6476 59.2547L19.6804 58.8383L19.728 58.7602C19.7383 58.7429 19.6895 58.688 19.6968 58.668L19.7397 58.5664C19.7487 58.544 19.6532 58.5037 19.6468 58.4805C19.6235 58.3951 19.7225 58.2079 19.721 58.118C19.7184 58.0057 19.6831 57.8544 19.7038 57.7258C19.7815 57.2302 19.7532 56.7188 19.8413 56.2336L19.8843 55.9992C19.9939 55.4 19.8472 55.004 20.0147 54.6414C20.0785 54.5026 20.1172 54.4004 20.1327 54.2391L20.3061 52.432L20.3343 52.125L20.4421 50.9406C20.4542 50.812 20.4827 50.6966 20.5077 50.568C20.5621 50.2832 20.5767 49.9897 20.6069 49.6945L20.6655 49.1242L20.7202 48.4453C20.7401 48.1941 20.7693 47.9494 20.7788 47.7008C20.7935 47.3296 20.8146 46.9782 20.8741 46.607C20.8922 46.4957 20.8502 46.3493 20.8554 46.2578C20.8899 45.5614 20.8885 45.7339 21.1319 45.2703C21.1836 45.1719 21.1474 45.0481 21.1569 44.9445C21.1727 44.7715 21.3324 44.2394 21.4015 44.0539C21.4602 43.8977 21.5683 43.8191 21.4983 43.6266L21.3663 43.2648C21.3326 43.1733 21.2439 43.0956 21.1593 43.1094ZM35.3343 40.3586C35.2298 40.3476 35.0592 40.4639 34.9444 40.507C34.7295 40.589 34.5075 40.6177 34.2796 40.6695C34.1052 40.7092 33.9057 40.8284 33.7218 40.8336C33.4455 40.8422 33.2582 40.8697 33.0061 40.95L32.5936 41.0828C32.3778 41.1519 32.3162 41.2179 32.2351 41.4406C32.1642 41.6342 31.9759 42.2409 31.9905 42.4109L32.028 42.8391C32.0531 43.1309 31.9698 43.2889 31.8757 43.6773L31.7366 44.2523L31.4882 45.5422C31.2922 46.56 31.3882 45.9854 31.3382 46.9227L31.2913 47.8008L31.2319 48.5109V48.8586C31.2337 49.3662 31.1106 49.6918 31.1624 50.0578C31.1823 50.1985 31.3023 50.3911 31.2851 50.5336L31.2226 51.0492C31.1984 51.2478 31.1185 51.4475 31.1116 51.6469L31.089 52.3047L31.0421 52.9117C31.0127 53.2924 30.9953 53.6214 31.0194 54.0047C31.0254 54.1006 30.981 54.2843 30.9663 54.4008L30.8718 55.1703L30.7968 55.8922C30.7804 56.0527 30.7546 56.209 30.7296 56.3703L30.5311 57.6586C30.4975 57.8769 30.4528 58.0797 30.4468 58.3023C30.4407 58.5406 30.3986 58.7608 30.3632 58.9922L30.2811 59.5297C30.2224 59.9164 30.0636 60.4191 30.2811 60.7695C30.3486 60.879 30.5514 60.9477 30.6507 61.0383C31.1333 61.4777 31.2484 61.0598 31.6749 61.2602C31.9017 61.1944 31.9554 60.9318 32.2936 61.1898L32.2991 61.1867C32.3983 61.1571 32.5166 61.0042 32.5968 60.9602C32.7669 60.8669 32.9128 60.7559 33.0483 60.6039L33.5554 60.0352C33.6183 59.9654 33.6646 59.9074 33.7413 59.8453C33.8846 59.7305 33.9637 59.5318 34.0811 59.3859L34.6741 58.6414C34.7034 58.5292 34.723 58.3404 34.7601 58.2266L34.9022 57.7891C34.9791 57.5516 35.0029 57.3363 34.9796 57.0859C34.9217 56.4652 34.9374 56.1421 34.7319 55.5437L34.6405 55.2773L34.578 55.093C34.4875 55.0402 34.4374 54.9297 34.3796 54.8133C34.194 54.4378 34.0132 54.0714 33.9476 53.657C33.5458 53.474 33.7731 53.2342 33.471 52.9227C33.4114 52.302 33.4218 52.775 33.3311 52.4367C33.2647 52.1881 33.1482 51.9744 33.0429 51.7344C32.9731 51.5747 32.986 51.3608 32.9429 51.1891L32.7101 50.2586C32.6531 50.0324 32.6562 49.8022 32.664 49.5734L32.689 48.8523L32.6452 48.4953C32.6254 48.3322 32.6355 48.1802 32.6476 48.0258L32.714 47.1922C32.7537 46.6915 32.6677 46.4213 32.8093 45.9672C33.0113 45.318 32.8594 45.5009 32.9577 44.9961L33.0311 44.6156C33.0924 44.3006 33.1488 43.9991 33.2515 43.6953L33.4163 43.2094C33.4344 43.1549 33.4393 43.0298 33.4436 42.9539C33.656 42.7735 33.8095 42.5262 33.9054 42.2586C33.9648 42.2224 34.1216 42.1873 34.1608 42.1391L34.3874 41.8547L34.9343 41.3391L35.1585 41.1359C35.5115 41.0643 35.733 40.7446 35.6882 40.3977L35.3343 40.3586ZM50.1093 57.2203C50.1144 57.2324 50.0643 57.2934 50.0452 57.2937L48.7561 57.3297C48.4272 57.3383 48.1455 57.3341 47.8226 57.3289C47.7914 57.8577 47.5542 57.8087 47.5257 58.1969C47.4747 58.8988 47.1339 58.8913 47.1132 59.8695C47.1097 60.0413 47.2336 60.2781 47.0515 60.4094C46.9771 60.4629 46.8295 60.5494 46.8218 60.6719L46.8015 60.9898C47.1597 60.8088 47.6767 61.1113 47.9124 61.1148C48.7378 61.1278 48.7655 61.1937 49.7015 61.1445C50.0848 61.1238 50.7878 61.1863 50.9233 61.1664L50.9249 61.1672L51.264 61.1164C51.3822 61.0983 51.5163 61.0206 51.6483 60.9602L51.2397 60.7461L51.4811 60.2773C51.4898 60.2601 51.5522 60.2249 51.5444 60.2094C51.5364 60.1935 51.5086 60.1515 51.5077 60.1344C51.4939 59.8817 51.45 59.7466 51.5843 59.7266C51.5593 59.7153 51.4994 59.6281 51.5077 59.5789C51.5146 59.54 51.5517 59.4894 51.5905 59.4367C51.4163 59.34 51.5056 59.1608 51.4944 59.0391L51.4671 58.7258C51.4533 58.5756 51.3581 58.5882 51.4452 58.0531C51.4556 57.9866 51.4635 57.886 51.5093 57.8609L51.7194 57.7437L51.2366 57.5477C51.1831 57.5261 51.0758 57.4145 51.0499 57.4016C50.9437 57.4292 50.8927 57.4237 50.7796 57.4047L50.1772 57.3016C50.1592 57.2981 50.0992 57.1976 50.1093 57.2203ZM44.4858 38.5867C44.1785 38.7395 43.7136 38.8926 43.3561 38.9453C43.2543 38.9739 43.1233 39.1025 43.0413 39.1086C42.4499 39.1526 42.3955 39.0516 41.8007 39.2898C41.5278 39.3986 41.2839 39.5265 41.0335 39.6836L40.6905 39.8992L40.178 40.2359L39.4733 40.7016L39.0241 40.9781L38.7194 41.1992C38.6435 41.2545 38.5262 41.3447 38.4546 41.4086L37.1272 42.6078C36.8096 42.8953 36.572 43.3424 36.3804 43.5945C36.0972 43.9675 35.6401 44.651 35.5061 45.0672C35.4241 45.3219 35.3271 45.5555 35.296 45.8102L35.2061 46.5297C35.1828 46.7136 35.1825 46.8987 35.1679 47.0844L35.1405 47.443L35.1007 47.9109C35.08 48.1526 35.0796 48.3865 35.0882 48.6273L35.1007 48.9477C35.1249 49.5787 35.15 49.8036 35.3546 50.382L35.6929 51.3375C35.8534 51.7915 35.9904 51.8315 36.1976 52.3156C36.3461 52.6627 36.6597 53.3865 36.8444 53.6758C37.1035 54.0808 37.6398 55.5018 37.6554 55.7703L37.7015 56.568C37.7145 56.7985 37.9652 57.1542 37.7374 57.868C37.677 58.0561 37.6275 58.2202 37.5921 58.4109L37.5304 58.7414C37.4345 59.2498 37.15 59.6837 36.8358 60.0937C36.6036 60.3977 36.4584 60.7393 36.3358 61.1141C36.739 61.2012 36.893 60.8123 37.196 60.9969C37.436 61.1428 37.6556 61.085 37.8991 61.0375L38.3835 60.943C38.4751 60.925 38.6892 60.9675 38.7429 60.8883C38.8352 60.7502 38.896 60.752 39.0452 60.6727C39.1946 60.5932 39.4471 60.3514 39.4679 60.1891C39.4886 60.0267 39.4872 59.8962 39.5382 59.7312H39.5358L39.653 59.3437L39.9147 58.1391L40.0061 57.7594C40.1503 57.1611 40.2722 56.5733 40.4983 55.9992C40.7245 55.4251 40.7088 54.8191 40.8616 54.2484C40.9618 53.8738 41.1159 53.5268 41.2186 53.1461L41.4413 52.318L41.7061 51.6281C41.8106 51.3571 41.8681 51.1257 41.9976 50.8633C42.0631 50.7295 42.1321 50.5515 42.1718 50.4031L42.3272 49.8156C42.4481 49.3563 42.5477 48.9092 42.6366 48.443C42.6522 48.3627 42.6943 48.2451 42.7288 48.1719C43.0325 47.5254 43.1167 46.8384 43.2444 46.1453L43.4226 45.1703L43.6265 44.2406C43.6593 44.0922 43.7716 43.8908 43.6819 43.7414C43.6448 43.6792 43.5067 43.6158 43.4436 43.5727C43.4187 43.5553 43.3731 43.4709 43.3515 43.4898L43.2585 43.5727C43.123 43.6935 42.8996 43.6659 42.7218 43.6875C42.5319 43.7099 42.4361 43.6748 42.3179 43.5367C42.2419 43.4486 42.0567 43.537 42.0101 43.6492C41.9348 43.8299 41.7245 43.6735 41.4468 43.757C41.2318 43.5921 40.9723 43.6498 40.5476 43.5453L40.2491 43.4719C40.1965 43.4589 40.1037 43.438 40.0882 43.4328L40.096 42.9477L40.1054 42.3445C40.108 42.1547 40.1847 41.9319 40.1046 41.7437C40.039 41.5901 40.0065 41.4159 40.1593 41.3062L40.6374 40.9648C40.7177 41.0779 40.8163 41.097 40.9561 41.1039C41.3317 41.122 41.6953 41.1954 42.064 41.0633C42.1899 41.0184 42.3054 41.0421 42.4382 41.043L43.5671 41.0477L44.1124 41.0328C44.178 41.0311 44.2614 41.0273 44.3132 41.0195C44.444 41.001 44.3297 40.6383 44.6686 40.3906C44.831 40.2715 44.8587 40.1138 44.8976 39.9273L45.0155 39.3602C44.9819 39.273 44.9329 39.1608 44.9726 39.0703C45.0468 38.9011 45.3879 38.7747 45.2265 38.6789C45.0133 38.553 44.7956 38.6021 44.5936 38.6539C44.588 38.6321 44.5186 38.5707 44.4858 38.5867ZM17.3679 48.2023C17.2591 48.4009 17.2039 48.5664 17.1374 48.7641L16.8749 49.5414L16.5108 50.4117L16.4038 50.7156C16.3546 50.8546 16.3296 51.0208 16.2311 51.1391C16.0102 51.4066 15.841 51.6766 15.7124 51.9984C15.639 52.1831 15.556 52.3716 15.5163 52.5641C15.3885 53.1761 15.3279 53.0349 15.164 53.5664L14.8241 53.9937C14.7222 54.1224 14.66 54.1559 14.6686 54.3398C14.672 54.4089 14.6371 54.5213 14.6733 54.5695C14.8771 54.8387 15.1641 54.8167 15.3272 54.8469C15.5953 54.896 15.8746 54.8741 16.1444 54.8336C16.2281 54.8215 16.3896 55.0325 16.4647 54.8758C16.4863 54.83 16.5284 54.7664 16.5569 54.7422C16.6303 54.6792 16.8272 54.8066 16.8936 54.7203C16.9178 54.6892 16.9454 54.6134 16.9601 54.5617L17.1101 54.0078C17.0652 53.9095 17.0549 53.8267 17.0686 53.7344L17.0999 53.5227C17.0647 53.5201 17.0188 53.5286 17.0218 53.5117C17.0252 53.4944 17.0451 53.4085 17.0382 53.393C16.978 53.2616 17.1076 52.9896 17.1171 52.843L17.1866 51.7859C17.2073 51.4743 17.1972 51.158 17.2749 50.8602C17.3457 50.5865 17.2976 50.3331 17.3132 50.0758C17.3426 49.5872 17.598 49.1253 17.5772 48.6203L17.5655 48.3594L17.3679 48.2023ZM51.6069 42.2734C51.612 42.2052 51.4662 42.1165 51.4265 42.1734C51.3893 42.2265 51.2162 42.8391 51.3241 42.8633C51.2853 42.9746 51.2317 43.1273 51.1851 43.2594L51.0499 43.6422C51.031 43.6958 51.0356 43.7975 51.0382 43.8492L50.9397 44.2547L50.8116 44.7617L50.4897 45.9508L50.3405 46.5078L50.2366 46.9719L50.0976 47.5969L50.0616 47.8469C50.0331 48.0393 49.9681 48.2274 49.9241 48.4164L49.7405 49.2016C49.7267 49.2593 49.6889 49.3513 49.6827 49.4117C49.6741 49.4945 49.6734 49.6207 49.6554 49.682L49.4819 50.2734C49.393 50.5756 49.3096 50.8791 49.2405 51.1891L49.0882 51.8695L49.0265 52.2469C48.9876 52.4842 48.9435 52.712 48.871 52.9477L48.7421 53.3641L48.546 54.0773C48.5038 54.23 48.5046 54.4016 48.5554 54.5508C48.7132 54.4438 48.9482 54.3569 49.0976 54.4859C49.2547 54.6224 49.3936 54.4657 49.5093 54.5062L49.5046 54.5039C49.7194 54.5781 49.812 54.6185 50.0226 54.5461C50.1607 54.4986 50.393 54.461 50.5561 54.4937L51.0663 54.5977C51.2587 54.6365 51.25 54.4003 51.2491 54.2828L51.2405 52.9086C51.2406 52.7818 51.2695 52.691 51.3101 52.5219C51.3972 52.5408 51.3416 52.5289 51.2647 52.5125C51.2216 52.2078 51.1955 51.9099 51.2007 51.5836L51.2093 51.0398C51.2136 50.7618 51.1955 50.4992 51.2257 50.2203L51.303 49.5055C51.3108 49.4348 51.2614 49.2846 51.2647 49.2172C51.3235 48.2398 51.1306 48.6394 51.3007 47.5766C51.3266 47.4168 51.337 47.3044 51.3249 47.1516C51.312 46.9832 51.3818 46.7761 51.3827 46.6078L51.3843 46.1539L51.3913 45.7203L51.3999 45.4336C51.4034 45.3248 51.442 45.1884 51.4429 45.1055L51.4476 44.8617C51.451 44.6572 51.4765 44.5002 51.3936 44.3086C51.3307 44.1637 51.4373 43.9489 51.453 43.8047L51.5077 43.2937L51.5319 43.0352C51.5561 42.7744 51.5879 42.5342 51.6069 42.2734ZM16.7671 44.1461C16.5884 44.1668 16.4717 44.2164 16.3241 44.3398C16.2024 44.4414 16.0097 44.3554 15.8569 44.3477C15.5116 44.3306 14.9772 44.6097 14.2194 44.6633C13.2136 44.7349 13.6148 44.9305 12.9077 45.0125C12.6515 45.3535 12.7479 45.7742 12.7772 46.1531C12.8488 47.0983 12.6933 47.9589 12.6976 48.8687C12.6993 49.2918 12.608 50.4798 12.4819 50.8719C12.3827 51.18 12.3362 51.4686 12.4483 51.7914C12.109 52.4951 12.4484 52.1561 12.2585 52.6828C12.1973 52.8545 12.1621 53.0814 12.1491 53.2609C12.2855 53.3671 12.311 53.5325 12.2351 53.6586C12.1768 53.6663 12.1363 53.6694 12.1061 53.6805C12.0759 53.6917 12.0559 53.7984 12.0585 53.832L12.0601 53.8297L12.0757 54.1039C12.1232 54.1107 12.2151 54.0501 12.2358 54.007L12.3976 53.6711C12.6116 53.2248 12.5937 52.9458 12.889 52.8094C12.9838 52.7143 13 52.4621 13.0647 52.3258C13.1821 52.0781 13.2955 51.8374 13.4327 51.6078C13.5604 51.3955 13.682 51.2046 13.7632 50.9664C13.8202 50.7998 13.908 50.6814 14.0116 50.5398C14.1601 50.3378 14.1561 50.0396 14.2554 49.8117L14.6202 48.982C14.7177 48.7611 14.7623 48.5055 14.8882 48.307C15.2076 47.8028 15.4447 47.2879 15.6796 46.7414C15.7236 46.6396 15.8005 46.526 15.8601 46.432C16.2322 45.8406 16.1712 45.6647 16.5632 45.1648C16.7911 44.8739 16.9843 44.5608 17.0499 44.2C16.9765 44.1275 16.8647 44.1349 16.7671 44.1461ZM25.7194 42.4547C25.5408 42.372 25.3094 42.3564 25.2179 42.5703C25.1851 42.6463 25.1248 42.7439 25.0679 42.775C25.0187 42.8018 24.871 42.7382 24.8054 42.7469C24.5671 42.778 24.2577 42.8411 23.9866 42.7789C23.6666 42.705 23.8507 43.2348 23.8835 43.7492C23.8888 43.8376 23.9851 45.0096 23.9765 44.9656C24.1042 45.595 24.2384 46.2161 24.2772 46.8758L24.2983 47.2414L24.4202 48.4203L24.4811 49.1859L24.5124 49.65C24.5314 49.9271 24.5733 50.1553 24.7632 50.3789C24.7718 50.4911 24.7797 50.6557 24.7788 50.7766L24.7718 51.5844C24.7683 51.9985 24.7596 52.5057 25.1093 52.8227C25.1421 52.8086 25.2115 52.7111 25.2124 52.6594C25.2124 52.2113 25.2513 51.4778 25.3515 51.0867C25.3101 51.0004 25.3451 50.9013 25.3546 50.8047L25.4077 50.2344L25.5741 48.1648C25.6294 47.4776 25.6662 47.3908 25.6835 46.625L25.7077 45.5492L25.7702 45.2281L25.8413 43.9469L25.8757 43.5031C25.8973 43.2225 25.8399 43.0478 25.8468 42.6523C25.8469 42.6065 25.8707 42.5247 25.8405 42.5109L25.7194 42.4547ZM38.7483 44.3234C39.1809 44.1792 39.6509 44.1804 40.1007 44.2797L40.8968 44.4555C41.134 44.5083 41.2979 44.7657 41.4843 44.8891C41.7415 45.06 41.8431 45.2565 41.9561 45.5328C42.1314 45.9593 42.2004 46.2127 42.0718 46.7281C41.9389 47.2579 42.1199 46.9094 42.0413 47.5016C41.9766 47.9856 42.025 48.2067 41.8569 48.5156C41.7516 48.7073 41.8248 48.9971 41.7186 49.1922L41.1882 50.1703C40.9042 50.6951 40.9047 50.6047 40.328 51.0812C40.1597 51.2202 39.9136 51.3856 39.7194 51.4469L38.9241 51.6969C38.9043 51.7467 38.8843 51.765 38.8671 51.7547C38.8118 51.7106 38.6989 51.6023 38.6436 51.6273L38.6421 51.625C38.567 51.6587 38.4404 51.7399 38.3515 51.7969C38.279 51.7727 37.6668 51.3805 37.7413 51.2695C37.6093 51.2126 37.4258 51.1851 37.2507 51.1773L37.239 51.068C37.0207 51.0782 36.9946 50.8981 36.9265 50.7453C36.4163 50.4293 36.8175 50.4648 36.5155 50.243L36.5515 50.1734C36.5618 50.1536 36.5085 50.1348 36.4757 50.1141L36.4077 50.0711C36.3896 50.0599 36.4555 50.0211 36.4851 49.9969C36.4297 49.9804 36.3222 49.9401 36.3179 49.8875L36.2991 49.6539C36.2879 49.5149 36.2369 49.3496 36.2421 49.2141C36.2464 49.1185 36.2352 49.053 36.2335 48.9867C36.2223 48.6388 36.2627 48.3079 36.3007 47.9695L36.346 47.5633C36.3555 47.4813 36.3795 47.3677 36.3968 47.2789L36.4811 46.857C36.5296 46.6142 36.718 45.9867 36.8155 45.7398C37.117 44.9777 38.0146 44.5686 38.7483 44.3234ZM39.1366 46.2914C39.1142 46.3277 39.0814 46.3706 39.0538 46.3836L38.7561 46.5242C38.6198 46.589 38.6012 46.6813 38.5304 46.8039C38.2749 47.2474 38.0217 47.4719 38.1397 47.8516C38.0603 48.0968 38.0294 48.4806 38.0968 48.7586C38.1219 48.8621 38.2002 48.9435 38.2546 49.0539C38.3375 49.2215 38.4894 49.5994 38.7811 49.482L39.5976 49.1539H39.5968C39.6779 49.1211 39.8236 48.9953 39.8702 48.9297C39.9928 48.7562 39.9849 48.5048 40.003 48.2898L40.0515 47.7156C40.2889 47.3513 40.1046 47.2014 39.9155 46.7102C39.9063 46.6878 39.8332 46.668 39.8108 46.6508L39.5788 46.4734C39.5542 46.5099 39.591 46.4532 39.6194 46.4102L39.1366 46.2914ZM12.2874 48.4109C12.2529 48.3574 12.1259 48.36 12.1233 48.4109C12.1345 48.4604 12.2866 48.4571 12.2874 48.4109ZM18.8913 29.5617C18.8559 29.5548 18.7744 29.5905 18.7468 29.6164C18.3068 30.0399 18.3133 29.7172 18.0476 30.1312L17.7929 30.2641C17.7893 30.4692 17.6452 30.4622 17.5218 30.532C16.9528 30.8541 15.8951 31.9267 15.4116 32.4344C14.2539 33.6482 13.8236 33.4122 13.5827 33.7023C12.9248 34.4967 12.8766 35.0695 12.8671 36.1211L12.839 39.268C12.8346 39.7178 12.8726 40.1315 12.7405 40.5805C12.6801 40.786 12.7022 40.9976 12.7108 41.2117C12.7255 41.5914 12.8736 41.5098 12.8218 41.5875L12.7319 41.7234C13.1619 41.9763 14.2581 41.8945 14.7632 41.8039L16.1483 41.5547C16.3201 41.5236 16.5263 41.5648 16.7007 41.5234L17.5436 41.3195L17.9116 41.2328C18.4658 41.1025 18.9916 41.0249 19.5647 40.9687C19.9748 40.9282 20.3702 40.8068 20.7733 40.7352L21.4561 40.6133L22.9741 40.2789C23.3885 40.1874 23.7934 40.1804 24.2069 40.132L25.3124 40.0039C26.0168 39.9219 25.5983 39.6314 26.1905 39.6711C26.4461 39.6884 26.8304 39.7033 27.0358 39.7016C27.0731 39.701 27.1617 39.5706 27.178 39.6008L27.2569 39.7469C27.2905 39.8098 27.3608 39.9137 27.4194 39.9219C27.4704 39.9288 27.5859 39.8412 27.6101 39.7937C27.6281 39.628 27.4816 39.4467 27.3694 39.325L27.246 39.1906L26.9061 38.8164C26.6912 38.5798 26.3748 38.3112 26.2444 38.1445L25.9843 37.8086C25.8487 37.6351 25.4827 37.2071 25.303 37.168C25.3064 37.037 25.2362 36.9362 25.1327 36.8422L24.821 36.5594C24.7493 36.4938 24.6581 36.4203 24.596 36.3383L24.0999 35.6758C24.0386 35.5929 23.9396 35.5251 23.8835 35.4414C23.7652 35.2687 23.6444 35.1322 23.4804 34.9992C23.35 34.8939 23.2559 34.7418 23.1351 34.6141L22.9069 34.3734C22.7265 34.1826 22.5833 33.9829 22.3968 33.793C22.2207 33.6134 22.078 33.3889 21.889 33.2266C21.7294 33.0894 21.6369 32.9542 21.5085 32.793L21.0819 32.2594L20.8397 31.8945C20.6792 31.6529 20.4891 31.4477 20.2819 31.2414L19.8429 30.8023C19.4336 30.394 19.5587 30.1857 19.2522 29.9578C18.85 29.66 19.0534 29.5954 18.8913 29.5617ZM48.9311 38.2289C48.7603 38.2462 48.5968 38.29 48.4233 38.2469C48.2499 38.2038 48.0736 38.2162 47.9304 38.2922C47.7698 38.6885 47.9038 39.0318 47.764 39.2555C47.6476 39.4418 47.6405 39.6264 47.5741 39.8352C47.5422 39.937 47.4481 40.0967 47.3936 40.2133L47.1452 40.7469L46.8304 41.4344L47.3132 41.4977C47.4392 41.5141 47.5973 41.512 47.7397 41.5008H47.7421L48.0585 41.4758L48.4882 41.4625C48.5347 41.4599 48.628 41.3775 48.6686 41.3961L48.8226 41.4672C49.3104 41.0113 49.0686 40.6547 49.4218 40.5148L49.3046 40.3195L49.3921 39.6477L49.4499 39.1203C49.4663 38.9709 49.3668 38.7572 49.5257 38.6406C49.5619 38.6148 49.6409 38.6 49.6593 38.5656C49.6739 38.5381 49.6646 38.4395 49.6491 38.4125L49.5116 38.1687L48.9311 38.2289ZM28.6366 31.6695C28.6159 31.8541 28.6381 32.0155 28.6726 32.2078C28.6907 32.3097 28.4903 32.3367 28.4272 32.3859C28.2037 32.5586 27.9737 32.7412 27.7311 32.8914C27.2228 33.2056 26.7262 33.6473 26.4405 34.1625L26.5593 34.4602C26.5743 34.4965 26.6424 34.5644 26.664 34.5937C26.853 34.8502 27.0687 35.0666 27.2819 35.3023L27.9507 36.0406L28.4468 36.6695C28.5149 36.7558 28.5969 36.8516 28.6702 36.9266L29.4022 37.6758C29.4962 37.7715 29.6029 37.8503 29.6694 37.9812C29.8438 38.3266 30.0497 38.6222 30.2897 38.9305C30.3389 38.9943 30.3881 39.2028 30.5069 39.1852C30.9783 39.1144 31.0996 38.7768 31.3577 38.8328C31.5563 38.876 31.7264 38.868 31.9163 38.7773L32.2335 38.6258C32.552 38.6456 32.8154 38.6141 33.0804 38.4492C33.4912 38.194 33.7878 38.5766 34.203 38.2055L34.0358 37.9648C33.9736 37.7458 33.8493 37.6139 33.6819 37.4664L33.0335 36.8945C32.9333 36.6226 32.7331 36.4462 32.5647 36.2062L32.2733 35.7883C32.2018 35.6857 32.1022 35.6333 32.0288 35.5437L31.7686 35.2305L31.3671 34.7523C31.2808 34.6497 31.1547 34.5574 31.0874 34.4383C30.9786 34.2466 30.7577 34.1557 30.6429 33.9891L30.2335 33.3953C30.1705 33.3038 30.1092 33.2382 30.0272 33.157C29.9107 33.0431 29.8176 32.8356 29.6976 32.7328C29.209 32.511 29.0672 31.6457 28.6366 31.6695ZM13.2765 2.83281C13.2402 2.83818 13.2075 2.97637 13.2429 2.98672L13.3811 3.02656C13.4441 3.04475 13.5355 3.10548 13.5366 3.14687L13.2452 3.33594L12.9616 3.52344L12.9655 3.67891C12.9664 3.71344 12.8689 3.76094 12.8577 3.79375C12.723 4.19348 12.8552 4.08592 12.8483 4.62812C12.8457 4.8525 12.8236 5.08129 12.846 5.29531L12.9163 5.99766C12.9275 6.1099 12.9191 6.23735 12.9147 6.35391L12.8991 6.73047C12.8819 7.15351 12.9102 7.73385 12.9577 8.11797C12.9643 8.16976 13.1163 8.26075 13.0866 8.29531C13.0607 8.32466 12.9565 8.39137 12.9452 8.43281C12.9003 8.60022 12.9285 8.90042 12.9147 9.09297C12.8759 9.62568 12.8554 10.119 12.8796 10.65L12.9202 11.5367L12.914 12.4266V13.9711L12.9116 15.7578L12.9382 18.8875C12.9442 19.6067 12.8366 20.3052 12.8944 21.0312C12.9203 21.3542 12.889 21.6679 12.8968 21.9891L12.9358 23.6883C12.9626 24.8564 13.032 25.991 12.9983 27.1539C12.9932 27.3188 13.0166 27.4874 12.989 27.6453C12.9658 27.7765 13.0674 27.9257 13.0554 28.0172L12.9811 28.5547L12.9444 29.1047L12.9015 29.6289C12.8971 29.6833 12.8591 29.8118 12.878 29.8594L13.0093 30.182C13.0774 30.3502 13.127 30.5012 12.9632 30.6711C12.7629 30.8791 12.6233 31.252 12.7319 31.543C13.016 31.6292 13.325 31.3749 13.439 31.1125C13.4718 31.0365 13.5478 30.9095 13.603 30.875L14.0069 30.8094C14.2339 30.7723 14.3686 30.1902 14.4343 30.118C14.5707 29.9669 14.7837 29.7507 14.9624 29.6203L15.5241 29.2109L16.0913 28.7617C16.4591 28.4708 16.9329 27.8619 17.2515 27.4742C17.3378 27.3689 17.4043 27.3074 17.5226 27.2289C17.7332 27.0891 17.9127 26.892 18.1155 26.7383C18.4315 26.4991 18.7566 26.2961 19.0147 25.9836L19.1249 25.7516C19.4469 25.9847 19.5865 25.6445 19.6538 25.9734C19.7971 26.1487 20.0172 26.2655 20.2218 26.3734C20.4927 26.9289 20.6194 26.6792 20.7101 26.9617C20.8145 27.2881 20.8504 27.4277 21.1241 27.7117L21.4272 28.0258C21.5766 28.1811 21.7396 28.3223 21.889 28.4828L22.8772 29.5477C23.0249 29.7074 23.1413 29.8927 23.2726 30.0766C23.3917 30.244 23.3308 30.344 23.6249 30.7219L24.0507 31.2687L24.421 31.7555C25.0893 31.5828 24.784 31.7572 25.3374 31.4516C25.5506 31.3342 25.7577 31.1788 25.9304 31.0148L26.5108 30.4641L27.1772 29.8383C27.6357 29.4074 28.1777 28.9234 28.6491 28.6281C28.7018 28.5953 28.7926 28.4988 28.828 28.5125C29.3072 28.699 29.3178 28.8729 29.778 28.8703C30.0897 29.3347 30.436 29.768 30.771 30.2039C31.0524 30.5699 31.3283 30.8989 31.6554 31.2234C31.7649 31.3321 31.8798 31.4568 31.9765 31.575L32.1796 31.8227L32.6741 32.4031L32.8991 32.6758C33.1089 32.9313 33.2987 33.1733 33.4921 33.4461L33.8405 33.9398C34.0072 34.1755 34.1519 34.4244 34.353 34.6359L35.6624 36.0203C35.9663 36.3415 36.2289 36.6782 36.5077 37.0227C36.6873 37.2445 36.8586 37.4696 37.153 37.5594L37.6155 37.3922L38.0819 37.3789C38.3245 37.372 38.5649 37.2462 38.8101 37.2289C39.1846 37.2022 39.5419 37.1823 39.9155 37.1133C40.2229 37.0563 40.5235 37.0447 40.8335 37.0102L41.6858 36.9164L42.5218 36.8281C42.6295 36.8169 42.72 36.7995 42.8226 36.7633C43.1144 36.6588 43.4143 36.606 43.7226 36.543L45.0366 36.275C45.2195 36.2379 45.3929 36.2265 45.5741 36.1773L46.6765 35.8742C46.9259 35.8062 47.4283 35.9153 47.578 35.825C47.5962 35.8138 47.5962 35.7587 47.5772 35.7492L47.4843 35.7047C47.3695 35.6512 47.2511 35.5796 47.1397 35.5398C47.0086 35.4924 46.9358 35.44 46.8538 35.3312C46.6397 35.0463 46.2891 35.5261 45.8936 35.4656C45.8393 35.5837 45.7861 35.6813 45.7249 35.7633L45.6663 35.7008L45.689 35.6266C45.7261 35.5065 45.6408 35.7215 45.3179 35.6594C45.2167 35.6404 44.5302 35.7434 44.371 35.7711L43.6671 35.8922C43.5376 35.9146 43.364 35.9396 43.2569 35.9422C43.2293 35.7497 43.166 35.7176 43.0702 35.6062C42.8725 35.3753 42.5537 34.4398 42.5382 34.1844C42.5244 33.9616 42.8521 33.8725 43.0015 33.8906C43.2864 33.926 43.4698 33.7764 43.7038 33.7125C43.9308 33.6513 44.2174 33.743 44.428 33.6273L44.4936 33.5914C44.5028 33.5861 44.4699 33.5579 44.4593 33.5523L44.0765 33.3656L44.1686 33.2305C43.7201 33.1338 43.7336 32.9123 43.6647 32.918L43.4796 32.9344C43.1672 32.962 42.816 33.0962 42.5061 33.1852L42.1366 33.1727C42.0995 33.1709 42.0058 33.1382 41.9765 33.1312C41.8608 33.1571 41.6941 33.1432 41.5655 33.1242C41.1712 33.3641 41.4299 33.1239 40.6686 33.2922C39.9478 33.4519 40.0918 33.2734 39.4366 33.4219C39.2216 33.4702 39.0221 33.4747 38.7718 33.4617C38.758 33.347 38.7716 33.2279 38.7897 33.0898C38.8148 32.9042 38.719 32.6941 38.7069 32.5102L38.6319 31.3648C38.6285 31.3165 38.6339 31.2064 38.671 31.1883C38.8358 31.1101 39.0233 31.3254 39.189 31.3125L39.678 31.2727L40.1718 31.2539C40.6829 31.234 41.1385 31.3113 41.5046 31.2086C41.5357 31.1998 41.6277 31.1384 41.6194 31.1125L41.5866 31.0109C41.7628 30.884 41.2848 30.9336 41.2788 30.7609C41.2719 30.5667 41.2304 30.4376 41.0241 30.3711C40.9179 30.3374 40.7323 30.2888 40.6054 30.2836L39.2757 30.225C38.9261 30.2095 38.5869 30.2283 38.2304 30.2344L37.703 30.243C37.5002 30.2464 37.2801 30.3749 37.1022 30.1992C36.9357 30.0352 36.6816 30.0599 36.4624 30.0289L35.2913 29.8648C35.2568 29.5462 35.2567 29.1324 35.3163 28.8164C35.4241 28.2467 35.2224 27.9453 35.3554 27.3867L35.7811 27.6625C36.4354 27.8411 37.0872 27.7874 37.7561 27.7312C38.4365 27.6734 39.2477 28.1647 40.1163 27.7312C40.0282 27.5974 40.0002 27.4522 39.964 27.2812L39.8874 26.9242C39.7605 26.869 39.6153 26.811 39.5194 26.7031L39.1405 26.6219C38.932 26.5771 38.284 26.6065 38.3061 26.6109L37.4288 26.4867C37.2874 26.4669 37.1883 26.4569 37.0624 26.4328L36.3397 26.2953L36.0272 26.2617C35.8383 26.241 35.6818 26.2017 35.4843 26.2094C35.1934 26.2206 34.8685 26.1591 34.5897 26.2375C34.4033 26.2902 34.3 26.3153 34.1671 26.1297C34.0445 25.9596 33.8614 25.7383 33.7976 25.5242C33.727 25.2877 33.8474 25.0129 33.8491 24.7773L33.8561 23.5312C34.2662 23.4976 34.3364 23.8301 34.7257 23.8C35.0313 23.7767 35.28 23.8515 35.564 23.943C35.8971 24.05 36.2659 23.9978 36.6163 24.0297L37.353 24.0984C37.6941 24.1304 38.8088 24.5936 39.5202 24.4805C39.5617 24.3165 39.6358 24.1138 39.6272 23.9352L39.6101 23.5742L39.7929 23.5289L39.6061 23.3211C39.3653 23.2952 39.0767 23.0581 39.0905 23.0555C38.9256 23.0848 38.9056 23.2328 38.8624 23.1758L38.7772 23.0641C38.6262 23.115 38.4359 23.1526 38.271 23.1336L37.9358 23.0961C37.6984 23.0693 37.4878 23.0264 37.2452 23.0359C37.0907 23.042 36.437 22.9623 36.2319 22.9234L35.6468 22.8109C35.4055 22.7652 34.641 22.7609 34.3561 22.7617C34.2129 22.7617 34.0568 22.7084 33.9015 22.7773C33.8661 22.7929 33.7551 22.8125 33.7444 22.7773L33.6999 22.6328L33.6155 22.3648C33.6958 22.1439 33.6287 21.9045 33.6632 21.6836L33.7936 20.8516C33.8826 20.2872 33.9965 20.332 34.2952 19.8383C34.5041 19.9919 34.7199 20.0989 34.9702 20.1516L35.5405 20.2727C35.796 20.327 36.0753 20.3214 36.3429 20.368L38.1866 20.6914C38.6847 20.7786 39.2818 21.0131 39.653 20.8414C39.7558 20.8155 39.9762 20.8252 40.0858 20.8148C40.0668 20.593 40.1694 20.2861 40.2929 20.1445C40.2815 19.8416 39.9252 19.7631 39.6921 19.7242L39.1249 19.6305C39.0291 19.6149 38.7139 19.4199 38.1046 19.3508C37.717 19.3068 37.2991 19.2354 36.921 19.1672C36.8891 19.1612 36.801 19.1043 36.7663 19.093L36.0601 18.8687L35.603 18.7172C35.5554 18.7017 35.4364 18.7259 35.3811 18.7328C35.2803 18.5896 35.3174 18.4068 35.3476 18.2359C35.5271 17.2233 35.6831 17.3844 35.9343 16.4953C36.0957 16.4392 36.25 16.5711 36.339 16.7023C36.4409 16.8525 36.6834 16.8434 36.8405 16.8883C37.1133 16.9667 37.3886 16.9243 37.664 16.9562L38.889 17.0977L40.2796 17.5094C40.4539 17.5611 40.6506 17.5277 40.8085 17.6062C40.8447 17.6243 40.9393 17.6324 40.9655 17.6102C41.0622 17.523 41.0624 17.1821 41.0538 17.1078L41.0061 16.7328L41.3132 16.6094C41.2364 16.4964 41.1523 16.4556 41.0186 16.4383L40.8569 16.2734C40.6877 16.2346 40.4466 16.2922 40.2765 16.2672L39.2413 16.1133C39.0644 16.0874 38.8984 16.0914 38.7163 16.0672L37.6702 15.9305C37.5649 15.9167 37.3832 16.0024 37.2882 15.9852L36.9132 15.9172C36.8149 15.7705 36.8811 15.5465 36.8976 15.3695L36.9483 14.8086C36.9597 14.6879 37.037 14.5747 37.1241 14.5031L37.2038 13.6297C37.8522 13.7998 37.8083 13.8848 38.4999 13.9953C38.9133 14.0618 39.3094 14.0655 39.728 14.075C40.1243 14.0836 40.4889 14.0846 40.8929 14.0492C41.1044 14.0311 41.356 14.095 41.5304 13.918C41.299 13.4949 41.5716 13.3932 41.1304 13.1859C40.924 13.0893 40.7583 13.0801 40.5382 13.1164C40.4079 13.138 40.3131 13.1367 40.1819 13.2281C40.1146 13.2756 39.9657 13.1625 39.8897 13.1539L38.9515 13.0477C38.7857 13.0287 38.5549 13.1501 38.4038 13.1242L38.0202 13.0594L37.9804 12.7344C37.787 12.4089 37.6797 12.0833 37.7522 11.7086L37.8608 11.143C37.8677 11.105 37.963 11.0699 37.9897 11.0906C38.3454 11.3666 38.8461 11.3032 39.314 11.2937C39.6152 11.2877 39.8776 11.2601 40.1694 11.2117C40.4154 11.1712 40.9548 11.0966 41.1647 11.1992C41.2286 11.1518 41.1636 11.0024 41.1093 10.9289C40.7285 10.4169 40.2901 10.3895 39.6624 10.4344C39.5821 10.4403 39.4474 10.4263 39.3827 10.4461C39.2896 10.4745 39.218 10.4889 39.1335 10.4906L38.5436 10.5047C38.5825 9.77714 38.3922 10.0859 38.4155 9.25625C38.4215 9.05254 38.3958 8.82623 38.3897 8.63203L38.6874 8.65781C38.7495 8.66262 38.8189 8.54025 38.8741 8.48594C38.9121 8.44882 39.0566 8.48265 39.1093 8.46797L39.5046 8.35625C39.5788 8.40287 39.6631 8.4495 39.7132 8.42187C39.9055 8.31381 39.7785 7.8556 39.5679 7.63203L39.1202 7.15937C38.9657 6.99619 38.8961 6.75495 38.796 6.55469C38.7451 6.45278 38.675 6.26548 38.7976 6.15156C39.1317 5.84164 39.5463 5.65119 39.9874 5.45781L40.3319 5.85234L40.3179 5.84531C40.5423 6.10254 40.7454 6.34065 40.9827 6.5625C41.2754 6.83533 40.8572 6.85979 41.2733 7.32344C41.4982 7.57445 41.2569 7.78171 41.5015 7.71641L41.7694 7.64531C42.0923 7.55983 42.3601 7.38032 42.639 7.20937C43.2008 6.86499 42.9059 6.68036 43.2741 6.55C43.3042 6.5397 43.3837 6.53002 43.3905 6.55625L43.4163 6.66016C43.4483 6.78965 43.5093 6.89187 43.6155 6.97734C44.0745 7.34509 43.6907 7.70218 44.2147 7.87656C44.2829 8.06213 44.4199 8.35995 44.2233 8.46797C44.1111 8.52927 43.9195 8.58068 43.8288 8.66875C43.6838 8.80938 43.5104 8.8922 43.3671 9.01641C43.1928 9.16658 43.1216 9.44875 42.9085 9.60937C42.7893 9.69917 42.7168 9.97929 42.7858 10.0984C42.905 10.3028 43.1337 10.246 43.2882 10.1484C43.4055 10.0743 43.6236 10.1593 43.7436 10.1164C44.1287 9.97567 44.4606 9.77276 44.8241 9.59922C45.0736 9.48007 45.3172 9.38128 45.5538 9.24141C45.6298 9.19618 45.7548 8.97282 45.8694 9.13125C46.4047 9.87118 46.2522 9.75583 46.6382 10.4828C46.7167 10.6311 46.8563 10.7863 46.8694 10.9492C46.8798 11.0761 46.7062 11.1447 46.6155 11.1844C46.4058 11.2751 46.2295 11.4737 46.0249 11.5367C45.9016 11.5747 45.7895 11.6007 45.6765 11.643L45.1741 11.8328C44.8348 11.9615 44.5086 12.1471 44.2772 12.4242C44.0181 12.3536 43.4522 12.4832 43.4772 12.8086C43.4876 12.9449 43.5566 13.0441 43.6929 13.1062L43.7491 13.3992L43.8632 13.5062C43.9319 13.572 43.6708 13.8229 43.7483 13.9766C43.9503 13.8229 44.0783 13.7649 44.2811 13.6984L44.8601 13.5102L45.5491 13.2812L47.3593 12.6734C47.7353 12.5474 47.9268 12.3503 47.9882 12.5406C48.0494 12.7313 48.1377 12.9274 48.2257 13.1078C48.3975 13.4575 48.4701 13.8299 48.5702 14.2141C48.6375 14.4712 48.997 14.5283 49.0085 14.7922C49.0145 14.9345 48.8616 14.996 48.7546 15.0125C48.1981 15.1005 47.7887 15.3549 47.596 15.3578C47.3345 15.3613 47.266 15.4766 47.0788 15.5836C46.8589 15.7086 43.9182 16.249 43.9155 16.2469L43.4679 16.5937C43.4308 16.6222 43.3552 16.6222 43.3351 16.6453C43.3152 16.6686 43.3406 16.742 43.3561 16.7937C43.382 16.8792 43.354 17.0035 43.3608 17.0734C43.3738 17.1986 43.4022 17.3001 43.3374 17.4227C43.3141 17.4667 43.2815 17.5163 43.3022 17.5344C43.3704 17.5973 43.6735 17.5268 43.7843 17.5L44.2311 17.3898C44.4262 17.3415 44.561 17.2527 44.7733 17.2492C45.135 17.2431 45.4864 17.1122 45.8421 17.0906L46.5226 17.0492L46.6835 16.8758L47.7608 16.6203L48.771 16.3359C48.8085 16.3257 48.9175 16.329 48.9296 16.3617L48.9804 16.4961C49.0676 16.7283 49.2071 16.9571 49.271 17.2023C49.3556 17.5269 49.4269 17.8076 49.603 18.1055C49.6962 18.2627 49.723 18.6968 49.4796 18.6727C49.1869 18.6433 48.7531 18.6066 48.4811 18.7422C48.3706 18.7965 48.1972 18.8003 48.0694 18.8383C47.5091 19.0066 46.9848 19.1408 46.396 19.2047L46.1358 19.3297C45.5169 19.3357 44.9494 19.4555 44.3624 19.6117C44.2104 19.6523 44.0623 19.6656 43.9233 19.7398C43.2778 20.085 43.4489 19.8335 43.121 20.0656C42.7281 20.3445 43.0003 20.2867 42.4624 20.6484C42.44 20.7157 42.4106 20.7929 42.3796 20.8352L42.3163 20.9242C42.2818 20.9717 42.6902 21.2069 43.1866 20.8227C43.4404 20.7907 43.7398 20.7673 44.003 20.7164L44.6554 20.5914C44.9688 20.531 45.2793 20.4719 45.5866 20.3898L46.0382 20.2695C46.1546 20.2384 46.2926 20.1686 46.4194 20.1453C46.7967 20.0771 47.1335 19.96 47.4952 19.8633L48.3608 19.6328C48.4868 19.599 48.6303 19.4245 48.7796 19.4789C48.9434 19.5387 48.9048 19.8916 48.953 20.1539C49.1093 21.0035 49.2553 20.6508 49.0101 21.25C48.9703 21.3467 48.9398 21.4626 48.9882 21.5516C49.0365 21.6407 49.0657 21.8764 48.9397 21.8945C48.3286 21.9817 47.7633 22.1092 47.1694 22.2594L46.4038 22.4523L46.1569 22.5242L45.8444 22.6062C45.7271 22.6365 45.6226 22.6918 45.4983 22.7289L44.9608 22.8898C44.8339 22.9278 44.7359 22.968 44.6124 22.9922L43.9804 23.1172C43.8863 23.1362 43.7637 23.1657 43.6757 23.1977L43.3179 23.3305C43.2022 23.3736 43.1052 23.3703 43.0335 23.2875C42.9618 23.2046 42.8282 23.3496 42.8022 23.4602C42.7867 23.5249 42.5827 23.4983 42.5249 23.5406L42.0069 23.9258C41.9697 23.9533 41.8106 23.9422 41.8218 23.9836C41.8313 24.0191 41.857 24.1026 41.8726 24.1328L41.9944 24.3742C42.9105 24.6427 42.6694 24.1892 43.039 24.2703C43.2494 24.3159 43.3952 24.217 43.5772 24.1445C43.68 24.1031 43.8572 24.0965 43.9608 24.043C44.2924 23.8712 44.6257 23.772 44.9866 23.6883C45.6979 23.5225 45.8033 23.5493 46.5241 23.318L47.0116 23.1617L47.4616 23.0141C47.6464 22.9528 47.7945 22.8926 48.0069 22.7977C48.1062 22.9168 48.2827 23.1157 48.3647 23.2547L48.928 24.7359L48.7468 25.1203C48.6423 25.3413 48.5349 25.3785 48.2983 25.3828C48.1237 25.3863 47.1397 25.5136 47.0249 25.6172C46.9592 25.6482 46.7964 25.6536 46.7265 25.682L46.2647 25.8672C45.7436 26.0768 45.7981 25.959 45.603 26.1359C45.5055 26.224 45.2868 26.2243 45.1452 26.2648C44.8233 26.358 44.5211 26.4301 44.1905 26.45L43.2858 26.5039C42.912 26.5264 42.6132 26.6361 42.3835 26.9383C42.3214 27.0195 42.284 27.246 42.3296 27.3367C42.3702 27.4179 42.4069 27.5068 42.4319 27.6C42.5459 27.6517 42.7366 27.6318 42.8851 27.6094C43.1249 27.5732 43.3932 27.5943 43.6038 27.5211L44.0936 27.3492C44.401 27.2413 44.7285 27.1726 45.0522 27.1156C45.2455 27.082 45.3655 27.0368 45.5304 26.9289C45.6823 26.8297 45.9147 26.8005 46.0882 26.7211C46.4024 26.5778 46.7297 26.4727 47.0569 26.3734C47.1294 26.351 47.256 26.2349 47.3233 26.257C47.5044 26.3191 47.4142 26.5222 47.439 26.6328C47.584 27.2759 47.9815 27.5646 48.1413 28.2016C48.1733 28.3285 48.1852 28.4359 48.0936 28.5187C48.0211 28.5843 47.907 28.5875 47.7991 28.5297C47.713 28.4845 47.6355 28.5979 47.5726 28.6094L47.1843 28.6797C47.0592 28.7022 46.9141 28.7476 46.846 28.7977L46.8671 28.8805C46.3051 28.9124 46.506 29.0091 45.9968 29.1352C45.7387 29.4873 45.6589 29.2336 45.4397 29.3836C45.1453 29.5856 44.8032 29.6679 44.4397 29.6852C44.2085 29.6956 43.9608 29.842 43.7296 29.8766L43.6085 29.8953C43.5291 29.9074 43.7608 30.3981 44.0819 30.393C44.1957 30.3913 44.3464 30.4113 44.4413 30.3898L45.1296 30.2367C45.2375 30.2126 45.4629 30.287 45.5476 30.2172L45.8226 29.993C45.8295 29.9351 45.8432 29.8486 45.8804 29.8391C46.1674 29.7641 45.8526 29.9055 46.1874 29.8055L47.0827 29.5367C47.1397 29.5194 47.2314 29.5903 47.2452 29.643C47.3134 29.9054 47.4662 30.0747 47.6319 30.2672C47.8072 30.4718 47.9634 30.6265 48.2155 30.7344C48.2914 30.7663 48.3484 30.9274 48.3304 31C48.314 31.0673 48.1949 31.1792 48.1241 31.1836C47.8902 31.1965 47.7606 31.2894 47.5733 31.393C47.4499 31.462 47.3516 31.5134 47.2515 31.6023C47.0002 31.8268 46.6456 31.9095 46.3624 32.0805C46.2968 32.1202 46.1999 32.1994 46.1249 32.2555C46.057 32.3066 46.1013 32.5202 46.153 32.5945C46.33 32.6645 46.5754 32.6567 46.7429 32.5781L47.8358 32.0656C48.0602 31.9603 48.2405 31.8127 48.2976 31.5461C48.3934 31.515 48.5917 31.5099 48.6694 31.5625C48.8534 31.9475 49.306 32.3144 49.6694 32.5328C49.7264 32.7159 49.805 33.0865 49.7186 33.2289C49.6753 33.2996 49.5439 33.3445 49.4413 33.3945L49.114 33.5523C49.0622 33.5777 49.0078 33.6917 48.9647 33.7719L49.4749 33.8953C49.5992 34.1733 49.8485 34.3604 50.1671 34.3656C50.2283 34.4225 50.2832 34.4807 50.3452 34.5195L50.8655 34.8398C50.8847 34.8509 51.0352 34.8453 50.9999 34.743C50.9576 34.6203 51.0025 34.3895 51.0983 34.2695C51.2277 34.1073 51.242 33.9772 51.2515 33.7719C51.267 33.4386 51.2754 33.1121 51.2616 32.7719L51.2358 32.1406L51.2155 31.4836L51.2233 30.9187L51.2718 29.3758C51.2873 28.8631 51.2746 28.3712 51.278 27.8594L51.2819 27.0219L51.321 25.093L51.3444 23.7633C51.3522 23.3126 51.3308 22.9004 51.2772 22.4523C51.2238 22.0044 51.2908 21.5581 51.3124 21.1102L51.378 19.7594C51.4108 19.0895 51.4559 18.4325 51.4499 17.7617C51.4464 17.3767 51.4106 17.0045 51.4296 16.6117L51.4983 15.2008C51.5165 14.8192 51.5362 14.4599 51.5241 14.0766L51.4835 12.75L51.5702 10.9117C51.6203 9.83593 51.5709 8.78039 51.6296 7.70547C51.6434 7.44411 51.6407 7.19565 51.639 6.93516L51.6327 6.00078L51.678 5.64297C51.6935 5.51951 51.6976 5.33571 51.6554 5.23906C51.5294 4.95513 51.6898 4.70398 51.6468 4.42266C51.6088 4.1766 51.4403 3.80844 51.5663 3.55547C51.6716 3.34395 51.2402 3.63798 50.7015 3.45156C50.4433 3.36177 50.1848 3.50534 49.9163 3.48203L49.2929 3.42891C49.2282 3.42349 49.1411 3.26134 49.0515 3.36172C49.0196 3.39704 48.9008 3.44557 48.8702 3.41406L48.7608 3.3C48.5831 3.42841 48.3821 3.44587 48.1897 3.33984L47.8897 3.38359C47.8518 3.38867 47.8001 3.37674 47.7382 3.36641C47.5371 3.33361 47.3152 3.34729 47.1038 3.33437C46.7171 3.31107 46.3525 3.30713 45.971 3.32266L45.4929 3.34219L45.0093 3.35625C44.7693 3.36316 44.4034 3.3463 44.128 3.33594L42.4116 3.26875L41.4483 3.31719L41.128 3.35312C41.0382 3.35571 40.8647 3.20358 40.7835 3.23984C40.6143 3.31488 40.4958 3.22245 40.3827 3.23281L39.8874 3.27734C39.7234 3.29202 39.584 3.28541 39.4311 3.34844C38.9904 3.53122 39.1152 3.28134 38.8186 3.28203H38.3897C38.0947 3.28371 37.841 3.23271 37.5468 3.26719C37.2524 3.30172 37.2142 3.27146 37.0561 3.25937C36.1627 3.19377 36.4025 3.31245 36.0522 3.3125C35.4643 3.3125 35.3277 3.20359 34.9124 3.23984L34.5179 3.27422C34.2735 3.2958 33.6981 3.24145 33.6593 3.24922C33.5567 3.26989 33.4926 3.27896 33.4038 3.28672L32.7522 3.34141C32.4993 3.36213 32.2591 3.34634 32.0226 3.34375C31.8749 3.34203 31.6565 3.40102 31.5382 3.36562C31.3983 3.32332 31.3317 3.3222 31.203 3.31875L30.1069 3.28984C29.9852 3.28639 29.8793 3.30427 29.7507 3.29219C29.5506 3.27241 29.3324 3.31552 29.1374 3.30781C28.7835 3.294 28.4491 3.30333 28.096 3.30937C27.9381 3.31196 27.8118 3.28404 27.6444 3.32109C27.5002 3.35304 27.2823 3.24186 27.139 3.26172C26.9638 3.28672 26.8075 3.28439 26.6452 3.24297C25.9177 3.33788 26.1686 3.22604 25.9194 3.21562C25.1726 3.18454 25.7785 3.10412 24.5905 3.14297L24.1733 3.15625C23.9204 3.16485 23.6292 3.04336 23.378 3.14609C22.9621 3.31606 23.2977 3.0985 22.6554 3.17187C22.5122 3.18822 22.3414 3.16019 22.1827 3.16016C22.086 3.16016 21.9001 3.3099 21.8163 3.23047C21.73 3.1485 21.6217 3.05976 21.5069 3.12187C21.248 3.26248 21.0035 3.22044 20.7265 3.22734C20.4493 3.23423 20.0054 3.21725 19.7577 3.16719C19.7136 3.15867 19.608 3.17207 19.564 3.16953L18.6483 3.11562C18.5137 3.10778 18.334 3.04355 18.2132 3.05391C18.0026 3.07201 17.8463 3.06864 17.6452 3.02031C17.501 2.98581 17.297 3.03688 17.1382 3.03516L16.1108 3.025L15.5335 3.00859C15.2702 3.00082 15.0051 3.02767 14.7452 3.00781C14.532 2.99141 14.3741 3.02293 14.2101 3.16797C14.0935 3.1956 13.8799 3.19613 13.7366 3.1875C13.6876 3.01754 13.9112 2.95952 13.8577 2.925C13.704 2.82399 13.4414 2.80864 13.2765 2.83281ZM21.8772 5.13828C22.2458 5.15809 22.6057 5.09911 22.9733 5.15L24.2257 5.19609C24.596 5.20988 24.9431 5.17773 25.3108 5.21484C26.0169 5.28561 26.1724 5.20106 26.7179 5.48672C26.8914 5.57737 27.1401 5.61153 27.3007 5.73672C27.8454 6.15965 27.6762 5.73678 28.5015 6.30391C28.9512 6.61297 29.5465 6.76017 30.0015 7.05625C30.2414 7.2125 30.4817 7.35059 30.7061 7.51719L31.2155 7.89609C31.3441 7.99189 31.4868 8.10497 31.5265 8.26719C31.5662 8.42931 31.6838 8.49291 31.7882 8.60937C32.0282 8.87874 32.2437 9.1623 32.4647 9.46016C32.5493 9.57319 32.5203 9.82152 32.578 9.94766C32.7438 10.3085 32.8882 10.6454 32.9952 11.0234L33.289 12.0562C33.3658 12.3256 33.436 12.5891 33.4593 12.8687C33.543 13.8988 33.713 15.4757 33.403 16.4617C33.1777 17.1773 32.9843 17.7327 32.6061 18.3586L32.1343 19.1414L31.6452 19.9398C31.5338 20.1212 31.3388 20.276 31.1929 20.4461C30.396 21.3742 30.4139 21.3575 29.289 21.8781L28.9452 22.0375L28.3679 22.2781L27.6796 22.5633C27.6131 22.5909 27.5062 22.6157 27.414 22.6398L27.4132 22.6367L26.9101 22.7648C26.7659 22.802 26.6098 22.8425 26.4733 22.8883C26.3492 22.9306 26.2191 23.0309 26.0726 23.0414C24.7766 23.1312 25.5722 23.304 23.9257 23.1961L22.989 23.1344L22.5202 23.0547C22.4132 23.0366 22.3123 23.0314 22.214 23.0547C21.6916 22.7352 21.6293 22.8762 20.9257 22.5672L19.8015 22.0734L19.4632 21.8531C19.1705 21.6632 18.9249 21.47 18.646 21.268L18.1093 20.8789C17.8623 20.7002 17.678 20.4536 17.4561 20.2437C17.2646 20.0625 17.0867 19.8975 16.9374 19.6766C16.8258 19.5114 16.2442 18.7371 16.2335 18.7125L15.8147 17.6602C15.7085 17.3925 15.4103 16.5424 15.3663 16.2859C15.318 16.0011 15.2899 15.7336 15.214 15.4617L15.0015 13.3633C14.9566 12.9179 14.999 12.4863 15.0413 12.0383C15.1233 11.1749 15.5148 10.4023 15.9335 9.64687C16.2046 9.15906 16.5121 8.74198 16.8436 8.30078C17.1096 7.94681 17.3408 7.58564 17.6827 7.29297L18.596 6.51172C18.7091 6.41502 18.8829 6.33918 19.0124 6.24766C19.2731 6.06294 19.5338 5.91191 19.8108 5.76172L20.4101 5.43594C20.6552 5.30298 21.1965 5.10105 21.4452 5.11484L21.8772 5.13828ZM23.7249 7.66484C23.5609 7.58887 23.4258 7.60973 23.2929 7.67187C23.1599 7.73404 22.9397 7.74565 22.8413 7.82422C22.6912 7.94501 22.6304 7.96104 22.4327 7.90234C21.8509 8.22433 21.92 8.0884 21.3311 8.35C21.0791 8.46134 20.8364 8.54621 20.6327 8.76719L20.3374 8.81797C20.3114 8.98358 20.1275 8.96792 20.0429 9.05078C19.4558 9.62838 18.9421 10.2743 18.5311 10.9961C18.3455 11.3224 18.2042 11.6713 18.0765 12.0227C17.9029 12.4975 17.8538 13.0069 17.8046 13.5094C17.745 14.1258 17.8511 14.6934 17.978 15.2805C18.0004 15.385 17.9149 15.5923 17.9546 15.7227C18.1108 16.2379 18.3286 16.6797 18.5866 17.1406C18.7558 17.4436 18.8686 17.7792 19.0913 18.0391L19.7147 18.7641C19.7985 18.8616 19.9747 18.9523 20.0835 19.0352L20.5319 19.3805C21.5861 20.1929 21.9748 20.2273 23.2319 20.5805C23.4054 20.6288 23.5958 20.7221 23.7468 20.5445L23.6452 20.4008H23.6444C23.7977 20.0099 23.449 19.7254 23.2194 19.507C23.0027 19.3015 22.8004 19.0643 22.6226 18.8234C21.8856 17.825 22.2537 18.4179 21.8015 17.3555C21.6771 17.0619 21.6632 16.7315 21.589 16.425C21.4534 15.8682 21.4459 15.9925 21.3483 15.4141L21.2265 14.693C21.173 14.3732 21.1853 13.4265 21.2569 13.1141L21.5116 12.0023C21.6826 11.2546 22.0269 10.0816 22.3835 9.40469C22.5795 9.0326 22.9979 8.71649 23.0843 8.52656C23.3518 7.93482 23.5635 8.37872 23.7249 7.66484ZM27.9038 8.6C27.5697 8.49294 27.3803 8.65495 27.1679 8.84922C27.0978 8.91301 26.9244 8.9285 26.8804 9.04844C26.8337 9.17614 26.7103 9.2125 26.5757 9.22891L26.5655 9.46719C26.0571 9.37137 25.4475 10.0212 25.1452 10.3727C24.5529 11.0608 24.348 11.4429 24.1296 12.3141L23.9921 12.8617C23.9153 13.1682 23.9542 13.4947 23.9577 13.8055C23.9646 14.3753 24.0038 14.9195 24.1515 15.4867C24.363 16.2991 24.7293 17.0634 25.2007 17.7602C25.3785 18.0226 25.6095 18.2394 25.8124 18.482C26.3821 19.1656 26.5815 18.9838 26.7749 19.2367L26.9663 19.4875L27.5358 19.382V19.3844C27.6774 19.3584 27.8214 19.1638 27.9327 19.0758C28.1598 18.8979 28.3311 18.7008 28.5288 18.4953L29.0983 17.9031L29.346 17.6195C29.548 17.3882 29.6788 17.1318 29.8186 16.8547L30.2233 16.0531C30.4012 15.7009 30.5435 15.3036 30.5944 14.9047C30.6453 14.5085 30.5948 14.1158 30.5991 13.7187C30.6034 13.3891 30.5458 13.0815 30.4983 12.7578C30.4483 12.4159 30.4088 12.0867 30.2827 11.7664L29.9405 10.8961C29.8628 10.6984 29.7341 10.5161 29.6038 10.3461C29.3992 10.0802 29.2219 9.83329 29.0311 9.54844C28.9837 9.4785 28.864 9.37121 28.7976 9.3125C28.3397 9.25361 28.594 8.82186 27.9038 8.6ZM53.0858 14.3836L53.2155 14.3852C53.237 14.385 53.2339 14.3359 53.2296 14.2773L53.0858 14.3836ZM41.4132 2.74219C41.4349 2.76128 41.5038 2.68767 41.5155 2.67422H41.5163L41.2944 2.63359L41.4132 2.74219ZM27.8624 1.72266C27.845 1.72925 27.8686 1.78036 27.8772 1.79844C27.8859 1.81657 27.9312 1.79071 27.939 1.77344C27.9467 1.7561 27.9602 1.69901 27.9413 1.70234C27.9249 1.7058 27.8745 1.71834 27.8624 1.72266ZM34.1163 0.889062H34.3171V0.809375H34.1163V0.889062ZM38.2569 0.828906L38.3569 0.889062L38.421 0.782812L38.321 0.722656L38.2569 0.828906Z" fill="black"/>
</g>
<defs>
<clipPath id="clip0_3007_1511">
<rect width="64" height="64" fill="white"/>
</clipPath>
</defs>
</svg>
