<svg width="64" height="64" viewBox="0 0 64 64" fill="none" xmlns="http://www.w3.org/2000/svg">
<path d="M33.4009 30.2511V37.2108C33.4009 40.3527 35.9479 42.8997 39.0898 42.8997H46.0502V45.8872H39.0898C35.9479 45.8872 33.401 48.4343 33.4009 51.5761V58.5365H30.4134V51.5761C30.4133 48.4344 27.8661 45.8874 24.7245 45.8872H17.7641V42.8997H24.7245C27.8662 42.8995 30.4134 40.3526 30.4134 37.2108V30.2504L33.4009 30.2511ZM19.6502 15.2004L17.9293 21.9448C17.1525 24.9891 18.9906 28.0867 22.0349 28.8636L28.7793 30.5844L28.0405 33.4795L21.2967 31.7587C18.2524 30.9819 15.1541 32.8199 14.3773 35.8643L12.6564 42.6087L9.76198 41.8698L11.4828 35.1254C12.2595 32.0811 10.4215 28.9835 7.37726 28.2066L0.632812 26.4858L1.3717 23.5913L8.11545 25.3122C11.1598 26.089 14.2574 24.2503 15.0342 21.2059L16.755 14.4629L19.6502 15.2004ZM48.9655 21.2059C49.7422 24.2502 52.8399 26.0889 55.8842 25.3122L62.6286 23.5913L63.3675 26.4858L56.6231 28.2066C53.5788 28.9834 51.7402 32.0811 52.5168 35.1254L54.2384 41.8698L51.3432 42.6087L49.6224 35.8643C48.8456 32.8199 45.748 30.9819 42.7036 31.7587L35.9592 33.4795L35.221 30.5844L41.9648 28.8636C45.0091 28.0868 46.8478 24.9891 46.071 21.9448L44.3495 15.2004L47.2446 14.4629L48.9655 21.2059ZM42.9641 7.57606L38.0418 12.4976C35.8203 14.7192 35.8203 18.3211 38.0418 20.5427L42.9641 25.4643L40.8516 27.5768L35.9293 22.6552C33.7077 20.4337 30.1058 20.4336 27.8842 22.6552L22.9627 27.5768L20.8502 25.4643L25.7717 20.5427C27.9933 18.3211 27.9933 14.7192 25.7717 12.4976L20.8502 7.57606L22.9627 5.46356L27.8842 10.3851C30.1058 12.6067 33.7077 12.6066 35.9293 10.3851L40.8516 5.46356L42.9641 7.57606Z" fill="#272727"/>
</svg>
