<svg width="64" height="64" viewBox="0 0 64 64" fill="none" xmlns="http://www.w3.org/2000/svg">
<path d="M24.2729 7.25016C24.2729 3.79829 27.0712 1 30.5231 1H57.2188C60.6706 1 63.4689 3.7983 63.4689 7.25017V33.4355C63.4689 36.8873 60.6706 39.6856 57.2188 39.6856H30.5231C27.0712 39.6856 24.2729 36.8873 24.2729 33.4355V7.25016Z" fill="#A755F6"/>
<path d="M1 7.25016C1 3.79829 3.7983 1 7.25017 1H10.0608C13.5127 1 16.311 3.7983 16.311 7.25017V33.4355C16.311 36.8873 13.5127 39.6856 10.0608 39.6856H7.25017C3.7983 39.6856 1 36.8873 1 33.4355V7.25016Z" fill="#3D82F4"/>
<path d="M1 53.8975C1 50.4456 3.7983 47.6473 7.25017 47.6473H33.6396C37.0915 47.6473 39.8898 50.4456 39.8898 53.8975V57.0143C39.8898 60.4662 37.0915 63.2645 33.6396 63.2645H7.25018C3.79831 63.2645 1 60.4662 1 57.0143V53.8975Z" fill="#EC479B"/>
<path d="M47.7495 53.8975C47.7495 50.4456 50.5478 47.6473 53.9997 47.6473H57.2186C60.6705 47.6473 63.4687 50.4456 63.4687 53.8975V57.0143C63.4687 60.4662 60.6705 63.2645 57.2186 63.2645H53.9997C50.5478 63.2645 47.7495 60.4662 47.7495 57.0143V53.8975Z" fill="#EE4345"/>
</svg>
