<svg width="64" height="64" viewBox="0 0 64 64" fill="none" xmlns="http://www.w3.org/2000/svg">
<g clip-path="url(#clip0_2996_1238)">
<path d="M20.4213 0.000239243C19.2137 -0.0153379 18.0447 0.730816 17.5126 1.93013C17.1379 2.7745 17.1498 3.68201 17.4565 4.48053C17.272 4.42141 17.0503 4.40159 16.841 4.48221C16.5976 4.576 16.4146 4.77819 16.3279 4.97357L16.3266 4.97667L15.8787 6.01162C15.8163 6.15234 15.8041 6.33204 15.8263 6.51267C15.5435 6.78434 15.2964 7.0999 15.128 7.47936C14.7702 8.28584 14.7925 9.13605 15.0847 9.89377L13.3189 9.11025C13.1235 9.02357 12.8522 8.99642 12.6088 9.09022C12.3654 9.18401 12.183 9.38594 12.0963 9.58132L11.6377 10.6152C11.551 10.8106 11.5235 11.0817 11.6173 11.3251C11.7111 11.5685 11.9131 11.7515 12.1085 11.8381L13.096 12.2762C12.9513 12.4698 12.7979 12.6565 12.696 12.8861C12.3172 13.74 12.3034 14.6578 12.6282 15.4377C12.491 15.3903 12.3343 15.3819 12.1712 15.4076C12.0068 15.1487 11.7937 14.9189 11.4961 14.7868C10.7012 14.4341 9.716 14.797 9.35824 15.6033C9.00046 16.4097 9.38131 17.3785 10.1877 17.7363C10.3651 17.815 10.5511 17.8448 10.7358 17.856C10.6214 18.018 10.482 18.1749 10.4068 18.3445C10.2886 18.6109 10.2401 18.8906 10.2224 19.1686C10.0658 19.274 9.93487 19.4083 9.87029 19.5538L9.41151 20.5877C9.35936 20.7053 9.34113 20.8507 9.34545 21.0005C9.23148 21.0978 9.13595 21.2089 9.0838 21.3264L9.04593 21.4117L8.50829 21.1732C8.3129 21.0865 8.04161 21.0594 7.7982 21.1532C7.55479 21.247 7.3718 21.4492 7.28512 21.6445L6.84288 22.6414C6.7562 22.8367 6.72917 23.1079 6.82297 23.3513C6.91678 23.5947 7.11909 23.7773 7.31446 23.864L7.8521 24.1025L7.78139 24.2619C7.72084 24.3984 7.70811 24.572 7.72658 24.7471C7.53202 24.9716 7.36436 25.2019 7.25707 25.4437C7.13886 25.7101 7.09023 25.9898 7.0726 26.2678C6.91609 26.3732 6.78502 26.5075 6.72046 26.653L6.26181 27.6869C6.19482 27.8379 6.1832 28.0335 6.21566 28.2272C6.05802 28.3327 5.92646 28.468 5.86158 28.6142L5.40293 29.6481C5.33924 29.7917 5.32718 29.9758 5.35212 30.16C5.0722 30.4283 4.82864 30.7424 4.66117 31.1199C4.32302 31.882 4.32547 32.6862 4.5668 33.4133C4.34861 33.207 4.01806 33.128 3.79699 33.1615C2.37094 33.332 1.04511 34.1908 0.427269 35.5834C0.143974 36.2219 0.04113 36.8935 0.0938293 37.5483C0.219574 39.1108 1.23163 40.5776 2.79513 41.2713C4.4777 42.0178 6.39099 41.6957 7.63919 40.5603L6.08832 44.0558L6.08792 44.0566C5.45223 45.4894 6.11857 47.2179 7.55011 47.853L7.55051 47.8533L43.3994 63.7586L43.3999 63.7587C44.8323 64.3942 46.5613 63.7291 47.197 62.2962L47.1975 62.295L63.7717 24.9385L63.7998 24.8436C64.1746 23.5931 63.6471 22.2289 62.5285 21.5557L62.4452 21.506L61.2572 20.9789L61.6333 20.1314L61.657 20.0598C62.0789 18.7916 61.5572 17.3819 60.4173 16.6927L60.3328 16.6414L27.8034 2.20872C26.5217 1.64005 25.0024 2.11372 24.2412 3.24561C24.23 2.27779 23.7769 1.43554 23.1471 0.946772C22.8881 0.745377 22.4425 0.745773 22.2252 0.85098C22.082 0.920338 22.0373 0.999603 21.9717 1.07682L21.9507 0.890538L21.94 0.844646C21.917 0.74494 21.8781 0.616755 21.7685 0.469888C21.6644 0.330252 21.4651 0.193224 21.2561 0.136627C20.9807 0.0481112 20.7 0.00383398 20.4213 0.000239243ZM20.0857 1.2702C20.0819 1.2707 20.0786 1.27263 20.0747 1.27305C20.073 1.27324 20.0697 1.2724 20.0674 1.27227L20.0857 1.2702ZM10.9681 17.5111C10.9636 17.5161 10.9625 17.5219 10.9577 17.5269C10.9547 17.5301 10.948 17.5322 10.9449 17.5354L10.9681 17.5111ZM23.3353 18.7053C23.5248 18.7088 23.7169 18.7495 23.9015 18.8315L53.9451 32.1612C54.6838 32.4889 55.0145 33.3473 54.6868 34.0859L45.5621 54.6519C45.2344 55.3906 44.3759 55.7214 43.6373 55.3937L13.5938 42.0641C12.8552 41.7364 12.5244 40.8779 12.8521 40.1393L21.9767 19.5732C22.2225 19.0193 22.7669 18.6947 23.3353 18.7053ZM7.81863 24.6098C7.81398 24.6149 7.81306 24.621 7.80803 24.6261C7.80527 24.6289 7.79936 24.6306 7.79614 24.6333L7.81863 24.6098Z" fill="#4A4A60"/>
<path d="M57.4975 32.1348L21.7139 16.2584L10.1222 42.3848L45.9058 58.2611L57.4975 32.1348Z" fill="url(#paint0_linear_2996_1238)"/>
<path d="M33.2879 26.9949C37.5543 26.4291 41.8259 28.3852 44.2831 31.8634C44.6519 32.3854 44.5277 33.1074 44.0057 33.4762C43.4838 33.845 42.7617 33.7207 42.3929 33.1988C40.4147 30.3986 36.9762 28.8404 33.5922 29.2892C28.9595 29.9037 25.468 34.2181 26.1052 38.8344C26.6787 42.9894 30.5613 46.108 34.6909 45.511C38.3694 44.9793 41.1149 41.5281 40.5589 37.8861C40.07 34.6828 37.0498 32.311 33.897 32.8246C31.1668 33.2694 29.1693 35.8591 29.6388 38.5206C30.0375 40.7807 32.1974 42.4024 34.3643 41.9801C36.1593 41.6303 37.4023 39.8995 37.0328 38.2328C36.7359 36.8938 35.4338 36.036 34.2775 36.3416C33.3746 36.5802 32.9209 37.452 33.1345 38.0761C33.1935 38.2485 33.3407 38.4264 33.508 38.5195C33.6535 38.6004 33.725 38.5785 33.7724 38.5533C34.3369 38.2538 35.0374 38.4686 35.337 39.0332C35.6365 39.5977 35.4217 40.2982 34.8572 40.5978C33.9816 41.0623 33.0679 40.9231 32.3827 40.5418C31.7194 40.1727 31.1905 39.5434 30.9448 38.8255C30.184 36.6021 31.8462 34.5903 33.6861 34.1041C36.3539 33.399 38.7677 35.3659 39.2922 37.7319C39.9856 40.8593 37.6798 43.6919 34.807 44.2518C31.2123 44.9522 27.9543 42.2936 27.3597 38.9227C26.6424 34.8563 29.6604 31.1699 33.5248 30.5403C38.0655 29.8005 42.182 33.1818 42.8468 37.5368C43.6126 42.5536 39.8658 47.1014 35.0221 47.8016C29.528 48.5958 24.5484 44.4819 23.8126 39.1508C22.9883 33.1785 27.4703 27.7665 33.2879 26.9949Z" fill="#50506A"/>
<path d="M25.4331 4.30574C25.7287 3.63949 26.5031 3.34137 27.1694 3.6368L59.6089 18.0294C60.132 18.3457 60.3692 18.983 60.1753 19.5665L59.3696 21.3809C59.3468 21.4323 59.3349 21.4879 59.3335 21.544C59.3321 21.6003 59.3416 21.6566 59.3618 21.7091C59.382 21.7616 59.4128 21.8099 59.4516 21.8507C59.4904 21.8913 59.537 21.9236 59.5883 21.9464L61.7231 22.8936C62.2367 23.2027 62.4752 23.8217 62.3032 24.3956L62.2407 24.5343L59.1206 23.1505C58.8733 23.0409 58.5597 23.2065 58.4204 23.5206C58.2948 23.8275 58.3908 24.1535 58.6342 24.2481L61.7544 25.6319L61.3296 26.588L58.8813 25.502C58.634 25.3924 58.3205 25.5589 58.1811 25.8731C58.0558 26.1798 58.1509 26.505 58.394 26.5997L60.8432 27.6866L60.4184 28.6417L57.2983 27.2579C57.051 27.1483 56.7375 27.3148 56.5981 27.629C56.4728 27.9356 56.5679 28.2608 56.811 28.3555L59.9321 29.7403L47.061 58.7511L47.06 58.752C46.7825 59.3756 46.0853 59.6768 45.4506 59.4688L45.3247 59.42L9.47604 43.5147C8.81042 43.219 8.51213 42.4453 8.80709 41.7794V41.7784L25.4331 4.30574ZM23.9018 18.8311C23.1632 18.5034 22.3048 18.8348 21.977 19.5733L12.852 40.1397C12.5246 40.8783 12.8557 41.7369 13.5942 42.0645L43.6372 55.3936C44.3757 55.7213 45.2341 55.3908 45.562 54.6524L54.687 34.086C55.0146 33.3474 54.6834 32.4889 53.9448 32.1612L23.9018 18.8311ZM33.1206 10.0899C30.9795 9.14015 28.4739 10.1052 27.5239 12.2462C26.5739 14.3873 27.54 16.8939 29.6811 17.8438L50.7993 27.213C52.9403 28.1629 55.4459 27.1976 56.396 25.0567C57.3459 22.9156 56.3808 20.409 54.2397 19.4591L33.1206 10.0899ZM21.6792 12.7677L24.7993 14.1524C25.0466 14.2621 25.3601 14.0965 25.4995 13.7823C25.625 13.4755 25.5298 13.1505 25.2866 13.0557L22.1655 11.671L21.6792 12.7677ZM22.5903 10.7139L25.0395 11.8009C25.2867 11.9102 25.6004 11.7447 25.7397 11.4307C25.8653 11.1238 25.7693 10.7978 25.5258 10.7032L23.0766 9.61727L22.5903 10.7139ZM23.5014 8.66023L26.6215 10.045C26.8687 10.1547 27.1822 9.9888 27.3217 9.67488C27.4474 9.36794 27.3523 9.042 27.1089 8.94734L23.9887 7.56258L23.5014 8.66023Z" fill="#C2C2CC"/>
<path d="M54.306 33.917C54.5394 33.3909 54.3022 32.7753 53.7761 32.5419L23.7326 19.2122C23.2065 18.9789 22.5909 19.2162 22.3575 19.7422L13.2328 40.3082C12.9994 40.8343 13.2367 41.4499 13.7627 41.6833L43.8063 55.0129C44.3323 55.2463 44.9479 55.0091 45.1813 54.483L54.306 33.917ZM45.9429 54.8209C45.5229 55.7676 44.415 56.1945 43.4684 55.7745L13.4248 42.4449C12.4782 42.0249 12.0513 40.917 12.4713 39.9704L21.596 19.4043C22.016 18.4577 23.1238 18.0307 24.0704 18.4507L54.114 31.7803C55.0607 32.2003 55.4876 33.3082 55.0676 34.2549L45.9429 54.8209Z" fill="#4A4A60"/>
<path d="M7.85575 38.8793C8.53974 37.3376 7.86307 35.8994 7.03517 35.3001C7.00234 35.2744 6.96749 35.3032 6.93369 35.3545L6.42256 36.2326C6.39285 36.2746 6.39494 36.3197 6.4288 36.3679C6.86397 36.9808 7.07155 37.6585 6.76846 38.3416C6.29335 39.4125 4.86624 39.84 3.67538 39.3116C2.49376 38.7874 1.8438 37.4383 2.31891 36.3675C2.58923 35.7582 3.15808 35.3477 3.79375 35.2099C3.8522 35.2026 3.89114 35.1647 3.89316 35.1103L4.02169 34.0735C4.02781 34.01 3.99393 33.9618 3.92216 33.9741C2.74814 34.1051 1.67702 34.801 1.18143 35.918C0.415524 37.6443 1.29255 39.7018 3.12961 40.5168C4.97589 41.336 7.08984 40.6056 7.85575 38.8793ZM10.216 33.5845C10.4453 33.0676 10.4798 32.5415 10.3534 32.0545C10.3369 31.992 10.3903 31.9714 10.4457 31.996L10.6303 32.0779C10.6857 32.1025 10.739 32.082 10.7636 32.0266L11.2223 30.9927C11.2468 30.9373 11.2263 30.884 11.1709 30.8594L6.74908 28.8975C6.69369 28.8729 6.64038 28.8935 6.6158 28.9489L6.15708 29.9828C6.1325 30.0382 6.15304 30.0915 6.20843 30.1161L6.47615 30.2348C6.54077 30.2635 6.54285 30.3086 6.48134 30.3476C6.0303 30.5674 5.64088 30.947 5.41562 31.4547C4.84221 32.7471 5.46759 34.1516 6.78769 34.7373C8.16317 35.3475 9.60978 34.9508 10.216 33.5845ZM9.18912 32.9853C8.87375 33.6961 8.05254 33.9284 7.35095 33.6171C6.65859 33.31 6.22849 32.6109 6.57663 31.8262C6.8961 31.1062 7.67623 30.7673 8.4609 31.1154C9.2548 31.4677 9.50859 32.2653 9.18912 32.9853ZM11.6319 30.0695L12.0906 29.0356C12.1151 28.9802 12.0946 28.9269 12.0392 28.9023L10.2668 28.1159C9.37135 27.7186 8.81727 27.1745 9.11217 26.5098C9.16131 26.3991 9.22894 26.2965 9.32937 26.2195C9.38164 26.1764 9.39802 26.1395 9.34568 26.0831L8.54528 25.1977C8.49808 25.1546 8.44784 25.1434 8.4048 25.1906C8.24493 25.3517 8.09742 25.5845 8.01141 25.7784C7.83939 26.1661 7.83659 26.5958 7.9722 26.9874C7.98455 27.0592 7.95893 27.092 7.89431 27.0633L7.60814 26.9364C7.55275 26.9118 7.49944 26.9323 7.47487 26.9877L7.01614 28.0216C6.99157 28.077 7.01211 28.1303 7.0675 28.1549L11.4986 30.1209C11.554 30.1454 11.6073 30.1249 11.6319 30.0695ZM8.03975 21.9792L7.59741 22.9762C7.57283 23.0316 7.59337 23.0849 7.64876 23.1094L8.86731 23.6501C8.91347 23.6706 8.92887 23.7105 8.90839 23.7567L8.53568 24.5968C8.51111 24.6522 8.53165 24.7055 8.58704 24.73L9.39017 25.0864C9.44556 25.1109 9.49887 25.0904 9.52344 25.035L9.89616 24.195C9.91664 24.1488 9.95662 24.1334 10.0028 24.1539L13.4646 25.6898C13.5199 25.7143 13.5733 25.6938 13.5978 25.6384L14.0402 24.6414C14.0647 24.586 14.0442 24.5327 13.9888 24.5082L10.527 22.9722C10.4809 22.9518 10.4655 22.9118 10.4859 22.8656L10.8259 22.0994C10.8505 22.044 10.8299 21.9907 10.7745 21.9662L9.9714 21.6098C9.91602 21.5853 9.86271 21.6058 9.83813 21.6612L9.49819 22.4274C9.4777 22.4735 9.43773 22.4889 9.39157 22.4685L8.17302 21.9278C8.11763 21.9033 8.06432 21.9238 8.03975 21.9792ZM14.7815 22.9705L15.2402 21.9366C15.2648 21.8812 15.2443 21.8279 15.1889 21.8033L13.4164 21.017C12.521 20.6197 11.9669 20.0755 12.2618 19.4109C12.311 19.3001 12.3786 19.1975 12.479 19.1205C12.5313 19.0774 12.5477 19.0405 12.4953 18.9841L11.6949 18.0987C11.6477 18.0557 11.5975 18.0444 11.5544 18.0916C11.3946 18.2527 11.2471 18.4856 11.1611 18.6794C10.989 19.0672 10.9862 19.4968 11.1218 19.8884C11.1342 19.9602 11.1086 19.993 11.044 19.9644L10.7578 19.8374C10.7024 19.8128 10.6491 19.8334 10.6245 19.8887L10.1658 20.9227C10.1412 20.9781 10.1618 21.0314 10.2171 21.0559L14.6482 23.0219C14.7036 23.0465 14.7569 23.0259 14.7815 22.9705ZM16.3911 19.3426L16.8499 18.3087C16.8744 18.2533 16.8539 18.2 16.7985 18.1754L12.3674 16.2094C12.312 16.1849 12.2587 16.2054 12.2342 16.2608L11.7754 17.2947C11.7509 17.3501 11.7714 17.4034 11.8268 17.428L16.2579 19.3939C16.3133 19.4185 16.3666 19.398 16.3911 19.3426ZM11.5617 16.5811C11.7378 16.1842 11.5581 15.7177 11.1611 15.5416C10.7549 15.3614 10.2926 15.5319 10.1124 15.9381C9.93624 16.3351 10.116 16.8015 10.5222 16.9817C10.9191 17.1578 11.3856 16.9781 11.5617 16.5811ZM18.2507 15.3505C18.4801 14.8335 18.4962 14.2992 18.3605 13.8082C18.3441 13.7456 18.3789 13.7169 18.4435 13.7455L18.7112 13.8643C18.7666 13.8889 18.8199 13.8684 18.8445 13.813L19.3032 12.779C19.3278 12.7237 19.3073 12.6704 19.2519 12.6458L12.9837 9.86475C12.9284 9.84019 12.875 9.86072 12.8505 9.91611L12.3917 10.95C12.3672 11.0054 12.3877 11.0587 12.4431 11.0833L14.474 11.9844C14.5294 12.0089 14.5407 12.0582 14.4792 12.0972C14.0466 12.3251 13.6757 12.7129 13.4504 13.2207C12.8442 14.5869 13.4562 15.897 14.8225 16.5032C16.198 17.1134 17.6446 16.7167 18.2507 15.3505ZM17.1962 14.739C16.8849 15.4405 16.1335 15.7148 15.3488 15.3667C14.5549 15.0144 14.2684 14.2907 14.5837 13.5799C14.9032 12.8598 15.6649 12.5127 16.4588 12.865C17.2434 13.2131 17.5157 14.0189 17.1962 14.739ZM20.6886 11.1508L21.2593 12.0559C21.289 12.1133 21.3485 12.1286 21.4008 12.0855C23.0181 10.7812 23.9824 8.25906 21.2499 7.04672L17.2158 5.25687C17.1604 5.23229 17.1071 5.25283 17.0825 5.30822L16.633 6.34624C16.6085 6.40163 16.629 6.45494 16.6844 6.47951L16.9429 6.59419C17.0075 6.62286 17.0096 6.66798 16.9388 6.70289C16.4837 6.93185 16.1076 7.30637 15.8823 7.8141C15.3007 9.12496 15.9435 10.515 17.3375 11.1335C18.7314 11.7519 20.1103 11.2589 20.6919 9.948C20.9172 9.44027 20.9558 8.90497 20.8345 8.4313C20.8221 8.35953 20.8385 8.32261 20.8754 8.33899C22.2694 8.95745 21.7904 10.4354 20.7274 11.0134C20.6608 11.0391 20.6588 11.0934 20.6886 11.1508ZM19.6928 9.36107C19.3897 10.0442 18.5459 10.2775 17.8628 9.97442C17.1796 9.67133 16.7956 8.89328 17.0987 8.21016C17.41 7.50857 18.1891 7.14712 18.9645 7.49116C19.74 7.83521 20.004 8.65948 19.6928 9.36107ZM23.1862 4.32606C23.7105 3.14444 23.2401 2.06292 22.64 1.59776C22.6071 1.57215 22.5631 1.59679 22.5292 1.64808L22.014 2.43593C21.9843 2.47799 21.9863 2.52311 22.0202 2.57128C22.3066 2.99665 22.3458 3.45601 22.141 3.91758C22.0304 4.16683 21.9178 4.37097 21.6256 4.50651C21.5682 4.53628 21.5262 4.50657 21.5189 4.44813L21.1353 1.02962C21.124 0.980405 21.0993 0.936327 21.0491 0.92508C20.0152 0.56582 18.7666 1.13881 18.267 2.26504C17.6772 3.59436 18.2831 5.06751 19.6401 5.66958C21.0064 6.27576 22.5923 5.66461 23.1862 4.32606ZM20.2562 2.1643L20.5233 4.52567C20.5305 4.58412 20.5049 4.61694 20.4454 4.6016C19.5829 4.42886 19.0871 3.5791 19.3461 2.82115C19.4975 2.38012 19.8204 2.12561 20.167 2.09155C20.2254 2.08434 20.2449 2.11508 20.2562 2.1643Z" fill="url(#paint1_linear_2996_1238)"/>
</g>
<defs>
<linearGradient id="paint0_linear_2996_1238" x1="33.8352" y1="56.8335" x2="33.7845" y2="17.686" gradientUnits="userSpaceOnUse">
<stop stop-color="#FFC753"/>
<stop offset="0.723837" stop-color="#FF755F"/>
<stop offset="1" stop-color="#FF3CAF"/>
</linearGradient>
<linearGradient id="paint1_linear_2996_1238" x1="2.66408" y1="40.372" x2="30.7085" y2="-22.8372" gradientUnits="userSpaceOnUse">
<stop stop-color="#FFC753"/>
<stop offset="0.425418" stop-color="#FF755F"/>
<stop offset="1" stop-color="#FF3CAF"/>
</linearGradient>
<clipPath id="clip0_2996_1238">
<rect width="64" height="64" fill="white"/>
</clipPath>
</defs>
</svg>
