<svg width="64" height="64" viewBox="0 0 64 64" fill="none" xmlns="http://www.w3.org/2000/svg">
<path d="M24.039 38.117L18.6336 54.6801L17.3527 54.2621L22.7573 37.6991L24.039 38.117ZM51.9996 49.9913L51.3216 51.1562L26.9546 36.9808L27.6318 35.8168L51.9996 49.9913ZM53.0313 22.8489L27.0521 34.854L26.4871 33.6311L52.4663 21.626L53.0313 22.8489ZM21.9624 33.2619L21.6714 34.5777L12.3389 32.5135L12.6299 31.1977L21.9624 33.2619ZM33.1301 8.70219L25.6249 32.5057L24.3401 32.1009L31.8445 8.29663L33.1301 8.70219Z" fill="#146CBF"/>
<path d="M17.3555 53.5199C19.8104 53.5199 21.8004 55.51 21.8004 57.9649C21.8003 60.4196 19.8103 62.4098 17.3555 62.4098C14.9007 62.4098 12.9107 60.4196 12.9106 57.9649C12.9106 55.51 14.9006 53.5199 17.3555 53.5199ZM54.1471 47.5046C56.6019 47.5046 58.592 49.4947 58.592 51.9495C58.592 54.4044 56.6019 56.3945 54.1471 56.3945C51.6922 56.3945 49.7021 54.4044 49.7021 51.9495C49.7021 49.4947 51.6922 47.5046 54.1471 47.5046ZM24.5055 30.1614C26.9603 30.1614 28.9504 32.1515 28.9504 34.6064C28.9504 37.0612 26.9603 39.0513 24.5055 39.0513C22.0506 39.0513 20.0605 37.0612 20.0605 34.6064C20.0605 32.1515 22.0506 30.1614 24.5055 30.1614ZM9.23497 26.7529C11.6898 26.7529 13.6798 28.743 13.6799 31.1978C13.6799 33.6526 11.6898 35.6427 9.23497 35.6427C6.7801 35.6427 4.79004 33.6526 4.79004 31.1978C4.79009 28.743 6.78013 26.7529 9.23497 26.7529ZM54.7647 17.0287C57.2196 17.0287 59.2096 19.0187 59.2096 21.4736C59.2096 23.9284 57.2196 25.9185 54.7647 25.9185C52.3098 25.9185 50.3198 23.9284 50.3198 21.4736C50.3198 19.0187 52.3098 17.0287 54.7647 17.0287ZM33.3953 1.59021C35.8502 1.59021 37.8402 3.58027 37.8402 6.03514C37.8402 8.48996 35.8501 10.4801 33.3953 10.4801C30.9405 10.4801 28.9504 8.48996 28.9504 6.03514C28.9504 3.58027 30.9404 1.59021 33.3953 1.59021Z" fill="#FFD222"/>
</svg>
