<svg width="64" height="64" viewBox="0 0 64 64" fill="none" xmlns="http://www.w3.org/2000/svg">
<path fill-rule="evenodd" clip-rule="evenodd" d="M6.55073 43.9803C4.40603 48.2313 2.79904 50.9959 1.24643 54.9631C0.0342651 58.0604 1.49812 61.5798 4.516 62.8238C7.53388 64.0679 10.963 62.5655 12.1752 59.4682C12.4821 58.6841 12.7778 57.9117 13.0635 57.1656L13.0662 57.1586C14.1542 54.3172 15.0925 51.8859 16.2277 49.696C17.5062 49.6248 18.968 49.6139 20.6163 49.6044L20.8234 49.6032C23.8295 49.5862 27.4512 49.5658 30.5743 48.9171C33.6991 48.268 37.5663 46.7334 39.2758 42.6231C39.7386 41.5105 40.2079 39.868 39.797 38.1997C39.9203 38.1995 40.0466 38.1995 40.1763 38.1995C40.2457 38.1995 40.3164 38.1996 40.3884 38.1996C42.0376 38.2007 44.3583 38.2023 46.4329 37.6231C48.8535 36.9473 51.3989 35.347 52.5156 31.9759C52.9191 30.7579 52.9939 29.4787 52.6456 28.2697C52.7523 28.2504 52.8618 28.2306 52.9741 28.2104C53.0281 28.2007 53.0829 28.1909 53.1384 28.181C54.5559 27.9267 56.4533 27.5864 58.0742 26.964C59.651 26.3586 62.2419 25.0061 63.0182 21.9065C63.4607 20.1397 63.4143 18.2693 62.4203 16.5802C62.0069 15.8778 61.4811 15.3248 61.0145 14.917C61.4491 14.359 62.0017 13.5826 62.3822 12.7261C63.0425 11.2401 63.383 9.05669 62.0324 6.92043C60.4994 4.49588 57.8707 4.07233 56.5705 3.9626C55.2183 3.84849 53.7648 3.97039 52.7202 4.06726C52.5784 3.71065 52.3831 3.33564 52.1131 2.96553C50.6631 0.978079 48.4138 0.811038 47.1478 0.84598C44.59 0.916577 42.5895 2.08138 41.1434 3.28949C40.3844 3.92353 38.5783 6.51586 37.9874 7.19013C37.9874 4.77234 35.7179 3.54186 34.1223 3.28949C31.0243 2.79949 29.1055 4.84686 27.3216 7.19013C25.098 10.1111 23.3765 13.8707 21.3425 16.6956C20.6414 16.2275 19.8115 15.1323 18.4842 15.1955C16.2974 15.2998 14.8446 16.8212 13.9046 17.8623C12.2687 19.674 11.2279 22.9655 10.5193 25.416C9.74909 28.9617 9.22375 30.4568 8.59964 34.3441C8.22849 36.6559 8.04033 38.4802 8.04033 41.0617C7.61453 41.9181 7.12719 42.8377 6.55073 43.9803Z" fill="#639431"/>
<path fill-rule="evenodd" clip-rule="evenodd" d="M19.2008 18.3465C19.8408 18.9236 20.591 19.6 22.2093 19.0222C23.2674 18.6443 24.6349 16.1829 26.1607 13.4364C28.3909 9.42175 30.9595 4.79822 33.3947 5.18339C36.3322 5.648 36.1514 7.31696 36.0123 8.60062C35.9147 9.50101 35.8377 10.2118 36.8717 10.1845C37.925 10.1567 38.95 8.88633 40.1396 7.41205C41.7827 5.37561 43.7397 2.9502 46.5184 2.8735C48.4776 2.81943 48.4467 3.68589 48.4153 4.56459C48.3953 5.12623 48.3751 5.69287 48.8743 6.0273C49.366 6.35676 50.6026 6.24164 52.0241 6.10929C54.3031 5.89711 57.0576 5.64068 57.9808 7.10087C58.7924 8.38458 57.7584 9.66046 56.7672 10.8834C55.9277 11.9192 55.119 12.917 55.4887 13.8494C55.7904 14.6101 56.4096 15.0387 57.0167 15.4589C58.0095 16.146 58.9696 16.8106 58.4541 18.8686C57.9091 21.0447 54.6301 21.6341 51.5566 22.1865C48.9818 22.6493 46.5511 23.0862 45.9928 24.4083C45.6426 25.2376 46.2235 25.6237 46.8743 26.0564C47.652 26.5734 48.5296 27.1568 48.0375 28.6422C46.8872 32.1146 43.0458 32.1147 39.4406 32.1147C36.3461 32.1148 33.4256 32.1148 32.5301 34.3107C32.0132 35.5786 32.7956 35.8024 33.6541 36.0479C34.705 36.3485 35.8699 36.6817 34.9047 39.0025C33.0576 43.4437 26.1666 43.4834 19.8584 43.5197C17.5454 43.533 15.3108 43.5459 13.4318 43.7751C13.2174 43.8012 13.0271 43.9276 12.9147 44.1169C11.1858 47.0285 9.95955 50.2309 8.65157 53.6469C8.36422 54.3973 8.07293 55.1581 7.7715 55.9283C7.37302 56.9465 6.24574 57.4403 5.25365 57.0314C4.26156 56.6224 3.78034 55.4655 4.17882 54.4473C5.66297 50.655 7.37517 47.1677 9.24738 43.9665C12.3028 38.1918 18.3258 31.1069 24.6951 25.7843C30.3622 20.9419 35.7741 17.3174 42.0728 14.5671C42.8612 14.2228 42.6272 13.2765 41.8041 13.5206C36.2177 15.1775 31.2794 18.4639 26.1607 21.7758C20.5933 25.3781 15.9278 30.2494 13.0568 33.791C12.5506 34.4155 11.4436 33.902 11.6029 33.1063C12.8498 26.8815 14.1367 21.169 16.0232 19.0797C17.8142 17.0962 18.427 17.6488 19.2008 18.3465Z" fill="#D9EA72"/>
</svg>
