<svg width="16" height="16" viewBox="0 0 16 16" fill="none" xmlns="http://www.w3.org/2000/svg">
<path fill-rule="evenodd" clip-rule="evenodd" d="M1.46774 10.9771C0.918394 12.0381 0.506774 12.728 0.109083 13.7182C-0.201403 14.4912 0.173553 15.3695 0.946561 15.68C1.71957 15.9905 2.59792 15.6155 2.9084 14.8425C2.98701 14.6468 3.06277 14.454 3.13595 14.2678L3.13663 14.2661C3.41531 13.5569 3.65566 12.9502 3.94643 12.4036C4.2739 12.3859 4.64833 12.3831 5.07053 12.3808L5.1236 12.3805C5.89358 12.3762 6.82124 12.3711 7.6212 12.2092C8.42161 12.0472 9.41217 11.6642 9.85004 10.6384C9.96857 10.3607 10.0888 9.95081 9.98353 9.53443C10.0151 9.53439 10.0475 9.53438 10.0807 9.53438C10.0985 9.53438 10.1166 9.53439 10.135 9.53441C10.5574 9.53469 11.1519 9.53508 11.6833 9.39053C12.3033 9.22186 12.9553 8.82246 13.2413 7.98113C13.3447 7.67713 13.3638 7.35788 13.2746 7.05616C13.3019 7.05133 13.33 7.0464 13.3588 7.04136C13.3726 7.03894 13.3866 7.03649 13.4008 7.034C13.7639 6.97055 14.2499 6.88561 14.6651 6.73029C15.069 6.5792 15.7326 6.24165 15.9315 5.46804C16.0448 5.02711 16.0329 4.56031 15.7783 4.13874C15.6725 3.96345 15.5378 3.82544 15.4183 3.72365C15.5296 3.58438 15.6711 3.39062 15.7686 3.17686C15.9377 2.80598 16.0249 2.26106 15.679 1.72791C15.2863 1.1228 14.613 1.01709 14.2799 0.989706C13.9336 0.961226 13.5613 0.991648 13.2937 1.01583C13.2574 0.926825 13.2074 0.833231 13.1382 0.740863C12.7668 0.244843 12.1907 0.203154 11.8664 0.211875C11.2112 0.229494 10.6988 0.5202 10.3284 0.821713C10.134 0.979955 9.67138 1.62694 9.52003 1.79522C9.52003 1.1918 8.93871 0.8847 8.53 0.821713C7.73648 0.699421 7.24499 1.2104 6.78806 1.79522C6.21848 2.52422 5.77755 3.46253 5.25654 4.16754C5.07697 4.05073 4.8644 3.77737 4.52443 3.79316C3.96427 3.81918 3.59216 4.19889 3.35137 4.45872C2.93236 4.91088 2.66575 5.73235 2.48427 6.34394C2.28698 7.22886 2.15242 7.60199 1.99256 8.57217C1.89749 9.14914 1.84929 9.60442 1.84929 10.2487C1.74023 10.4624 1.6154 10.692 1.46774 10.9771Z" fill="#639431"/>
<path fill-rule="evenodd" clip-rule="evenodd" d="M4.71377 4.77954C4.8745 4.92076 5.06289 5.08628 5.4693 4.94488C5.73503 4.85243 6.07844 4.25012 6.46162 3.57808C7.02171 2.59574 7.66676 1.4644 8.27832 1.55864C9.016 1.67233 8.97059 2.08071 8.93567 2.39481C8.91117 2.61513 8.89183 2.78907 9.1515 2.78239C9.41601 2.77558 9.67343 2.46472 9.97216 2.10398C10.3848 1.60568 10.8763 1.0122 11.5741 0.993432C12.0661 0.980201 12.0583 1.19222 12.0505 1.40723C12.0454 1.54466 12.0403 1.68331 12.1657 1.76514C12.2892 1.84576 12.5998 1.81759 12.9567 1.7852C13.5291 1.73329 14.2208 1.67054 14.4526 2.02784C14.6565 2.34195 14.3968 2.65415 14.1479 2.95338C13.9371 3.20684 13.734 3.451 13.8268 3.67915C13.9026 3.8653 14.0581 3.97017 14.2105 4.07297C14.4598 4.24111 14.701 4.40372 14.5715 4.90731C14.4347 5.43978 13.6112 5.58399 12.8393 5.71917C12.1927 5.83241 11.5823 5.93931 11.4421 6.26283C11.3542 6.46574 11.5 6.56023 11.6635 6.66609C11.8588 6.7926 12.0791 6.93536 11.9556 7.29882C11.6667 8.1485 10.702 8.14852 9.79662 8.14853C9.01949 8.14854 8.28606 8.14855 8.06119 8.68586C7.93136 8.9961 8.12786 9.05086 8.34346 9.11095C8.60737 9.18451 8.89991 9.26604 8.65751 9.83392C8.19365 10.9206 6.46312 10.9303 4.87893 10.9392C4.29806 10.9425 3.73687 10.9456 3.26501 11.0017C3.21115 11.0081 3.16338 11.039 3.13515 11.0854C2.70096 11.7978 2.39301 12.5814 2.06453 13.4173C1.99237 13.6009 1.91922 13.787 1.84352 13.9755C1.74345 14.2247 1.46035 14.3455 1.21121 14.2454C0.962064 14.1454 0.841215 13.8623 0.941286 13.6131C1.314 12.6852 1.74399 11.8319 2.21416 11.0486C2.98147 9.63554 4.49404 7.90192 6.09356 6.59953C7.51676 5.41463 8.87585 4.52774 10.4577 3.85476C10.6557 3.77052 10.5969 3.53896 10.3902 3.5987C8.98726 4.00412 7.74709 4.80828 6.46162 5.61868C5.06347 6.50012 3.89181 7.69209 3.17082 8.55871C3.04369 8.71151 2.76569 8.58586 2.80572 8.39116C3.11885 6.86801 3.44203 5.4702 3.91578 4.95897C4.36556 4.47361 4.51946 4.60882 4.71377 4.77954Z" fill="#D9EA72"/>
</svg>
