<svg width="32" height="32" viewBox="0 0 32 32" fill="none" xmlns="http://www.w3.org/2000/svg">
<path fill-rule="evenodd" clip-rule="evenodd" d="M2.93245 21.9481C1.83489 24.0678 1.0125 25.4463 0.217941 27.4245C-0.402389 28.9689 0.346746 30.7238 1.89116 31.3441C3.43558 31.9644 5.19046 31.2153 5.81079 29.6709C5.96784 29.2799 6.11919 28.8947 6.2654 28.5227L6.26677 28.5192C6.82355 27.1024 7.30375 25.8901 7.88468 24.7981C8.53896 24.7626 9.28704 24.7572 10.1306 24.7524L10.2366 24.7519C11.775 24.7434 13.6284 24.7332 15.2266 24.4097C16.8258 24.086 18.8049 23.3209 19.6797 21.2713C19.9165 20.7166 20.1567 19.8976 19.9464 19.0657C20.0095 19.0656 20.0742 19.0656 20.1405 19.0656C20.176 19.0656 20.2122 19.0656 20.2491 19.0656C21.093 19.0662 22.2807 19.067 23.3424 18.7782C24.5811 18.4412 25.8838 17.6432 26.4552 15.9623C26.6617 15.3549 26.7 14.7171 26.5217 14.1143C26.5764 14.1046 26.6324 14.0948 26.6899 14.0847C26.7175 14.0799 26.7455 14.075 26.774 14.07C27.4994 13.9432 28.4704 13.7735 29.2999 13.4632C30.1068 13.1613 31.4327 12.4869 31.83 10.9413C32.0564 10.0604 32.0327 9.12773 31.524 8.28547C31.3125 7.93525 31.0434 7.6595 30.8046 7.45615C31.027 7.17789 31.3098 6.79077 31.5045 6.36369C31.8424 5.6227 32.0167 4.534 31.3255 3.46879C30.541 2.25982 29.1957 2.04863 28.5303 1.99391C27.8383 1.93701 27.0945 1.99779 26.5599 2.0461C26.4874 1.86828 26.3874 1.68129 26.2492 1.49674C25.5072 0.50573 24.3561 0.422438 23.7082 0.439861C22.3993 0.475063 21.3755 1.05587 20.6354 1.65828C20.247 1.97443 19.3228 3.26705 19.0203 3.60327C19.0203 2.39768 17.8589 1.78412 17.0424 1.65828C15.4569 1.41394 14.475 2.43484 13.5621 3.60327C12.4241 5.05976 11.5431 6.93444 10.5022 8.34301C10.1434 8.10962 9.71874 7.56348 9.03949 7.59503C7.92034 7.64701 7.17689 8.40564 6.69581 8.92477C5.85866 9.82815 5.32599 11.4694 4.9634 12.6913C4.56923 14.4593 4.30038 15.2048 3.98099 17.1432C3.79105 18.2959 3.69476 19.2055 3.69476 20.4928C3.47685 20.9198 3.22746 21.3784 2.93245 21.9481Z" fill="#639431"/>
<path fill-rule="evenodd" clip-rule="evenodd" d="M9.34346 9.53184C9.66206 9.81176 10.0355 10.1398 10.841 9.85957C11.3677 9.67632 12.0484 8.48247 12.8079 7.1504C13.9181 5.20328 15.1966 2.96082 16.4088 3.14764C17.871 3.37298 17.781 4.18244 17.7118 4.80503C17.6632 5.24172 17.6249 5.58648 18.1396 5.57324C18.6639 5.55976 19.1741 4.9436 19.7662 4.22856C20.5841 3.24087 21.5582 2.06452 22.9414 2.02732C23.9167 2.00109 23.9013 2.42134 23.8857 2.84751C23.8757 3.11991 23.8656 3.39474 24.1141 3.55694C24.3589 3.71673 24.9744 3.6609 25.682 3.59671C26.8164 3.4938 28.1875 3.36942 28.6471 4.07763C29.0511 4.70024 28.5364 5.31905 28.043 5.91218C27.6251 6.41456 27.2226 6.89851 27.4066 7.35073C27.5568 7.71969 27.865 7.92757 28.1672 8.13134C28.6614 8.46461 29.1393 8.78692 28.8827 9.78508C28.6114 10.8405 26.9792 11.1264 25.4493 11.3943C24.1676 11.6187 22.9577 11.8306 22.6798 12.4719C22.5055 12.8741 22.7946 13.0614 23.1186 13.2712C23.5057 13.522 23.9425 13.8049 23.6976 14.5253C23.125 16.2095 21.2129 16.2095 19.4183 16.2096C17.8779 16.2096 16.4242 16.2096 15.9785 17.2746C15.7211 17.8896 16.1106 17.9981 16.5379 18.1172C17.061 18.263 17.6409 18.4246 17.1604 19.5502C16.241 21.7042 12.8109 21.7235 9.67083 21.7411C8.51948 21.7475 7.40713 21.7538 6.47185 21.8649C6.36509 21.8776 6.2704 21.9389 6.21446 22.0307C5.35383 23.4429 4.74344 24.9961 4.09236 26.6528C3.94933 27.0168 3.80433 27.3858 3.65429 27.7593C3.45594 28.2532 2.89481 28.4927 2.40097 28.2944C1.90714 28.096 1.6676 27.5349 1.86595 27.0411C2.60472 25.2017 3.45701 23.5104 4.38894 21.9578C5.90984 19.157 8.90794 15.7208 12.0784 13.1393C14.8993 10.7907 17.5932 9.03274 20.7285 7.69881C21.121 7.53183 21.0045 7.07286 20.5948 7.19127C17.814 7.99486 15.3559 9.5888 12.8079 11.1951C10.0366 12.9422 7.71425 15.3048 6.28515 17.0226C6.03318 17.3255 5.48214 17.0764 5.56148 16.6905C6.18214 13.6714 6.82272 10.9008 7.76174 9.88749C8.65326 8.92544 8.95831 9.19346 9.34346 9.53184Z" fill="#D9EA72"/>
</svg>
