<svg width="24" height="24" viewBox="0 0 24 24" fill="none" xmlns="http://www.w3.org/2000/svg">
<path fill-rule="evenodd" clip-rule="evenodd" d="M2.35107 16.4351C1.5327 18.0156 0.9195 19.0434 0.327054 20.5184C-0.135482 21.67 0.423095 22.9785 1.57466 23.441C2.72622 23.9035 4.03471 23.345 4.49725 22.1934C4.61435 21.9019 4.7272 21.6147 4.83622 21.3373L4.83724 21.3347C5.25239 20.2783 5.61044 19.3743 6.0436 18.5602C6.53145 18.5337 7.08924 18.5296 7.7182 18.5261L7.79725 18.5256C8.94431 18.5193 10.3263 18.5117 11.518 18.2705C12.7104 18.0292 14.186 17.4586 14.8383 15.9305C15.0149 15.5168 15.194 14.9061 15.0372 14.2859C15.0842 14.2858 15.1324 14.2858 15.1819 14.2858C15.2084 14.2858 15.2354 14.2858 15.2629 14.2858C15.8921 14.2862 16.7777 14.2868 17.5693 14.0715C18.493 13.8202 19.4642 13.2252 19.8904 11.9719C20.0443 11.519 20.0729 11.0434 19.9399 10.5939C19.9807 10.5867 20.0224 10.5794 20.0653 10.5719C20.0859 10.5683 20.1068 10.5646 20.128 10.5609C20.6689 10.4664 21.3929 10.3399 22.0114 10.1085C22.6131 9.88341 23.6017 9.38055 23.8979 8.2281C24.0668 7.57123 24.0491 6.87584 23.6698 6.24782C23.5121 5.98669 23.3114 5.78108 23.1334 5.62946C23.2992 5.42198 23.51 5.13333 23.6553 4.81488C23.9072 4.26238 24.0371 3.45061 23.5217 2.65636C22.9368 1.75492 21.9338 1.59745 21.4376 1.55665C20.9216 1.51422 20.367 1.55954 19.9684 1.59556C19.9143 1.46298 19.8398 1.32355 19.7368 1.18595C19.1835 0.447017 18.3252 0.384912 17.8421 0.397904C16.8661 0.424151 16.1027 0.85722 15.5509 1.30639C15.2613 1.54212 14.5722 2.50594 14.3467 2.75663C14.3467 1.85771 13.4807 1.40022 12.8718 1.30639C11.6897 1.12421 10.9575 1.88542 10.2768 2.75663C9.42832 3.84263 8.77145 5.24045 7.9953 6.29072C7.72779 6.1167 7.41113 5.70948 6.90466 5.733C6.07019 5.77176 5.51585 6.33742 5.15715 6.7245C4.53294 7.39809 4.13577 8.62184 3.86541 9.53294C3.5715 10.8512 3.37104 11.4071 3.13289 12.8524C2.99127 13.7119 2.91947 14.3901 2.91947 15.35C2.75699 15.6683 2.57104 16.0103 2.35107 16.4351Z" fill="#639431"/>
<path fill-rule="evenodd" clip-rule="evenodd" d="M7.07517 7.2816C7.31639 7.49354 7.59911 7.74193 8.209 7.52973C8.60778 7.39099 9.12314 6.48711 9.69816 5.47858C10.5387 4.00439 11.5067 2.30659 12.4245 2.44803C13.5315 2.61864 13.4634 3.23149 13.4109 3.70286C13.3742 4.03349 13.3452 4.29451 13.7348 4.28449C14.1318 4.27428 14.5181 3.80778 14.9664 3.26641C15.5856 2.51862 16.3232 1.62798 17.3704 1.59982C18.1088 1.57997 18.0971 1.89814 18.0853 2.2208C18.0777 2.42704 18.0701 2.63512 18.2582 2.75792C18.4436 2.8789 18.9096 2.83663 19.4453 2.78803C20.3042 2.71011 21.3423 2.61595 21.6902 3.15214C21.9961 3.62353 21.6064 4.09204 21.2329 4.54111C20.9165 4.92147 20.6117 5.28787 20.7511 5.63026C20.8647 5.9096 21.0981 6.06699 21.3269 6.22126C21.701 6.47359 22.0629 6.71761 21.8686 7.47334C21.6632 8.27243 20.4275 8.48884 19.2691 8.69169C18.2988 8.86163 17.3827 9.02206 17.1723 9.50757C17.0403 9.81207 17.2593 9.95387 17.5045 10.1127C17.7976 10.3026 18.1283 10.5168 17.9429 11.0623C17.5094 12.3374 16.0617 12.3374 14.703 12.3374C13.5367 12.3374 12.4361 12.3375 12.0986 13.1438C11.9038 13.6094 12.1987 13.6915 12.5222 13.7817C12.9183 13.8921 13.3573 14.0145 12.9935 14.8667C12.2974 16.4975 9.70041 16.5121 7.32304 16.5254C6.45133 16.5303 5.60916 16.535 4.90104 16.6192C4.82021 16.6288 4.74852 16.6752 4.70616 16.7447C4.05457 17.8139 3.59243 18.9898 3.09949 20.2442C2.9912 20.5197 2.88142 20.7991 2.76782 21.0819C2.61765 21.4558 2.19281 21.6372 1.81892 21.487C1.44503 21.3368 1.26367 20.912 1.41385 20.5381C1.97318 19.1455 2.61846 17.865 3.32404 16.6895C4.47554 14.569 6.74544 11.9673 9.14582 10.0129C11.2816 8.23468 13.3212 6.90373 15.695 5.89379C15.9921 5.76737 15.9039 5.41988 15.5937 5.50953C13.4884 6.11794 11.6273 7.32473 9.69816 8.5409C7.59998 9.86366 5.84168 11.6524 4.75969 12.953C4.56891 13.1823 4.15171 12.9937 4.21178 12.7015C4.68169 10.4158 5.16669 8.31806 5.87764 7.55087C6.55262 6.82249 6.78358 7.02541 7.07517 7.2816Z" fill="#D9EA72"/>
</svg>
