<svg width="64" height="64" viewBox="0 0 64 64" fill="none" xmlns="http://www.w3.org/2000/svg">
<path d="M15.3557 31.5106C15.7242 34.5814 17.0754 40.8461 20.1463 46.1283C20.5149 46.8653 21.4976 46.7424 21.7431 46.1283L39.4317 13.6992C39.8003 13.085 39.6774 12.2252 39.0633 11.7338C36.4838 9.52275 33.167 8.17154 29.2363 8.29436C15.11 8.66289 14.9872 26.4743 15.3557 31.5106ZM34.7639 55.5868C48.5218 55.2181 49.0132 37.5296 48.5218 32.6161C48.2761 29.4223 46.9249 23.0348 43.731 17.5072C43.4853 17.0158 42.6255 17.0158 42.3798 17.5072L24.5685 50.1819C24.3228 50.9188 24.4456 51.6559 24.937 52.1473C27.5166 54.3583 30.8332 55.7095 34.7639 55.5868ZM49.75 3.99506L49.0132 5.34628C48.5218 6.20615 48.7675 7.18884 49.5043 7.55734C59.3315 13.822 62.5251 24.6317 62.5251 31.7563C62.5251 40.6006 55.1549 61.2371 32.6758 61.2371C28.2535 61.2371 24.4456 60.623 21.0063 59.5175C20.392 59.2718 19.5322 59.5175 19.1637 60.1316L18.181 62.0972C17.8124 62.834 16.9526 63.0797 16.2156 62.7113L14.8644 61.9742C14.1273 61.6058 13.8817 60.7459 14.2502 60.0089L15.11 58.4119C15.4785 57.6749 15.2329 56.815 14.6187 56.4466C4.7917 50.059 1.4751 39.1265 1.4751 32.2477C1.4751 23.4033 8.23114 2.7667 30.8332 2.7667C35.501 2.7667 39.4317 3.38089 42.8712 4.48641C43.6083 4.73208 44.4681 4.36358 44.8366 3.74939L45.9421 1.784C46.3107 1.16981 47.1705 0.924138 47.7847 1.29265L49.2588 2.02967C49.873 2.39819 50.1187 3.25804 49.75 3.99506Z" fill="black"/>
</svg>
