<svg width="64" height="64" viewBox="0 0 64 64" fill="none" xmlns="http://www.w3.org/2000/svg">
<path d="M35.0415 0.551819C41.0486 0.551819 46.1485 2.56577 49.6504 6.89075C49.9931 7.31408 50.3154 7.75501 50.6196 8.2117C52.0145 9.12372 53.2731 10.2547 54.3737 11.6141C57.7727 15.8121 59.2539 21.6859 59.2539 28.6181C59.2539 34.128 58.3163 38.9765 56.2292 42.8505C56.4404 42.9955 56.6437 43.1574 56.8374 43.336C57.7636 44.1894 58.3016 45.2584 58.6399 46.2062L58.6595 46.2615L58.6779 46.318C59.1153 47.6859 59.4069 49.675 58.2639 51.5165C58.0283 51.8961 57.7584 52.2242 57.4671 52.5088C57.5288 52.8967 57.5505 53.3056 57.5184 53.7347C57.3555 55.9066 55.9376 57.3616 54.7139 58.2331L54.7116 58.2349C53.8013 58.8821 52.5029 59.5938 50.8721 59.5939C49.9274 59.5938 49.118 59.3623 48.4291 58.9977C47.7318 59.364 46.9175 59.5939 45.9763 59.5939C44.4172 59.5938 43.0829 58.882 42.1726 58.2349L42.1311 58.2049C41.1223 57.4652 39.9082 56.2835 39.4881 54.5718C38.6861 54.3046 37.992 53.8974 37.4493 53.5115L37.4078 53.4816C36.7846 53.0246 36.0834 52.3989 35.5391 51.584C35.046 51.4755 34.5619 51.3493 34.0878 51.204V57.6387C34.0878 58.9405 33.7588 60.5905 32.4428 61.8741C31.1436 63.1417 29.4987 63.4482 28.202 63.4482H15.2791C13.9774 63.4482 12.3506 63.1199 11.0741 61.844C10.1135 60.8834 9.69005 59.7244 9.53922 58.6546C8.46987 58.5037 7.31112 58.0807 6.35072 57.1203C5.07428 55.8439 4.74614 54.2171 4.74609 52.9153V7.11736C4.74609 5.81557 5.07419 4.18831 6.35072 2.91177C7.6272 1.63544 9.25403 1.30773 10.5557 1.30772H23.4787C24.5333 1.30772 25.8009 1.5103 26.9313 2.24467C29.3471 1.12842 32.077 0.551855 35.0415 0.551819Z" fill="black"/>
<path d="M50.5802 42.6738C51.1877 44.5736 50.5445 45.6642 48.4718 46.016L47.7571 46.1215L48.2574 46.6844C49.6868 48.1268 49.6153 49.4285 47.9358 50.6247C47.2926 51.082 46.7208 51.3283 46.149 51.3283C45.3271 51.3283 44.6482 50.7654 44.0764 49.6747L43.719 49.0063L43.3617 49.6747C42.79 50.7654 42.0753 51.3283 41.2533 51.3283C40.7531 51.3283 40.1455 51.082 39.5023 50.6247C37.8227 49.3933 37.7155 48.1268 39.1807 46.7196L39.7167 46.1215L38.9663 46.016C36.9294 45.6642 36.2147 44.5736 36.8579 42.709C37.2867 41.337 37.9657 40.7037 39.002 40.7037C39.4308 40.7037 39.9669 40.8445 40.5386 41.1259L41.2176 41.4777L41.0747 40.7389C40.8245 38.7337 41.6464 37.7486 43.719 37.7486C45.7559 37.7486 46.6136 38.7337 46.292 40.7389L46.1848 41.4777L46.8995 41.1611C47.507 40.8797 48.0073 40.7389 48.4718 40.7389C49.4367 40.7389 50.1157 41.3722 50.5802 42.6738Z" fill="#58A7FF"/>
<path fill-rule="evenodd" clip-rule="evenodd" d="M35.0419 4.09436C45.3955 4.09436 50.9885 10.8961 50.9885 23.8948C50.9885 29.8304 49.8208 34.4888 47.5676 37.7996C47.4703 37.6397 47.36 37.4833 47.2314 37.3343C46.3152 36.2727 44.9651 35.9771 43.7195 35.9771C42.4584 35.9771 41.1123 36.2715 40.1914 37.3274C39.765 37.8164 39.5143 38.3736 39.3824 38.9517C39.2554 38.9395 39.1286 38.9321 39.0025 38.9321C38.0819 38.9321 37.2067 39.2311 36.4932 39.8978C35.8431 40.5055 35.4464 41.3086 35.1838 42.131C35.0048 42.6498 34.8792 43.2062 34.8603 43.7684C31.311 43.7312 28.2745 42.6054 25.8224 40.7477V52.9154C25.8223 54.4267 25.0661 55.1825 23.4791 55.1825H10.5562C9.04487 55.1825 8.28916 54.4266 8.28906 52.9154V7.11737C8.28906 5.60594 9.04477 4.85029 10.5562 4.85026H23.4791C25.0662 4.85026 25.8224 5.60595 25.8224 7.04186C28.2407 5.15258 31.339 4.09441 35.0419 4.09436ZM30.1346 17.3384C26.5814 17.3384 25.4113 19.989 25.4113 24.4235C25.4113 28.8582 26.5813 31.5085 30.1346 31.5085C33.688 31.5085 34.858 28.8582 34.858 24.4235C34.8579 19.989 33.6879 17.3384 30.1346 17.3384Z" fill="#FF5D5B"/>
</svg>
