<svg width="64" height="64" viewBox="0 0 64 64" fill="none" xmlns="http://www.w3.org/2000/svg">
<path d="M38.8394 1.51855C43.2583 1.51855 46.8406 5.18242 46.8406 9.70204C46.8406 11.5587 46.2346 13.2699 45.2158 14.6431L50.7581 24.0001C51.303 23.8802 51.8683 23.8165 52.4482 23.8165C56.8672 23.8165 60.4495 27.4804 60.4495 32C60.4495 36.5196 56.8672 40.1835 52.4482 40.1835C48.0292 40.1835 44.4469 36.5196 44.4469 32C44.4469 30.1472 45.0492 28.4385 46.0641 27.0668L40.5175 17.7031C39.9762 17.8213 39.4151 17.8855 38.8394 17.8855C38.2652 17.8855 37.7054 17.8228 37.1656 17.7053L31.5559 26.7987C32.5638 28.1677 33.1622 29.8706 33.1622 31.7164C33.1621 33.6214 32.5232 35.3724 31.4558 36.763L37.1101 46.3069C37.667 46.1814 38.2456 46.1145 38.8394 46.1145C43.2583 46.1145 46.8406 49.7783 46.8406 54.298C46.8406 58.8176 43.2583 62.4814 38.8394 62.4814C34.4204 62.4814 30.8381 58.8176 30.8381 54.298C30.8381 52.4603 31.4303 50.7641 32.4303 49.3981L26.7107 39.7441C26.2092 39.8448 25.6913 39.8998 25.1609 39.8998C24.6179 39.8998 24.0878 39.8429 23.5752 39.7374L17.7697 49.1489C18.8845 50.5553 19.5534 52.3464 19.5534 54.298C19.5534 58.8176 15.9711 62.4814 11.5521 62.4814C7.13308 62.4814 3.55078 58.8176 3.55078 54.298C3.55078 49.7783 7.13308 46.1145 11.5521 46.1145C12.0384 46.1145 12.5144 46.1607 12.9768 46.2457L18.8443 36.7352C17.7898 35.3491 17.1597 33.6086 17.1596 31.7164C17.1596 27.1967 20.7419 23.5329 25.1609 23.5329C25.7482 23.5329 26.3204 23.598 26.8717 23.7209L32.4672 14.6497C31.4456 13.2755 30.8381 11.5616 30.8381 9.70204C30.8381 5.18242 34.4204 1.51855 38.8394 1.51855Z" fill="#75C4E4"/>
</svg>
