<svg width="64" height="64" viewBox="0 0 64 64" fill="none" xmlns="http://www.w3.org/2000/svg">
<circle cx="32.1428" cy="32.1428" r="31.1428" fill="#D9E4FF"/>
<path d="M32.4941 4.94086C47.3569 5.12915 59.3476 17.2356 59.3477 32.143L59.3447 32.4946C59.1565 47.3573 47.05 59.348 32.1426 59.3481L31.791 59.3461C17.0453 59.1594 5.12625 47.2403 4.93945 32.4946L4.9375 32.143C4.93752 17.1182 17.1178 4.93793 32.1426 4.93793L32.4941 4.94086ZM32.1426 6.10492C17.762 6.10492 6.10451 17.7624 6.10449 32.143C6.10452 46.5236 17.762 58.1811 32.1426 58.1811C46.5231 58.181 58.1806 46.5236 58.1807 32.143C58.1806 17.7624 46.5231 6.10498 32.1426 6.10492ZM32.3945 12.7143C43.0096 12.8489 51.5732 21.496 51.5732 32.143L51.5713 32.394C51.4368 43.009 42.7904 51.5724 32.1436 51.5727L31.8916 51.5717C21.3601 51.4382 12.8483 42.9255 12.7148 32.394L12.7129 32.143C12.7129 21.412 21.4126 12.7123 32.1436 12.7123L32.3945 12.7143ZM32.1436 13.2963C21.7347 13.2963 13.2959 21.7341 13.2959 32.143C13.296 42.5518 21.7348 50.9897 32.1436 50.9897C42.5521 50.9894 50.9901 42.5516 50.9902 32.143C50.9902 21.7343 42.5522 13.2966 32.1436 13.2963ZM32.1426 20.5805C38.5281 20.5805 43.705 25.7575 43.7051 32.143L43.7041 32.2924C43.624 38.6091 38.4782 43.7045 32.1426 43.7045H31.9932C25.6767 43.6244 20.5812 38.4785 20.5811 32.143C20.5811 25.7576 25.7572 20.5807 32.1426 20.5805ZM32.1426 21.1635C26.0793 21.1637 21.1641 26.0797 21.1641 32.143C21.1642 38.2063 26.0793 43.1213 32.1426 43.1215C38.206 43.1215 43.1219 38.2064 43.1221 32.143C43.122 26.0796 38.206 21.1635 32.1426 21.1635ZM32.1426 26.0864C35.4876 26.0864 38.1992 28.7979 38.1992 32.143C38.1991 35.488 35.4876 38.1996 32.1426 38.1996C28.7976 38.1996 26.086 35.488 26.0859 32.143C26.0859 28.798 28.7975 26.0864 32.1426 26.0864Z" fill="#3B7EFF"/>
</svg>
