<svg width="64" height="64" viewBox="0 0 64 64" fill="none" xmlns="http://www.w3.org/2000/svg">
<path d="M32.0003 1.09973C45.9149 1.09978 57.201 12.0113 57.201 25.4784C57.201 38.9454 45.9149 49.8567 32.0003 49.8568C29.4005 49.8568 27.0472 49.5296 24.7269 48.8357C24.1193 48.6539 23.4583 48.819 23.0354 49.2846L11.819 61.6346L11.8188 61.6348C11.3416 62.1591 10.8684 62.5566 10.3224 62.7566C9.77286 62.9578 9.16199 62.9547 8.41943 62.703C7.6613 62.4459 7.2538 61.9416 7.03839 61.4125C6.82473 60.8876 6.79991 60.3386 6.79932 59.9836V25.4784C6.79934 12.0113 18.0856 1.09973 32.0003 1.09973ZM32.7158 13.178C32.3469 12.3503 31.172 12.3503 30.8031 13.178L27.6927 20.1556C27.5405 20.4969 27.2179 20.7313 26.8462 20.7706L19.2492 21.5722C18.348 21.6674 17.985 22.7849 18.6581 23.3916L24.333 28.5057C24.6107 28.7559 24.7339 29.1352 24.6564 29.5008L23.0712 36.9738C22.8832 37.8602 23.8338 38.5509 24.6187 38.0982L31.2362 34.2812C31.56 34.0945 31.9587 34.0945 32.2825 34.2812L38.9 38.0982C39.685 38.5509 40.6355 37.8603 40.4475 36.9738L38.8625 29.5008C38.785 29.1352 38.9081 28.7559 39.1857 28.5057L44.8606 23.3916C45.5338 22.7849 45.1708 21.6674 44.2695 21.5722L36.6725 20.7706C36.3008 20.7313 35.9782 20.497 35.826 20.1556L32.7158 13.178Z" fill="#533EE5"/>
</svg>
