<svg width="64" height="64" viewBox="0 0 64 64" fill="none" xmlns="http://www.w3.org/2000/svg">
<path d="M12.6923 8.56014C21.1606 3.48784 32.9802 2.65962 43.8724 3.10408C50.1339 3.35961 54.6592 5.81101 57.7679 9.53078C60.8691 13.242 62.5431 18.1945 63.1556 23.4351C63.7681 28.6777 63.3212 34.2299 62.1608 39.1634C61.0015 44.0926 59.1242 48.4301 56.8559 51.2292C47.8253 62.3724 35.953 61.5267 26.7211 60.517C22.0927 60.0106 16.4826 58.9573 11.7005 55.9161C6.90433 52.8662 2.96388 47.8317 1.65953 39.4193C0.388546 31.2219 1.01319 24.7813 3.02911 19.7473C5.04667 14.7092 8.44913 11.1017 12.6923 8.56014Z" fill="#250041"/>
<path d="M39.5819 13.9392C53.9885 14.4041 51.8652 45.1854 51.118 56.5837C48.9082 58.0954 46.6135 59.1341 44.2919 59.8268C44.6106 49.8604 46.7259 21.6075 34.909 19.0768C9.06747 14.5782 19.3346 44.195 20.0682 59.3737C19.6023 59.2572 19.1353 59.13 18.6678 58.9929C17.8331 49.5979 15.3228 38.6795 16.3837 29.07C17.7854 16.3759 30.7651 13.655 39.5819 13.9392ZM37.3046 37.3591C39.3435 36.0451 41.8718 38.281 40.993 40.989C39.7577 44.7916 33.7616 39.6449 37.3046 37.3591Z" fill="#FCF4C3"/>
</svg>
