<svg width="64" height="64" viewBox="0 0 64 64" fill="none" xmlns="http://www.w3.org/2000/svg">
<path d="M32.4963 34.4842C46.491 34.4842 53.8619 40.7132 53.8619 48.3966C53.8617 56.0798 46.4908 62.3076 32.4963 62.3076C18.5018 62.3074 10.1382 54.5889 10.1382 46.9057C10.1382 39.2224 18.5018 34.4843 32.4963 34.4842ZM31.786 19.5806C39.7371 19.5808 46.4082 24.63 46.4088 29.0202C46.4088 33.4106 39.4551 32.996 31.5038 32.996C23.5522 32.996 17.0944 32.9137 17.0944 28.5233C17.095 24.133 23.8348 19.5806 31.786 19.5806ZM31.5038 9.64115C39.4554 9.64118 45.4162 12.7038 45.4162 17.0943C45.416 21.4844 39.4552 18.5839 31.5038 18.5839C23.5523 18.5839 19.0824 20.9876 19.0823 16.5974C19.0823 12.2068 23.5522 9.64115 31.5038 9.64115ZM31.6056 1.69238C35.8062 1.69245 38.9553 3.55125 38.9556 6.7323C38.9556 9.91362 35.8064 7.65474 31.6056 7.65465C27.4049 7.65465 25.0432 9.91368 25.0432 6.7323C25.0434 3.55119 27.4051 1.69238 31.6056 1.69238Z" fill="#FF6400"/>
</svg>
