<svg width="64" height="64" viewBox="0 0 64 64" fill="none" xmlns="http://www.w3.org/2000/svg">
<path d="M29.9516 19.0014C29.9516 21.5145 32.2989 22.3872 34.4481 22.8395C37.4272 23.4664 41.9968 24.0448 47.9303 26.0939C53.9885 28.1861 57.0388 31.8749 58.3149 35.9691C59.5785 40.0233 59.0816 44.4042 58.2076 47.8948C57.2939 51.5441 54.161 55.3739 49.2097 58.2794C44.2439 61.1933 37.4028 63.2094 28.9652 63.2094C20.5711 63.2094 15.0339 62.0758 11.2004 60.5422C7.35309 59.0031 5.25812 57.0742 3.74235 55.5627C2.41112 54.2352 1.70963 51.9972 1.34754 49.8262C0.984891 47.6517 0.938245 45.4522 1.06101 43.2561H23.9101C23.9396 45.114 24.3276 46.4883 26.011 47.426C26.6674 47.7917 28.5096 48.0569 29.8728 48.1465C31.7343 48.2688 34.1484 48.0908 35.5093 46.6025C35.9119 46.162 36.1564 45.5931 36.1048 44.8043C36.0343 43.7289 35.4854 42.9525 34.4929 42.3246C33.4708 41.678 32.0162 41.2177 30.2386 40.82C28.4627 40.4228 26.4591 40.1064 24.3276 39.7069C22.2131 39.3106 20.0032 38.8369 17.8943 38.134C13.6464 36.718 10.7402 34.4591 8.96473 31.5084C7.19494 28.5671 6.58817 25.0034 6.80927 21.0436C7.27546 12.6962 14.7855 2.1961 31.3529 1.19179C47.6976 0.201205 55.5271 3.16215 59.5436 7.43765C61.184 9.18389 62.0737 11.5996 62.5032 13.884C62.9334 16.1724 62.9163 18.4061 62.6777 19.8598L62.594 20.3656H40.174L40.1292 19.8103C39.9025 16.9692 39.1416 15.6338 35.0955 15.6338C33.0407 15.6338 29.9516 16.4884 29.9516 19.0014Z" fill="#A06E00"/>
</svg>
