<svg width="64" height="64" viewBox="0 0 64 64" fill="none" xmlns="http://www.w3.org/2000/svg">
<path d="M38.1679 54.9961C39.0794 58.3988 37.0598 61.8959 33.6572 62.8076C33.1189 62.9518 32.5641 63.0254 32.0068 63.0254C28.484 63.0254 25.6279 60.1693 25.6279 56.6465C25.6279 56.0893 25.7005 55.5343 25.8447 54.9961L32.0068 32L38.1679 54.9961ZM15.1484 48.9316C12.6663 51.4245 8.6334 51.4332 6.14057 48.9512C5.74118 48.5535 5.39644 48.1046 5.11518 47.6162C3.34734 44.5464 4.4028 40.6253 7.4726 38.8574C7.95175 38.5815 8.46426 38.368 8.99799 38.2236L32.0068 32L15.1484 48.9316ZM55.0224 38.0879C58.3887 38.9782 60.3962 42.4286 59.5058 45.7949C59.3606 46.3439 59.1417 46.8709 58.8554 47.3613C57.0703 50.4192 53.1439 51.451 50.0859 49.666C49.6173 49.3925 49.1857 49.0601 48.8007 48.6777L32.0068 32L55.0224 38.0879ZM32.1142 0.974609C35.6046 0.974754 38.4344 3.80455 38.4345 7.29492C38.4345 7.84987 38.361 8.40262 38.2167 8.93848L32.0068 32L25.9599 8.95215C25.0682 5.55339 27.1003 2.07551 30.499 1.18359C31.026 1.0453 31.5693 0.974609 32.1142 0.974609ZM48.8818 15.1914C51.3737 12.7096 55.4056 12.7181 57.8876 15.21C58.2758 15.5996 58.6121 16.0377 58.8876 16.5137C60.6427 19.5463 59.6068 23.4276 56.5742 25.1826C56.0931 25.461 55.5777 25.6753 55.041 25.8193L32.0068 32L48.8818 15.1914ZM5.15033 16.4248C6.91542 13.3754 10.8187 12.3337 13.8681 14.0986C14.3522 14.3789 14.7976 14.7219 15.1923 15.1182L32.0068 32L9.01654 25.7949C5.60932 24.8754 3.59226 21.3682 4.51166 17.9609C4.65674 17.4234 4.87143 16.9067 5.15033 16.4248Z" fill="#FF0090"/>
</svg>
