<svg width="64" height="64" viewBox="0 0 64 64" fill="none" xmlns="http://www.w3.org/2000/svg">
<path d="M42.1942 62.2061C40.1132 62.1895 38.5255 61.5978 36.8033 60.5694C34.3336 59.2985 32.4473 57.1634 31.0995 54.8093C28.9577 57.4086 26.0952 58.9857 22.8906 59.8767C21.5261 60.2643 19.1362 60.6575 15.1747 59.2536C9.46554 57.3775 5.30684 51.5664 5.77946 45.6454C5.693 43.191 6.60783 40.782 7.90455 38.7112C4.44529 36.8949 1.6245 33.8461 0.544296 30.1071C-0.112146 28.0602 -0.084542 25.8552 0.157525 23.751C1.02443 18.7831 4.83393 14.4631 9.73824 12.9093C11.6958 8.54547 15.9676 5.29133 20.8073 4.62882C24.0207 4.1911 27.3471 4.84916 30.1583 6.44676C34.2544 2.00297 41.3903 0.689689 46.8391 3.41949C50.9955 5.36113 53.9677 9.41209 54.6894 13.8295C58.6443 15.3794 61.9754 18.5401 63.2827 22.5526C64.1568 25.0368 64.1857 27.7732 63.6196 30.324C62.6082 34.3042 59.7359 37.6927 56.0181 39.5447C56.0271 40.2531 58.4075 45.3603 58.0093 49.2145C57.9223 54.0331 54.798 58.5998 50.465 60.818C47.9366 62.2616 44.9403 62.2344 42.1942 62.2061ZM30.3466 48.3357C33.8511 47.9539 36.1485 44.9649 37.9329 42.273C38.7765 41.0468 39.4209 39.6743 40.0612 38.3689C40.8915 39.1134 41.5951 40.5159 42.9082 40.8499C44.2914 41.2713 45.9131 40.929 46.7599 39.6999C48.3805 36.7431 47.5817 33.1753 46.638 30.1112C46.0569 28.3514 45.2944 26.546 43.8436 25.2985C44.153 23.1635 42.8597 20.9952 41.0211 19.8776C39.4543 21.0998 37.0703 21.0924 35.5588 19.7851C32.6618 22.6753 30.0069 22.5794 27.4425 20.2888C26.8661 19.774 25.7664 23.431 21.907 21.3594C19.6898 23.1767 17.9705 24.9249 16.4471 27.4421C14.9668 30.1558 13.4166 32.5658 13.283 35.5127C13.2188 37.2351 14.5946 39.0397 16.4588 38.8996C18.3221 39.0624 19.5904 37.2686 21.0012 36.5235C21.2116 38.9272 21.4486 41.5098 22.279 43.8565C23.2322 46.8932 26.5893 48.8233 29.767 48.3813C29.9918 48.3642 30.3466 48.3354 30.3466 48.3357ZM32.1657 39.2678C30.4611 38.2458 31.2814 36.0279 31.2131 34.417C31.3827 32.4731 31.5188 30.4293 32.4122 28.6583C33.3577 27.3957 35.6635 27.8828 35.7653 29.5027C35.6975 31.1323 34.9328 32.7544 35.0242 34.4436C34.8258 35.8542 35.1678 37.4385 34.5299 38.7277C34.0066 39.4411 32.9406 39.6484 32.1657 39.2678ZM24.7212 38.3393C23.1157 37.4871 23.6258 35.343 23.3739 33.8523C23.5827 32.1264 23.4089 29.9371 24.8861 28.7268C26.3307 27.7413 28.297 29.4289 27.6138 30.9783C26.8852 32.9363 27.3627 35.0756 27.3781 37.061C27.1025 38.2321 25.822 38.8538 24.7212 38.3393Z" fill="#272727"/>
</svg>
