<svg width="40" height="40" viewBox= " 50 50 40 40" fill="none" xmlns="http://www.w3.org/2000/svg">
<path d="M10 45C10 42.2386 12.2386 40 15 40C17.7614 40 20 37.7614 20 35C20 32.2386 22.2386 30 25 30C27.7614 30 30 27.7614 30 25C30 22.2386 32.2386 20 35 20C37.7614 20 40 17.7614 40 15C40 12.2386 42.2386 10 45 10M-5 40C-2.23858 40 0 37.7614 0 35C0 32.2386 2.23858 30 5 30C5.41394 30 5.81614 29.9497 6.2008 29.8549C7.72144 29.48 8.96817 28.4094 9.58396 27M40 -5C40 -2.23858 37.7614 0 35 0C32.2386 0 30 2.23858 30 5C30 6.36273 29.4548 7.59812 28.5707 8.5M10 5C10 2.23858 12.2386 0 15 0C17.7614 0 20 -2.23858 20 -5M-5 20C-2.23858 20 0 17.7614 0 15C0 12.2386 2.23858 10 5 10M15 20C17.7614 20 20 17.7614 20 15C20 12.2386 22.2386 10 25 10M25 20C25 22.7614 22.7614 25 20 25C17.2386 25 15 27.2386 15 30C15 32.7614 12.7614 35 10 35C7.23858 35 5 37.2386 5 40C5 42.7614 2.76142 45 0 45C-2.76142 45 -5 47.2386 -5 50M-5 30C-5 27.2386 -2.76142 25 0 25C2.76142 25 5 22.7614 5 20C5 17.2386 7.23858 15 10 15C12.7614 15 15 12.7614 15 10C15 7.23858 17.2386 5 20 5C22.7614 5 25 2.76142 25 0C25 -2.76142 27.2386 -5 30 -5M10 -5C7.23858 -5 5 -2.76142 5 0C5 2.76142 2.76142 5 0 5C-2.76142 5 -5 7.23858 -5 10M30 35C27.2386 35 25 37.2386 25 40C25 42.7614 22.7614 45 20 45C17.2386 45 15 47.2386 15 50C15 52.7614 12.7614 55 10 55C7.23858 55 5 57.2386 5 60C5 62.7614 2.76142 65 0 65C-2.76142 65 -5 67.2386 -5 70M33.823 33.2227C34.5574 32.3524 35 31.2279 35 30C35 27.2386 37.2386 25 40 25C42.7614 25 45 22.7614 45 20C45 17.2386 47.2386 15 50 15C52.7614 15 55 12.7614 55 10C55 7.23858 57.2386 5 60 5C62.7614 5 65 2.76142 65 0C65 -2.76142 67.2386 -5 70 -5M11 21.9995C10.4865 22.683 10.1441 23.5023 10.0364 24.394M28.0978 15.3745C28.6842 15.1331 29.3266 15 30 15C32.7614 15 35 12.7614 35 10C35 7.23858 37.2386 5 40 5C42.7614 5 45 2.76142 45 0C45 -2.76142 47.2386 -5 50 -5M26.3277 16.6067C26.2118 16.732 26.1023 16.8633 25.9996 17M50 85C50 82.2386 52.2386 80 55 80C57.7614 80 60 77.7614 60 75C60 72.2386 62.2386 70 65 70C67.7614 70 70 67.7614 70 65C70 62.2386 72.2386 60 75 60C77.7614 60 80 57.7614 80 55C80 52.2386 82.2386 50 85 50M50 45C50 42.2386 52.2386 40 55 40C57.7614 40 60 37.7614 60 35C60 32.2386 62.2386 30 65 30C67.7614 30 70 27.7614 70 25C70 22.2386 72.2386 20 75 20C77.7614 20 80 17.7614 80 15C80 12.2386 82.2386 10 85 10M70 85C70 82.2386 72.2386 80 75 80C77.7614 80 80 77.7614 80 75C80 72.2386 82.2386 70 85 70M55 60C57.7614 60 60 57.7614 60 55C60 52.2386 62.2386 50 65 50M45 50C42.2386 50 40 52.2386 40 55C40 57.7614 37.7614 60 35 60C32.2386 60 30 62.2386 30 65C30 67.7614 27.7614 70 25 70C22.2386 70 20 72.2386 20 75C20 77.7614 17.7614 80 15 80C12.2386 80 10 82.2386 10 85M40 85C42.7614 85 45 82.7614 45 80C45 77.2386 47.2386 75 50 75C52.7614 75 55 72.7614 55 70C55 67.2386 57.2386 65 60 65C62.7614 65 65 62.7614 65 60M85 40C85 42.7614 82.7614 45 80 45C77.2386 45 75 47.2386 75 50C75 52.7614 72.7614 55 70 55C69.3266 55 68.6842 55.1331 68.0978 55.3745M70 35C67.2386 35 65 37.2386 65 40C65 42.7614 62.7614 45 60 45C57.2386 45 55 47.2386 55 50C55 52.7614 52.7614 55 50 55C47.2386 55 45 57.2386 45 60C45 62.7614 42.7614 65 40 65C37.2386 65 35 67.2386 35 70C35 71.2279 34.5574 72.3524 33.823 73.2227M60 85C62.7614 85 65 82.7614 65 80C65 77.2386 67.2386 75 70 75M85 60C85 62.7614 82.7614 65 80 65C77.2386 65 75 67.2386 75 70C75 71.2279 74.5574 72.3524 73.823 73.2227M51 61.9995C50.4865 62.683 50.1441 63.5023 50.0364 64.394M66.3277 56.6067C66.2118 56.732 66.1023 56.8633 65.9996 57M68.5707 48.5C69.4548 47.5981 70 46.3627 70 45C70 42.2386 72.2386 40 75 40C77.7614 40 80 37.7614 80 35C80 32.2386 82.2386 30 85 30M49.584 67C48.9682 68.4094 47.7214 69.48 46.2008 69.8549C45.8161 69.9497 45.4139 70 45 70C42.2386 70 40 72.2386 40 75C40 77.7614 37.7614 80 35 80C32.2386 80 30 82.2386 30 85M80 -5C80 -2.23858 77.7614 0 75 0C72.2386 0 70 2.23858 70 5C70 6.36273 69.4548 7.59812 68.5707 8.5M50 5C50 2.23858 52.2386 0 55 0C57.7614 0 60 -2.23858 60 -5M55 20C57.7614 20 60 17.7614 60 15C60 12.2386 62.2386 10 65 10M65 20C65 22.7614 62.7614 25 60 25C57.2386 25 55 27.2386 55 30C55 32.7614 52.7614 35 50 35C47.2386 35 45 37.2386 45 40C45 42.7614 42.7614 45 40 45C37.2386 45 35 47.2386 35 50C35 52.7614 32.7614 55 30 55C29.3266 55 28.6842 55.1331 28.0978 55.3745M85 0C85 2.76142 82.7614 5 80 5C77.2386 5 75 7.23858 75 10C75 12.7614 72.7614 15 70 15C69.3266 15 68.6842 15.1331 68.0978 15.3745M85 20C85 22.7614 82.7614 25 80 25C77.2386 25 75 27.2386 75 30C75 31.2279 74.5574 32.3524 73.823 33.2227M51 21.9995C50.4865 22.683 50.1441 23.5023 50.0364 24.394M66.3277 16.6067C66.2118 16.732 66.1023 16.8633 65.9996 17M49.584 27C48.9682 28.4094 47.7214 29.48 46.2008 29.8549C45.8161 29.9497 45.4139 30 45 30C42.2386 30 40 32.2386 40 35C40 37.7614 37.7614 40 35 40C32.2386 40 30 42.2386 30 45C30 46.3627 29.4548 47.5981 28.5707 48.5M-5 80C-2.23858 80 0 77.7614 0 75C0 72.2386 2.23858 70 5 70C5.41394 70 5.81614 69.9497 6.2008 69.8549C7.72144 69.48 8.96817 68.4094 9.58396 67M-5 60C-2.23858 60 0 57.7614 0 55C0 52.2386 2.23858 50 5 50M15 60C17.7614 60 20 57.7614 20 55C20 52.2386 22.2386 50 25 50M0 85C2.76142 85 5 82.7614 5 80C5 77.2386 7.23858 75 10 75C12.7614 75 15 72.7614 15 70C15 67.2386 17.2386 65 20 65C22.7614 65 25 62.7614 25 60M20 85C22.7614 85 25 82.7614 25 80C25 77.2386 27.2386 75 30 75M11 61.9995C10.4865 62.683 10.1441 63.5023 10.0364 64.394M26.3277 56.6067C26.2118 56.732 26.1023 56.8633 25.9996 57" stroke="black" stroke-width="1.5" stroke-linecap="round">
<animateTransform
      attributeName="transform"
      attributeType="XML"
      type="translate"
      from=" 50 10 "
      to="10 50"
      dur="7s"
      repeatCount="indefinite" />
    </path>
</svg>
